<mxfile host="www.draw.io" modified="2020-03-01T04:40:05.578Z" agent="Mozilla/5.0 (Windows NT 10.0; Win64; x64) AppleWebKit/537.36 (KHTML, like Gecko) Chrome/80.0.3987.122 Safari/537.36" etag="RG45lWXbW2wrqdRf7hOU" version="12.7.9" type="github">
  <diagram id="C5RBs43oDa-KdzZeNtuy" name="Page-1">
    <mxGraphModel dx="1550" dy="785" grid="1" gridSize="10" guides="1" tooltips="1" connect="1" arrows="1" fold="1" page="1" pageScale="1" pageWidth="827" pageHeight="1169" math="0" shadow="0">
      <root>
        <mxCell id="WIyWlLk6GJQsqaUBKTNV-0" />
        <mxCell id="WIyWlLk6GJQsqaUBKTNV-1" parent="WIyWlLk6GJQsqaUBKTNV-0" />
        <mxCell id="5Lu9amcT2PzDgMs-pKjX-0" value="" style="shape=image;imageAspect=0;aspect=fixed;verticalLabelPosition=bottom;verticalAlign=top;image=data:image/svg+xml,PHN2ZyB4bWxuczpkYz0iaHR0cDovL3B1cmwub3JnL2RjL2VsZW1lbnRzLzEuMS8iIHhtbG5zOmNjPSJodHRwOi8vY3JlYXRpdmVjb21tb25zLm9yZy9ucyMiIHhtbG5zOnJkZj0iaHR0cDovL3d3dy53My5vcmcvMTk5OS8wMi8yMi1yZGYtc3ludGF4LW5zIyIgeG1sbnM6c3ZnPSJodHRwOi8vd3d3LnczLm9yZy8yMDAwL3N2ZyIgeG1sbnM9Imh0dHA6Ly93d3cudzMub3JnLzIwMDAvc3ZnIiB4bWxuczpzb2RpcG9kaT0iaHR0cDovL3NvZGlwb2RpLnNvdXJjZWZvcmdlLm5ldC9EVEQvc29kaXBvZGktMC5kdGQiIHhtbG5zOmlua3NjYXBlPSJodHRwOi8vd3d3Lmlua3NjYXBlLm9yZy9uYW1lc3BhY2VzL2lua3NjYXBlIiB2ZXJzaW9uPSIxLjEiIHdpZHRoPSI3NDQuMDk0NDgiIGhlaWdodD0iNTAwLjM1OTk5IiBpZD0ic3ZnMzAyMyIgaW5rc2NhcGU6dmVyc2lvbj0iMC40OC4yIHI5ODE5IiBzb2RpcG9kaTpkb2NuYW1lPSJ4Ym94Q29udHJvbGxlci5zdmciIHZpZXdCb3g9IjAgMCA3NDQuMDk0NDggNTAwLjM1OTk5Ij4mI3hhOyAgPHNvZGlwb2RpOm5hbWVkdmlldyBwYWdlY29sb3I9IiNmZmZmZmYiIGJvcmRlcmNvbG9yPSIjNjY2NjY2IiBib3JkZXJvcGFjaXR5PSIxIiBvYmplY3R0b2xlcmFuY2U9IjEwIiBncmlkdG9sZXJhbmNlPSIxMCIgZ3VpZGV0b2xlcmFuY2U9IjEwIiBpbmtzY2FwZTpwYWdlb3BhY2l0eT0iMCIgaW5rc2NhcGU6cGFnZXNoYWRvdz0iMiIgaW5rc2NhcGU6d2luZG93LXdpZHRoPSIxNjA0IiBpbmtzY2FwZTp3aW5kb3ctaGVpZ2h0PSIxMDMwIiBpZD0ibmFtZWR2aWV3MTA1IiBzaG93Z3JpZD0iZmFsc2UiIGlua3NjYXBlOnpvb209IjAuNjM0Mjk1NjkiIGlua3NjYXBlOmN4PSIxOTIuMzUzOTMiIGlua3NjYXBlOmN5PSI0NTUuMzI0NTgiIGlua3NjYXBlOndpbmRvdy14PSI3MSIgaW5rc2NhcGU6d2luZG93LXk9Ii01IiBpbmtzY2FwZTp3aW5kb3ctbWF4aW1pemVkPSIxIiBpbmtzY2FwZTpjdXJyZW50LWxheWVyPSJzdmczMDIzIi8+JiN4YTsgIDxkZWZzIGlkPSJkZWZzMzAyNSI+JiN4YTsgICAgPGlua3NjYXBlOnBhdGgtZWZmZWN0IGVmZmVjdD0iYmVuZF9wYXRoIiBpZD0icGF0aC1lZmZlY3QzODIwIiBpc192aXNpYmxlPSJ0cnVlIiBiZW5kcGF0aD0iTSAwLDAgMSwwIiBwcm9wX3NjYWxlPSIxIiBzY2FsZV95X3JlbD0iZmFsc2UiIHZlcnRpY2FsPSJmYWxzZSIvPiYjeGE7ICA8L2RlZnM+JiN4YTsgIDxtZXRhZGF0YSBpZD0ibWV0YWRhdGEzMDI4Ij4mI3hhOyAgICA8cmRmOlJERj4mI3hhOyAgICAgIDxjYzpXb3JrIHJkZjphYm91dD0iIj4mI3hhOyAgICAgICAgPGRjOmZvcm1hdD5pbWFnZS9zdmcreG1sPC9kYzpmb3JtYXQ+JiN4YTsgICAgICAgIDxkYzp0eXBlIHJkZjpyZXNvdXJjZT0iaHR0cDovL3B1cmwub3JnL2RjL2RjbWl0eXBlL1N0aWxsSW1hZ2UiLz4mI3hhOyAgICAgICAgPGRjOnRpdGxlLz4mI3hhOyAgICAgIDwvY2M6V29yaz4mI3hhOyAgICA8L3JkZjpSREY+JiN4YTsgIDwvbWV0YWRhdGE+JiN4YTsgIDxnIGlkPSJsYXllcjEiIHRyYW5zZm9ybT0idHJhbnNsYXRlKC0xMS4wMzU4NjIsLTI2Ny4yOTY3NikiPiYjeGE7ICAgIDxwYXRoIGQ9Im0gMjAwLjk0NjQzLDM5NS41ODE5NiBjIC0yOS45OTE2MywtMC4yMTk2NCAtNzIuNDY1MTIsMTYuOTg4NzcgLTg5LjI5MjA5LDIzLjY2MTA2IC00Ljc4ODEsMS44OTg1OSAtMTcuMzkxODc1LDE4LjgxMzU1IC0yNS4yMTY4NCwzNS4yNTY5OCAtMy40OTk1MTUsNy4zNTM5IC0yOS4yODEyNSw4Mi4xNTYyNSAtMjkuMjgxMjUsODIuMTU2MjUgMCwwIC0xMi4xNDI4NTcsNTcuODM5MjkgLTEwLDkyLjEyNSBDIDQ5LjI5OTEwNyw2NjMuMDY2OTcgNzAsNjk0LjUgNzAsNjk0LjUgYyAwLDAgMTcuNTU2OTQxLDE3LjEwMDA5IDI3LDIwLjY4NzUgMTEuMzAxNjksNC4yOTM0OSAzMS44NTQxNiw2LjkwOTY2IDQzLDUuMDMxMjUgMjUuODY2MjMsLTQuMzU5MjQgOTguNDM3NSwtNDEuMjk0NjQgMTAzLjQzNzUsLTQzLjQzNzUgNSwtMi4xNDI4NiA5LjkxNzI4LC00LjA5OTk3IDE0LjY4NzUsLTUuMzEyNSAzLjUxOTQ5LDMuMzQzMDQgMzAuMTE2MDgsNS42Mjk0NiA0My42ODc1LDEuMzQzNzUgMTMuNTcxNDMsLTQuMjg1NzIgMjAuOTE3OTIsLTcuOTQ2NjMgMjcuMjE4NzUsLTEzLjI1IDExLjc2MDg2LC0wLjYzNzA0IDMyLjk3MzE5LC0wLjYwMDk3IDUyLjQwNjI1LC0wLjUgMTkuMzkzODQsLTAuMTAwOTUgNDAuNTQ0MTEsLTAuMTM2ODkgNTIuMjgxMjUsMC41IDYuMjg4MTEsNS4zMDIxMyAxMy42MTIyLDguOTY1MjggMjcuMTU2MjUsMTMuMjUgMTMuNTQ0MDMsNC4yODQ3IDQwLjExMjYyLDEuOTk4NTEgNDMuNjI1LC0xLjM0Mzc1IDQuNzYwNjEsMS4yMTIyNSA5LjYzNTA4LDMuMTcwMTQgMTQuNjI1LDUuMzEyNSA0Ljk4OTkxLDIuMTQyMzYgNzcuNDM2MDMsMzkuMDc5MjggMTAzLjI1LDQzLjQzNzUgMTEuMTIzMzEsMS44Nzc5NyAzMS42MjczNSwtMC43NzAwMiA0Mi45MDYyNSwtNS4wNjI1IDkuNDI0MDMsLTMuNTg2NTcgMjYuOTM3NSwtMjAuNjU2MjUgMjYuOTM3NSwtMjAuNjU2MjUgMCwwIDIwLjY3Mzg3LC0zMS40MDk4MiAyMi44MTI1LC02NS42ODc1IDIuMTM4NTQsLTM0LjI3NzY3IC05Ljk2ODc1LC05Mi4xMjUgLTkuOTY4NzUsLTkyLjEyNSAwLDAgLTI1LjcyNjI4LC03NC43NzI4MyAtMjkuMjE4NzUsLTgyLjEyNSAtNy44MDkxOSwtMTYuNDM5NTggLTIxLjAzODU0LC0zNC45MTI3NSAtMjUuODE2OTYsLTM2LjgxMDkgLTEyLjI3OTE1LC00Ljg3NzY3IC0zNi4yMzAwMywtMTYuNjE4NTQgLTYzLjExODgyLC0yMC43ODYxNyAtMTYuNjk0MzEsLTIuNTg3NTMgLTM2LjU5NjQ0LC0yLjkwMDUzIC01MC43NTIyLDEuNzIzODEgLTkuNTQ3MTUsMy4xMTg4MiAtMTcuOTYxODIsMTEuMTc2MDIgLTI0LjI4MDc3LDE0Ljc3NjY1IC03LjM4MDQ3LDQuMjA1NSAtMzcuNTE0MTgsMjIuNDMyMyAtNTQuNjIyNDYsMjYuNzE3IC0yNC45MTQ4MSw0LjE2NzIyIC01MC41MzAxOSwzLjk3NTk5IC03NS41NjI1LDMuMzE3NjMgMCwwIC01OC44Mjg0NCwwLjY4NDM2IC03NS45NzEyOSwtMy42MDEzNiAtMTcuMTQyODYsLTQuMjg1NzEgLTQwLjAxNTMyLC0xOS43NTc5OCAtNDcuNDEwNzEsLTIzLjk2NDQ3IC02LjMzMTcyLC0zLjYwMTQ3IC0xMC44NDUyMiwtNy41MjU4MSAtMjQuOTU1MzYsLTE0LjE2NTE4IC0xMC45MDY5NCwtNi4zNjA5NyAtMjIuNjMzNjgsLTYuMTg3MjMgLTMyLjQwNjI1LC02LjE4NzU1IHoiIGlkPSJwYXRoMzA0OCIgc3R5bGU9ImZpbGw6I2M3YzdjNztmaWxsLW9wYWNpdHk6MTtzdHJva2U6IzAwMDAwMDtzdHJva2Utd2lkdGg6MXB4O3N0cm9rZS1saW5lY2FwOmJ1dHQ7c3Ryb2tlLWxpbmVqb2luOm1pdGVyO3N0cm9rZS1vcGFjaXR5OjEiIGlua3NjYXBlOmNvbm5lY3Rvci1jdXJ2YXR1cmU9IjAiLz4mI3hhOyAgICA8cGF0aCBkPSJtIDM1Ni44MzYzOCw2MjkuMTA4MjggYyAwLDMzLjYxMjk4IC0zMy4yOTc2OSw2MC44NjE2OSAtNzQuMzcyNDgsNjAuODYxNjkgLTQxLjA3NDc5LDAgLTc0LjM3MjQ4LC0yNy4yNDg3MSAtNzQuMzcyNDgsLTYwLjg2MTY5IDAsLTMzLjYxMjk5IDMzLjI5NzY5LC02MC44NjE2OSA3NC4zNzI0OCwtNjAuODYxNjkgNDEuMDc0NzksMCA3NC4zNzI0OCwyNy4yNDg3IDc0LjM3MjQ4LDYwLjg2MTY5IHoiIHRyYW5zZm9ybT0idHJhbnNsYXRlKC0yLjAyMDMwNTEsLTE4LjE4Mjc0NikiIGlkPSJwYXRoNTE5MSIgc3R5bGU9ImZpbGw6I2UxZTFlMTtmaWxsLW9wYWNpdHk6MTtzdHJva2U6IzAwMDAwMDtzdHJva2Utd2lkdGg6MC45OTkwMDAwMTtzdHJva2UtbWl0ZXJsaW1pdDo0O3N0cm9rZS1vcGFjaXR5OjEiIGlua3NjYXBlOmNvbm5lY3Rvci1jdXJ2YXR1cmU9IjAiLz4mI3hhOyAgICA8cGF0aCBkPSJtIDMyMi40OTk5OSw2MTcuMzYyMTggYyAwLDI2LjgyNTI2IC0yNy4xODI3MSw0OC41NzE0MyAtNjAuNzE0MjgsNDguNTcxNDMgLTMzLjUzMTU4LDAgLTYwLjcxNDI5LC0yMS43NDYxNyAtNjAuNzE0MjksLTQ4LjU3MTQzIDAsLTI2LjgyNTI2IDI3LjE4MjcxLC00OC41NzE0MyA2MC43MTQyOSwtNDguNTcxNDMgMzMuNTMxNTcsMCA2MC43MTQyOCwyMS43NDYxNyA2MC43MTQyOCw0OC41NzE0MyB6IiB0cmFuc2Zvcm09Im1hdHJpeCgxLjE0NzQ5ODMsMCwwLDEuMTU5MjA3MSwtMjEuMDg2MjY2LC05OS4xMjY5NTcpIiBpZD0icGF0aDUxODkiIHN0eWxlPSJmaWxsOiNjOWM5Yzk7ZmlsbC1vcGFjaXR5OjE7c3Ryb2tlOiMwMDAwMDA7c3Ryb2tlLXdpZHRoOjAuOTk5MDAwMDE7c3Ryb2tlLW1pdGVybGltaXQ6NDtzdHJva2Utb3BhY2l0eToxIiBpbmtzY2FwZTpjb25uZWN0b3ItY3VydmF0dXJlPSIwIi8+JiN4YTsgICAgPHBhdGggZD0ibSAyMDEuMzEyNSwzNDAuNzE4NzUgYyAtMTIuNzM1NDIsMC4yNzg2OCAtMjQuNzQwMDEsMi42NzYzOSAtMjguODQzNzUsMy43ODEyNSAtNi41NjU5OSwxLjc2Nzc2IC0xMC4zNDM3NSw1LjU2MjUgLTEwLjM0Mzc1LDUuNTYyNSBsIC0zMi4wNjI1LDMwLjAzMTI1IGMgMCwwIC01LjA0Mzk0LDUuMTg3OTcgLTUuNTQ5MDIsNS44MTkzMiAtNi40OTExNCw4LjExNCAtNy45NTM4Myw4LjIwMzA1IC04Ljk2Mzk5LDEwLjIyMzM1IC0xLjAxMDE1LDIuMDIwMzEgLTQuMzE0MjQsNS40Mjk0MiAtNS45NTU3NCw3LjgyODUyIC0xLjAzODE4LDEuNTE3MzMgLTMuNzY2MDIsNi40NTk4NyAtNS4yODEyNSw3LjcyMjU2IC0xLjUxNTIzLDEuMjYyNjkgLTIxLjQ2ODc1LDUyLjA5Mzc1IC0yMS40Njg3NSw1Mi4wOTM3NSAwLDAgMjMuMDE1MjcsLTI0LjQ3MzM4IDM4LjA0MDE4LC0zMC44NzA1NCAzMi41MjA0OCwtMTMuODQ2MjUgNzAuNTE5NDgsLTE5LjcwNjYzIDEwNS4yMzEwOSwtMTMuMDQyOTYgMjcuMTczMTksNS4yMTY1IDQ2LjEyNDk4LDMyLjQyNjYyIDcyLjc0MDg5LDM5Ljk4ODg2IDI2LjA1NDk4LDcuNDAyODYgNTQuMDY3MjQsNC4zMDEyNyA4MS4xNTMwMiw0LjE0MzM5IDI5LjU4NDAxLC0wLjE3MjQ0IDYwLjA5NzU4LDIuNDQzNjMgODguNTc5MywtNS41NTg1NSAyNi41ODUxOSwtNy40NjkzNCA0Ni4xNTgyOCwtMzMuNDYzMzEgNzMuMjg0ODksLTM4LjYzMTU0IDM1Ljg5OTAyLC02LjgzOTU3IDc2LjUxNzU0LC00Ljg4NTY4IDEwOC45ODg0OSwxMS44ODIwNSAxMi43MzM5Myw2LjU3NTcgMjguNTQ0NjQsMzIuMTUxNzkgMjguNTQ0NjQsMzIuMTUxNzkgMCwwIC0xOS44OTQsLTUwLjg2MjYxIC0yMS40MDYyNSwtNTIuMTI1IC0xLjEzMzM0LC0xLjg5Mzc1IC00LjAxOTQ2LC01LjY3MTQxIC00LjUyMzY0LC03LjQzODc3IC0wLjUwMzk5LC0xLjc2NzM0IC02Ljk2Nzk5LC03LjE5NzY0IC03Ljk3NjA0LC05LjIxNzQ4IC0xLjAwODE3LC0yLjAxOTgyIC0xLjAyMjk3LC0wLjIzODk0IC03LjY3MDA1LC04LjIwMzA0IC0yLjAwMTQ5LC0yLjM5ODA1IC01LjU0OTAyLC02LjcwMzIxIC01LjU0OTAyLC02LjcwMzIxIGwgLTMyLC0zMC4wMzEyNSBjIDAsMCAtMy43OTA5NiwtMy43OTUxNSAtMTAuMzQzNzUsLTUuNTYyNSAtNi41NTI3NywtMS43NjczNSAtMzMuMjMxNTUsLTYuNjk5MjkgLTUwLjkwNjI1LC0xLjI1IC0xMy42NjQ1Niw0LjIxMjkyIC0xNS42MjUsNi44MTI1IC0xNS42MjUsNi44MTI1IDAsMCAtNy41NDkxMiw5LjM1NzY1IC0xMy4wOTM3NSwxMS4xMjUgLTUuNTQ0NjQsMS43NjczNSAtMzAuNDgzMDEsMTguNDIwMTYgLTQ4LjEyNSwyMC4xODc1IC0xNy42NDIwMSwxLjc2NzM2IC0zNC43OTUwNyw0LjU0NjEzIC00MC44NDM3NSwzLjAzMTI1IC02LjA0ODY5LC0xLjUxNDg3IC0zOS45MDYyNSwtMS4wOTM3NSAtMzkuOTA2MjUsLTEuMDkzNzUgbCAwLC0wLjA2MjUgYyAwLDAgLTMzLjkzOTA4LC0wLjQyMTQ4IC00MCwxLjA5Mzc1IC02LjA2MDkxLDEuNTE1MjMgLTIzLjIyODU4LC0xLjI2MzQ4IC00MC45MDYyNSwtMy4wMzEyNSAtMTcuNjc3NjcsLTEuNzY3NzYgLTQyLjY5NDE2LC0xOC40NTA5OCAtNDguMjUsLTIwLjIxODc1IC01LjU1NTg0LC0xLjc2Nzc2IC0xMy4xMjUsLTExLjA5Mzc1IC0xMy4xMjUsLTExLjA5Mzc1IDAsMCAtMS44ODUwMywtMy4wOTU0NiAtMTUuNjU2MjUsLTYuODEyNSAtNi43MDg3NCwtMS44MTA3OCAtMTQuNTQ2MjUsLTIuNjk4NDYgLTIyLjE4NzUsLTIuNTMxMjUgeiIgaWQ9InBhdGg0OTM5IiBzdHlsZT0iZmlsbDojZGFkYWRhO2ZpbGwtb3BhY2l0eToxO3N0cm9rZTojMDAwMDAwO3N0cm9rZS13aWR0aDoxcHg7c3Ryb2tlLWxpbmVjYXA6YnV0dDtzdHJva2UtbGluZWpvaW46bWl0ZXI7c3Ryb2tlLW9wYWNpdHk6MSIgaW5rc2NhcGU6Y29ubmVjdG9yLWN1cnZhdHVyZT0iMCIvPiYjeGE7ICAgIDxwYXRoIGQ9Im0gMTc3LjYzNzA3LDMzNC42NDUwOSA0NS40ODE3MSwxMi4xMzM2MyAtMTIuMzU3NjcsNDYuNDYyNTcgLTQyLjQ0NiwtMTAuNzA1MDYgeiIgaWQ9InJlY3Q1MTkzIiBzdHlsZT0iZmlsbDojMDAwMDAwO2ZpbGwtb3BhY2l0eToxO3N0cm9rZTojMDAwMDAwO3N0cm9rZS13aWR0aDowLjk3OTg0MjMxO3N0cm9rZS1taXRlcmxpbWl0OjQ7c3Ryb2tlLW9wYWNpdHk6MSIgaW5rc2NhcGU6Y29ubmVjdG9yLWN1cnZhdHVyZT0iMCIvPiYjeGE7ICAgIDxwYXRoIGQ9Im0gMTY4Ljc1LDM3OS44NjIxOCBjIDAsMCA2LjQyODU3LC0zOS40NjQyOCA2LjYwNzE0LC00Mi4xNDI4NiAwLjE3ODU3LC0yLjY3ODU3IDIuMTQyODYsLTE5LjEwNzE0IDIuNjc4NTcsLTIxLjQyODU3IDAuNTM1NzIsLTIuMzIxNDMgNi43ODU3MiwtNy42Nzg1NyA5LjEwNzE1LC03LjY3ODU3IDIuMzIxNDMsMCAxOS40NjQyOCwwIDE5LjQ2NDI4LDAgMCwwIDExLjk2NDI5LDEuOTY0MjkgMTIuMzIxNDMsMTAuMzU3MTQgMC4zNTcxNCw4LjM5Mjg2IDAuNTM1NzIsMTcuMzIxNDMgMC41MzU3MiwxNy4zMjE0MyBMIDIxNi4yNSwzNzcuMzYyMTggeiIgaWQ9InBhdGg0OTQ1IiBzdHlsZT0iZmlsbDojZjhmOGY4O2ZpbGwtb3BhY2l0eToxO3N0cm9rZTojMDAwMDAwO3N0cm9rZS13aWR0aDoxcHg7c3Ryb2tlLWxpbmVjYXA6YnV0dDtzdHJva2UtbGluZWpvaW46bWl0ZXI7c3Ryb2tlLW9wYWNpdHk6MSIgaW5rc2NhcGU6Y29ubmVjdG9yLWN1cnZhdHVyZT0iMCIvPiYjeGE7ICAgIDxwYXRoIGQ9Im0gNTYzLjkwNjI1LDM5NS4wOTM3NSBjIC0xMC4wMDUzNCwtMC4wNDkzIC0xOS43ODczOCwwLjk5MjU2IC0yNy43NSwzLjU5Mzc1IC05LjU0NzE1LDMuMTE4ODIgLTE3Ljk2MjMsMTEuMTgwNjIgLTI0LjI4MTI1LDE0Ljc4MTI1IC03LjM4MDQ3LDQuMjA1NSAtMzcuNTE2NzIsMjIuNDM0MDUgLTU0LjYyNSwyNi43MTg3NSAtMjQuOTE0ODEsNC4xNjcyMiAtNTAuNTMwMTksMy45NzA4NiAtNzUuNTYyNSwzLjMxMjUgMCwwIC01OC44MjU5LDAuNjkxOTcgLTc1Ljk2ODc1LC0zLjU5Mzc1IC0xNy4xNDI4NiwtNC4yODU3MSAtNDAuMDEwODYsLTE5Ljc2MjI2IC00Ny40MDYyNSwtMjMuOTY4NzUgLTYuMzMxNzIsLTMuNjAxNDcgLTEwLjc2NTQ5LC03LjQxOTY0IC0yNC44NzU2MywtMTQuMDU5MDEgLTEwLjkwNjk0LC02LjM2MDk3IC0yMi43MjY4LC02LjI4NDQyIC0zMi40OTkzNywtNi4yODQ3NCAtMjkuOTkxNjMsLTAuMjE5NjQgLTcyLjQ1NDI4LDE1Ljg0NzU0IC04OS4yODEyNSwyMi41MTk4MyAtNC43MDMyOSwxLjg2NDk2IC0xNi45MzI0NzUsMTkuMzQ3NjEgLTI0Ljc4MTI1LDM1LjUxMTQyIC0yLjMwMDY3Nyw1LjgwMzIyIC00LjAzMTI1LDEwLjE1NjI1IC00LjAzMTI1LDEwLjE1NjI1IDAsMCAyMy4wMDYzNCwtMjQuNDc3ODQgMzguMDMxMjUsLTMwLjg3NSAzMi41MjA0OCwtMTMuODQ2MjUgNzAuNTM4MzksLTE5LjY5NDkyIDEwNS4yNSwtMTMuMDMxMjUgMjcuMTczMTksNS4yMTY1IDQ2LjEwMjg0LDMyLjQwNjUxIDcyLjcxODc1LDM5Ljk2ODc1IDI2LjA1NDk4LDcuNDAyODYgNTQuMDcwNDcsNC4zMTQxMyA4MS4xNTYyNSw0LjE1NjI1IDI5LjU4NDAxLC0wLjE3MjQ0IDYwLjExMjAzLDIuNDM5NjggODguNTkzNzUsLTUuNTYyNSAyNi41ODUxOSwtNy40NjkzNCA0Ni4xNTQ2NCwtMzMuNDU2NzcgNzMuMjgxMjUsLTM4LjYyNSAzNS44OTkwMiwtNi44Mzk1NyA3Ni41MjkwNSwtNC44OTI3MyAxMDksMTEuODc1IDEyLjczMzkzLDYuNTc1NyAyOC41MzEyNSwzMi4xNTYyNSAyOC41MzEyNSwzMi4xNTYyNSAwLDAgLTEuNzExODcsLTQuMzMyNTcgLTQsLTEwLjEyNSAtNy44NTQxLC0xNi4yMjAwOSAtMjAuNjc4NzksLTM0LjEwMzI2IC0yNS4zNzUsLTM1Ljk2ODc1IC0xMi4yNzkxNSwtNC44Nzc2NyAtMzYuMjM2MjEsLTE2LjYxMzYyIC02My4xMjUsLTIwLjc4MTI1IC03LjMwMzc2LC0xLjEzMjA0IC0xNS4yMTgwNywtMS44MzY2NiAtMjMsLTEuODc1IHoiIGlkPSJwYXRoNTE4MCIgc3R5bGU9ImZpbGw6I2YzZjNmMztmaWxsLW9wYWNpdHk6MC40NTIxMjc2NztzdHJva2U6IzAwMDAwMDtzdHJva2Utd2lkdGg6MXB4O3N0cm9rZS1saW5lY2FwOmJ1dHQ7c3Ryb2tlLWxpbmVqb2luOm1pdGVyO3N0cm9rZS1vcGFjaXR5OjEiIGlua3NjYXBlOmNvbm5lY3Rvci1jdXJ2YXR1cmU9IjAiLz4mI3hhOyAgICA8cGF0aCBkPSJtIDExMC44OTI4Niw0MTEuODI2NDcgMS4wNzE0MywtMTAuNTM1NzIgYyAwLDAgLTAuNzE0MjksLTkuNjQyODUgMTMuNTcxNDIsLTE1LjcxNDI4IDE0LjI4NTcyLC02LjA3MTQzIDI2LjQyODU4LC0xMy43NSA0My4wMzU3MiwtMTcuMTQyODYgMTYuNjA3MTQsLTMuMzkyODYgMjYuNjA3MTQsLTQuMjg1NzEgMzQuNjQyODYsLTQuMTA3MTQgOC4wMzU3MSwwLjE3ODU3IDIwLjcxNDI4LDEuMDcxNDMgMjIuMTQyODUsMS42MDcxNCAxLjQyODU3LDAuNTM1NzEgMy41NzE0Myw2Ljk2NDI5IDUuMzU3MTUsNy4zMjE0MyAxLjc4NTcxLDAuMzU3MTQgNi4yNSwxLjYwNzE0IDYuMjUsMS42MDcxNCBsIDAuNTM1NzEsMTIuNjc4NTcgLTQuMTA3MTQsMTQuMTA3MTUgYyAwLDAgLTEyLjg1NzE1LC04LjkyODU4IC00Ni42MDcxNSwtNC4yODU3MiAtMzMuNzUsNC42NDI4NiAtNDQuMjg1NzEsOS44MjE0MyAtNDQuMjg1NzEsOS44MjE0MyAwLDAgLTMwLjE3ODU3LDExLjc4NTcxIC0zMS4yNSwxMC44OTI4NiAtMS4wNzE0MywtMC44OTI4NiAtMC4zNTcxNCwtNi4yNSAtMC4zNTcxNCwtNi4yNSB6IiBpZD0icGF0aDQ5NDMiIHN0eWxlPSJmaWxsOiNmMWYxZjE7ZmlsbC1vcGFjaXR5OjE7c3Ryb2tlOiMwMDAwMDA7c3Ryb2tlLXdpZHRoOjFweDtzdHJva2UtbGluZWNhcDpidXR0O3N0cm9rZS1saW5lam9pbjptaXRlcjtzdHJva2Utb3BhY2l0eToxIiBpbmtzY2FwZTpjb25uZWN0b3ItY3VydmF0dXJlPSIwIi8+JiN4YTsgICAgPHBhdGggZD0ibSA0MzQuMjAxMTcsNDc0Ljk2Njc0IDQ1LjEzMjU3LDAgMCw0OC4wOTAzMSAtNDUuMTMyNTcsMCB6IiB0cmFuc2Zvcm09Im1hdHJpeCgwLjk2NTYxMDM1LC0wLjI1OTk5MzU3LDAuMjU5OTkzNTcsMC45NjU2MTAzNSwwLDApIiBpZD0icmVjdDUxOTYiIHN0eWxlPSJmaWxsOiMwMDAwMDA7ZmlsbC1vcGFjaXR5OjE7c3Ryb2tlOiMwMDAwMDA7c3Ryb2tlLXdpZHRoOjAuOTk5MDAwMDE7c3Ryb2tlLW1pdGVybGltaXQ6NDtzdHJva2Utb3BhY2l0eToxIiBpbmtzY2FwZTpjb25uZWN0b3ItY3VydmF0dXJlPSIwIi8+JiN4YTsgICAgPHBhdGggZD0ibSA1OTcuMjEzNTMsMzc5LjQyMjU0IGMgMCwwIC02LjQxNTYsLTM5LjQ1NTAyIC02LjU5Mzg0LC00Mi4xMzI5OCAtMC4xNzgxNSwtMi42Nzc5NCAtMi4xMzg0NCwtMTkuMTAyNjYgLTIuNjczMTgsLTIxLjQyMzU0IC0wLjUzNDUzLC0yLjMyMDg5IC02Ljc3MTg5LC03LjY3Njc3IC05LjA4ODc4LC03LjY3Njc3IC0yLjMxNjY3LDAgLTE5LjQyNDk2LDAgLTE5LjQyNDk2LDAgMCwwIC0xMS45NDAxOSwxLjk2MzgzIC0xMi4yOTY1OCwxMC4zNTQ3MSAtMC4zNTYzOSw4LjM5MDg5IC0wLjUzNDYzLDE3LjMxNzM3IC0wLjUzNDYzLDE3LjMxNzM3IGwgMy4yMDc4MSw0MS4wNjE4IHoiIGlkPSJwYXRoNDk1MSIgc3R5bGU9ImZpbGw6I2Y4ZjhmODtmaWxsLW9wYWNpdHk6MTtzdHJva2U6IzAwMDAwMDtzdHJva2Utd2lkdGg6MC45OTg4NzM1M3B4O3N0cm9rZS1saW5lY2FwOmJ1dHQ7c3Ryb2tlLWxpbmVqb2luOm1pdGVyO3N0cm9rZS1vcGFjaXR5OjEiIGlua3NjYXBlOmNvbm5lY3Rvci1jdXJ2YXR1cmU9IjAiLz4mI3hhOyAgICA8cGF0aCBkPSJtIDY1MS40MTgzNiw0MTEuODg0NDIgLTEuMDY5MjcsLTEwLjUzMzI1IGMgMCwwIDAuNzEyODgsLTkuNjQwNTkgLTEzLjU0NDA5LC0xNS43MTA2IC0xNC4yNTY3NywtNi4wNyAtMjYuMzc1MSwtMTMuNzQ2NzcgLTQyLjk0ODc1LC0xNy4xMzg4NCAtMTYuNTczNjUsLTMuMzkyMDYgLTI2LjU1MzQ1LC00LjI4NDcgLTM0LjU3Mjk2LC00LjEwNjE3IC04LjAxOTUxLDAuMTc4NTIgLTIwLjY3MjQ3LDEuMDcxMTcgLTIyLjA5ODIxLDEuNjA2NzYgLTEuNDI1NjgsMC41MzU1OCAtMy41NjQyMSw2Ljk2MjY2IC01LjM0NjM0LDcuMzE5NzEgLTEuNzgyMTEsMC4zNTcwNiAtNi4yMzczOSwxLjYwNjc3IC02LjIzNzM5LDEuNjA2NzcgbCAtMC41MzQ2MiwxMi42NzU1OSA0LjA5ODg0LDE0LjEwMzg1IGMgMCwwIDEyLjgzMTIsLTguOTI2NDkgNDYuNTEzMTIsLTQuMjg0NzIgMzMuNjgxOTQsNC42NDE3NyA0NC4xOTYyOCw5LjgxOTEzIDQ0LjE5NjI4LDkuODE5MTMgMCwwIDMwLjExNzczLDExLjc4Mjk1IDMxLjE4NywxMC44OTAzMSAxLjA2OTI3LC0wLjg5MjY1IDAuMzU2MzksLTYuMjQ4NTQgMC4zNTYzOSwtNi4yNDg1NCB6IiBpZD0icGF0aDQ5NTMiIHN0eWxlPSJmaWxsOiNmMWYxZjE7ZmlsbC1vcGFjaXR5OjE7c3Ryb2tlOiMwMDAwMDA7c3Ryb2tlLXdpZHRoOjAuOTk5MDAwMDE7c3Ryb2tlLWxpbmVjYXA6YnV0dDtzdHJva2UtbGluZWpvaW46bWl0ZXI7c3Ryb2tlLW1pdGVybGltaXQ6NDtzdHJva2Utb3BhY2l0eToxO3N0cm9rZS1kYXNoYXJyYXk6bm9uZSIgaW5rc2NhcGU6Y29ubmVjdG9yLWN1cnZhdHVyZT0iMCIvPiYjeGE7ICAgIDxwYXRoIGQ9Im0gNTU1LjcxNDI4LDUyMS42NDc4OSBjIDAsOS42NjQ5OCAtOC40NzQ2MSwxNy41IC0xOC45Mjg1NywxNy41IC0xMC40NTM5NywwIC0xOC45Mjg1OCwtNy44MzUwMiAtMTguOTI4NTgsLTE3LjUgMCwtOS42NjQ5OCA4LjQ3NDYxLC0xNy41IDE4LjkyODU4LC0xNy41IDEwLjQ1Mzk2LDAgMTguOTI4NTcsNy44MzUwMiAxOC45Mjg1NywxNy41IHoiIHRyYW5zZm9ybT0ibWF0cml4KDEuMjY1MTM1NiwwLDAsMS4xOTUxNjA2LC0xNDYuOTE4OTMsLTEwOS4xMDQxKSIgaWQ9InBhdGg0OTU3IiBzdHlsZT0iZmlsbDojMDAzMmIwO2ZpbGwtb3BhY2l0eToxO3N0cm9rZTojMDAwMDAwO3N0cm9rZS13aWR0aDowLjgxMjQyNTk3O3N0cm9rZS1taXRlcmxpbWl0OjQ7c3Ryb2tlLW9wYWNpdHk6MSIgaW5rc2NhcGU6Y29ubmVjdG9yLWN1cnZhdHVyZT0iMCIvPiYjeGE7ICAgIDxwYXRoIGQ9Im0gNTU1LjcxNDI4LDUyMS42NDc4OSBjIDAsOS42NjQ5OCAtOC40NzQ2MSwxNy41IC0xOC45Mjg1NywxNy41IC0xMC40NTM5NywwIC0xOC45Mjg1OCwtNy44MzUwMiAtMTguOTI4NTgsLTE3LjUgMCwtOS42NjQ5OCA4LjQ3NDYxLC0xNy41IDE4LjkyODU4LC0xNy41IDEwLjQ1Mzk2LDAgMTguOTI4NTcsNy44MzUwMiAxOC45Mjg1NywxNy41IHoiIHRyYW5zZm9ybT0ibWF0cml4KDEuMTUzMDQ3NCwwLDAsMSwtODYuMjIwOTc3LC0zLjkyODU3MTYpIiBpZD0icGF0aDQ5NTkiIHN0eWxlPSJmaWxsOiMwZTUyZmY7ZmlsbC1vcGFjaXR5OjE7c3Ryb2tlOiMwMDAwMDA7c3Ryb2tlLXdpZHRoOjAuOTMwMzQwNDc7c3Ryb2tlLW1pdGVybGltaXQ6NDtzdHJva2Utb3BhY2l0eToxIiBpbmtzY2FwZTpjb25uZWN0b3ItY3VydmF0dXJlPSIwIi8+JiN4YTsgICAgPHBhdGggZD0ibSA2MDguMzkyODUsNTY1LjQ4NzE4IGMgMCw4LjMzMzU5IC04LjI3NDc0LDE1LjA4OTI5IC0xOC40ODIxNCwxNS4wODkyOSAtMTAuMjA3NDEsMCAtMTguNDgyMTUsLTYuNzU1NyAtMTguNDgyMTUsLTE1LjA4OTI5IDAsLTguMzMzNTggOC4yNzQ3NCwtMTUuMDg5MjggMTguNDgyMTUsLTE1LjA4OTI4IDEwLjIwNzQsMCAxOC40ODIxNCw2Ljc1NTcgMTguNDgyMTQsMTUuMDg5MjggeiIgdHJhbnNmb3JtPSJtYXRyaXgoMS4zNDkxODQyLC0wLjIwODA3MDA5LDAuMjAwODk3NTYsMS4zMDI2NzU1LC0zMjUuOTQ0MDksLTU3LjI4Mzg3NykiIGlkPSJwYXRoNDk2MyIgc3R5bGU9ImZpbGw6IzI0OTUwMDtmaWxsLW9wYWNpdHk6MTtzdHJva2U6IzAwMDAwMDtzdHJva2Utd2lkdGg6MC45OTkwMDAwMTtzdHJva2UtbWl0ZXJsaW1pdDo0O3N0cm9rZS1vcGFjaXR5OjEiIGlua3NjYXBlOmNvbm5lY3Rvci1jdXJ2YXR1cmU9IjAiLz4mI3hhOyAgICA8cGF0aCBkPSJtIDYwOC4zOTI4NSw1NjUuNDg3MTggYyAwLDguMzMzNTkgLTguMjc0NzQsMTUuMDg5MjkgLTE4LjQ4MjE0LDE1LjA4OTI5IC0xMC4yMDc0MSwwIC0xOC40ODIxNSwtNi43NTU3IC0xOC40ODIxNSwtMTUuMDg5MjkgMCwtOC4zMzM1OCA4LjI3NDc0LC0xNS4wODkyOCAxOC40ODIxNSwtMTUuMDg5MjggMTAuMjA3NCwwIDE4LjQ4MjE0LDYuNzU1NyAxOC40ODIxNCwxNS4wODkyOCB6IiB0cmFuc2Zvcm09Im1hdHJpeCgxLjE5MDU1OTIsLTAuMjAzNzM2NDgsMC4yMDQ1ODc4NCwxLjE5NTUzNDIsLTIzMi44MTI3MSw0Ljg5NTg3NjQpIiBpZD0icGF0aDQ5NjEiIHN0eWxlPSJmaWxsOiMzNWQ5MDA7ZmlsbC1vcGFjaXR5OjE7c3Ryb2tlOiMwMDAwMDA7c3Ryb2tlLXdpZHRoOjAuOTk5MDAwMDE7c3Ryb2tlLW1pdGVybGltaXQ6NDtzdHJva2Utb3BhY2l0eToxIiBpbmtzY2FwZTpjb25uZWN0b3ItY3VydmF0dXJlPSIwIi8+JiN4YTsgICAgPHBhdGggZD0ibSA2MTkuNjQyODcsNDczLjM0NDMzIGMgMCwxMC40MDQ2NSAtOS44NzM3MiwxOC44MzkyOCAtMjIuMDUzNTgsMTguODM5MjggLTEyLjE3OTg1LDAgLTIyLjA1MzU3LC04LjQzNDYzIC0yMi4wNTM1NywtMTguODM5MjggMCwtMTAuNDA0NjUgOS44NzM3MiwtMTguODM5MjkgMjIuMDUzNTcsLTE4LjgzOTI5IDEyLjE3OTg2LDAgMjIuMDUzNTgsOC40MzQ2NCAyMi4wNTM1OCwxOC44MzkyOSB6IiB0cmFuc2Zvcm09Im1hdHJpeCgxLjE0NzYzMTEsLTAuMjg4MDIxNzUsMC4yODc2ODk5NCwxLjE0NjMwOSwtMjMyLjQyODIzLDk2Ljc5NTM5NCkiIGlkPSJwYXRoNDk2NSIgc3R5bGU9ImZpbGw6I2Q5YzMwMDtmaWxsLW9wYWNpdHk6MTtzdHJva2U6IzAwMDAwMDtzdHJva2Utd2lkdGg6MC45OTkwMDAwMTtzdHJva2UtbWl0ZXJsaW1pdDo0O3N0cm9rZS1vcGFjaXR5OjEiIGlua3NjYXBlOmNvbm5lY3Rvci1jdXJ2YXR1cmU9IjAiLz4mI3hhOyAgICA8cGF0aCBkPSJtIDYxOS42NDI4Nyw0NzMuMzQ0MzMgYyAwLDEwLjQwNDY1IC05Ljg3MzcyLDE4LjgzOTI4IC0yMi4wNTM1OCwxOC44MzkyOCAtMTIuMTc5ODUsMCAtMjIuMDUzNTcsLTguNDM0NjMgLTIyLjA1MzU3LC0xOC44MzkyOCAwLC0xMC40MDQ2NSA5Ljg3MzcyLC0xOC44MzkyOSAyMi4wNTM1NywtMTguODM5MjkgMTIuMTc5ODYsMCAyMi4wNTM1OCw4LjQzNDY0IDIyLjA1MzU4LDE4LjgzOTI5IHoiIHRyYW5zZm9ybT0ibWF0cml4KDEuMDExMDA0NywtMC4yNDQ0MTE4LDAuMjU1NDM0MzUsMS4wNTY1OTkzLC0xMzQuNTU4NDQsMTE3LjkxNDI3KSIgaWQ9InBhdGg0OTY3IiBzdHlsZT0iZmlsbDojZmZlODIzO2ZpbGwtb3BhY2l0eToxO3N0cm9rZTojMDAwMDAwO3N0cm9rZS13aWR0aDowLjk5OTAwMDAxO3N0cm9rZS1taXRlcmxpbWl0OjQ7c3Ryb2tlLW9wYWNpdHk6MSIgaW5rc2NhcGU6Y29ubmVjdG9yLWN1cnZhdHVyZT0iMCIvPiYjeGE7ICAgIDxwYXRoIGQ9Im0gNjg1LDUzOC42MTIxOCBjIDAsOS4zNjkxMiAtOC45NTQzMSwxNi45NjQyOSAtMjAsMTYuOTY0MjkgLTExLjA0NTY5LDAgLTIwLC03LjU5NTE3IC0yMCwtMTYuOTY0MjkgMCwtOS4zNjkxMSA4Ljk1NDMxLC0xNi45NjQyOCAyMCwtMTYuOTY0MjggMTEuMDQ1NjksMCAyMCw3LjU5NTE3IDIwLDE2Ljk2NDI4IHoiIHRyYW5zZm9ybT0ibWF0cml4KDEuMTcyNzg1MSwtMC40OTA5OTIyMSwwLjQzOTcwOTMxLDEuMTM0ODUxNywtMzc0LjgyMzI3LDIyNS40NzA1MSkiIGlkPSJwYXRoNDk2OSIgc3R5bGU9ImZpbGw6I2FiMGIwMDtmaWxsLW9wYWNpdHk6MTtzdHJva2U6IzAwMDAwMDtzdHJva2Utd2lkdGg6MC45OTkwMDAwMTtzdHJva2UtbWl0ZXJsaW1pdDo0O3N0cm9rZS1vcGFjaXR5OjEiIGlua3NjYXBlOmNvbm5lY3Rvci1jdXJ2YXR1cmU9IjAiLz4mI3hhOyAgICA8cGF0aCBkPSJtIDY4NSw1MzguNjEyMTggYyAwLDkuMzY5MTIgLTguOTU0MzEsMTYuOTY0MjkgLTIwLDE2Ljk2NDI5IC0xMS4wNDU2OSwwIC0yMCwtNy41OTUxNyAtMjAsLTE2Ljk2NDI5IDAsLTkuMzY5MTEgOC45NTQzMSwtMTYuOTY0MjggMjAsLTE2Ljk2NDI4IDExLjA0NTY5LDAgMjAsNy41OTUxNyAyMCwxNi45NjQyOCB6IiB0cmFuc2Zvcm09Im1hdHJpeCgxLjAyMTM4OTksLTAuNDMxMDc4MjksMC4zODI5NDcwOSwwLjk5NjM3MDA1LC0yNDIuMDY4MDUsMjYzLjIyMzU2KSIgaWQ9InBhdGg0OTcxIiBzdHlsZT0iZmlsbDojZmYxMzAzO2ZpbGwtb3BhY2l0eToxO3N0cm9rZTojMDAwMDAwO3N0cm9rZS13aWR0aDowLjk5OTAwMDAxO3N0cm9rZS1taXRlcmxpbWl0OjQ7c3Ryb2tlLW9wYWNpdHk6MSIgaW5rc2NhcGU6Y29ubmVjdG9yLWN1cnZhdHVyZT0iMCIvPiYjeGE7ICAgIDxwYXRoIGQ9Im0gMzM5LjkxNjM0LDYyMC41MjE5NyBjIDAsMjYuNzc4ODEgLTI2LjM0NDE5LDQ4LjQ4NzMzIC01OC44NDEzOSw0OC40ODczMyAtMzIuNDk3MiwwIC01OC44NDEzOCwtMjEuNzA4NTIgLTU4Ljg0MTM4LC00OC40ODczMyAwLC0yNi43Nzg4MSAyNi4zNDQxOCwtNDguNDg3MzIgNTguODQxMzgsLTQ4LjQ4NzMyIDMyLjQ5NzIsMCA1OC44NDEzOSwyMS43MDg1MSA1OC44NDEzOSw0OC40ODczMiB6IiB0cmFuc2Zvcm09Im1hdHJpeCgxLjAyMzU1NzgsMCwwLDEsLTguNzcwODYwNCwtMy4wMzA0NTc2KSIgaWQ9InBhdGg1MTA2IiBzdHlsZT0iZmlsbDojMTgxODE4O2ZpbGwtb3BhY2l0eToxO3N0cm9rZTojMDAwMDAwO3N0cm9rZS13aWR0aDowLjk5OTAwMDAxO3N0cm9rZS1taXRlcmxpbWl0OjQ7c3Ryb2tlLW9wYWNpdHk6MSIgaW5rc2NhcGU6Y29ubmVjdG9yLWN1cnZhdHVyZT0iMCIvPiYjeGE7ICAgIDxwYXRoIGQ9Im0gMzIzLjkyODU2LDYyMi4wMDUwNyBjIDAsMTkuODIzMDcgLTIwLjQyNzAxLDM1Ljg5Mjg1IC00NS42MjUsMzUuODkyODUgLTI1LjE5Nzk5LDAgLTQ1LjYyNSwtMTYuMDY5NzggLTQ1LjYyNSwtMzUuODkyODUgMCwtMTkuODIzMDggMjAuNDI3MDEsLTM1Ljg5Mjg2IDQ1LjYyNSwtMzUuODkyODYgMjUuMTk3OTksMCA0NS42MjUsMTYuMDY5NzggNDUuNjI1LDM1Ljg5Mjg2IHoiIHRyYW5zZm9ybT0ibWF0cml4KDEuMjI3NDgyMywwLDAsMS4yODgzMzk5LC02My4wNjQ2NzIsLTE4Mi4xNjM1OSkiIGlkPSJwYXRoNDk3MyIgc3R5bGU9ImZpbGw6Izk5OTk5OTtmaWxsLW9wYWNpdHk6MTtzdHJva2U6IzAwMDAwMDtzdHJva2Utd2lkdGg6MC45OTkwMDAwMTtzdHJva2UtbWl0ZXJsaW1pdDo0O3N0cm9rZS1vcGFjaXR5OjEiIGlua3NjYXBlOmNvbm5lY3Rvci1jdXJ2YXR1cmU9IjAiLz4mI3hhOyAgICA8cGF0aCBkPSJtIDMyMy45Mjg1Niw2MjIuMDA1MDcgYyAwLDE5LjgyMzA3IC0yMC40MjcwMSwzNS44OTI4NSAtNDUuNjI1LDM1Ljg5Mjg1IC0yNS4xOTc5OSwwIC00NS42MjUsLTE2LjA2OTc4IC00NS42MjUsLTM1Ljg5Mjg1IDAsLTE5LjgyMzA4IDIwLjQyNzAxLC0zNS44OTI4NiA0NS42MjUsLTM1Ljg5Mjg2IDI1LjE5Nzk5LDAgNDUuNjI1LDE2LjA2OTc4IDQ1LjYyNSwzNS44OTI4NiB6IiB0cmFuc2Zvcm09Im1hdHJpeCgxLjE3MjgwMjEsMCwwLDEuMTYyMzU0LC00OC4wMTMzMDIsLTk5Ljk4MjcxNikiIGlkPSJwYXRoNDk3NSIgc3R5bGU9ImZpbGw6Izg0ODQ4NDtmaWxsLW9wYWNpdHk6MTtzdHJva2U6IzAwMDAwMDtzdHJva2Utd2lkdGg6MC45OTkwMDAwMTtzdHJva2UtbWl0ZXJsaW1pdDo0O3N0cm9rZS1vcGFjaXR5OjEiIGlua3NjYXBlOmNvbm5lY3Rvci1jdXJ2YXR1cmU9IjAiLz4mI3hhOyAgICA8cGF0aCBkPSJtIDQxNS4wODkyOCw1MTcuNjc0NjggYyAwLDEyLjg0NTU1IC0xMy43OTEyMywyMy4yNTg5MyAtMzAuODAzNTcsMjMuMjU4OTMgLTE3LjAxMjM1LDAgLTMwLjgwMzU4LC0xMC40MTMzOCAtMzAuODAzNTgsLTIzLjI1ODkzIDAsLTEyLjg0NTU1IDEzLjc5MTIzLC0yMy4yNTg5MyAzMC44MDM1OCwtMjMuMjU4OTMgMTcuMDEyMzQsMCAzMC44MDM1NywxMC40MTMzOCAzMC44MDM1NywyMy4yNTg5MyB6IiB0cmFuc2Zvcm09Im1hdHJpeCgxLjMzNjAwMjEsMCwwLDEuNDM4NzE1OSwtMTMxLjI4NzAyLC0yMzAuNDQ4ODMpIiBpZD0icGF0aDQ5NzciIHN0eWxlPSJmaWxsOiMzNTM1MzU7ZmlsbC1vcGFjaXR5OjE7c3Ryb2tlOiMwMDAwMDA7c3Ryb2tlLXdpZHRoOjAuOTk5MDAwMDE7c3Ryb2tlLW1pdGVybGltaXQ6NDtzdHJva2Utb3BhY2l0eToxIiBpbmtzY2FwZTpjb25uZWN0b3ItY3VydmF0dXJlPSIwIi8+JiN4YTsgICAgPHBhdGggZD0ibSAzOTkuNTUzNTcsNTIxLjA2NzU3IGMgMCwzLjU3NTA1IC0zLjcxNzYzLDYuNDczMjEgLTguMzAzNTcsNi40NzMyMSAtNC41ODU5NCwwIC04LjMwMzU3LC0yLjg5ODE2IC04LjMwMzU3LC02LjQ3MzIxIDAsLTMuNTc1MDYgMy43MTc2MywtNi40NzMyMiA4LjMwMzU3LC02LjQ3MzIyIDQuNTg1OTQsMCA4LjMwMzU3LDIuODk4MTYgOC4zMDM1Nyw2LjQ3MzIyIHoiIHRyYW5zZm9ybT0ibWF0cml4KDQuMDcyMTI3MywwLDAsNC4yMjIwNjkxLC0xMjExLjAwNDYsLTE2ODUuODI3NykiIGlkPSJwYXRoNDk3OSIgc3R5bGU9ImZpbGw6I2NhY2FjYTtmaWxsLW9wYWNpdHk6MTtzdHJva2U6IzAwMDAwMDtzdHJva2Utd2lkdGg6MC4yNDA5MzA3MTtzdHJva2UtbWl0ZXJsaW1pdDo0O3N0cm9rZS1vcGFjaXR5OjEiIGlua3NjYXBlOmNvbm5lY3Rvci1jdXJ2YXR1cmU9IjAiLz4mI3hhOyAgICA8cGF0aCBkPSJtIDI3OC4zOTk3Nyw1ODAuOTk5NzUgMTAuNjY5NzQsMC41MDUwNyBjIDAsMCAzLjIxOTg1LDEuMjYyNyAzLjc4ODA3LDQuNDE5NDIgMC40MTc4OSwyLjMyMTYgMi45MDQxOSwxNC4xNDIxNCAzLjY2MTgsMTQuNzczNDkgMC43NTc2MiwwLjYzMTM0IDQuMTY2ODgsNi41NjU5OSA3LjE5NzM0LDYuOTQ0NzkgMy4wMzA0NiwwLjM3ODgxIDIzLjM1OTc4LDMuMjgzIDI0LjYyMjQ3LDQuNDE5NDIgMS4yNjI2OSwxLjEzNjQyIDMuMTU2NzIsNi4wNjA5MiAzLjE1NjcyLDYuMDYwOTIgbCAwLjI1MjU0LDEyLjI0ODEgYyAwLDAgLTAuNzU3NjEsMy43ODgwNyAtMS44OTQwMyw0LjQxOTQxIC0xLjEzNjQyLDAuNjMxMzUgLTIyLjA5NzA5LDIuNjUxNjUgLTIyLjA5NzA5LDIuNjUxNjUgMCwwIC02LjMxMzQ1LDEuNTE1MjMgLTcuNDQ5ODgsNS4xNzcwNCAtMS4xMzY0MiwzLjY2MTggLTMuNDA5MjYsMTguODE0MDkgLTQuNDE5NDEsMTkuODI0MjQgLTEuMDEwMTYsMS4wMTAxNSAtMi4zOTkxMSwzLjE1NjczIC01LjMwMzMsMy41MzU1MyAtMi45MDQxOSwwLjM3ODgxIC0xNy4xNzI2LDAuNjMxMzUgLTE3LjE3MjYsMC42MzEzNSAwLDAgLTUuMzAzMywtMS4xMzY0MiAtNi41NjU5OSwtMi45MDQxOSAtMS4yNjI2OSwtMS43Njc3NyAtNC40MTk0MiwtMTcuNDI1MTMgLTQuNDE5NDIsLTE3LjQyNTEzIDAsMCAtMi4wMjAzLC01LjU1NTg0IC04LjMzMzc1LC03LjE5NzM0IC02LjMxMzQ2LC0xLjY0MTUgLTE4LjE4Mjc1LC0wLjI1MjU0IC0yMS43MTgyOCwtMS44OTQwMyAtMy41MzU1NCwtMS42NDE1IC01LjkzNDY1LC00LjY3MTk2IC02LjE4NzE5LC03LjMyMzYxIC0wLjI1MjU0LC0yLjY1MTY1IC0xLjM4ODk2LC0xMS44NjkyOSAtMC44ODM4OCwtMTIuNjI2OTEgMC41MDUwNywtMC43NTc2MSAyLjkwNDE5LC01LjMwMzMgNC4yOTMxNSwtNS40Mjk1NyAxLjM4ODk2LC0wLjEyNjI3IDIwLjQ1NTU5LC0yLjI3Mjg0IDIyLjYwMjE2LC0zLjkxNDM0IDIuMTQ2NTcsLTEuNjQxNSA2Ljk0NDgxLC01LjQyOTU3IDcuMTk3MzQsLTcuOTU0OTUgMC4yNTI1MywtMi41MjUzOCAxLjM1ODkyLC0xNi43MjI2MiAyLjMzNTk3LC0xNi43MzA2NiAwLjgwMjg2LC0wLjcyODY3IDEuNDc2NjUsLTAuOTQwMDcgMi4wOTk2LC0xLjI2OTgyIDEuMDQ3NjUsLTAuNTU0NTUgMy43OTIxMSwtMC43MDAyNiA3LjMwNzQ1LC0wLjc1MDQ4IDQuNDE5NDEsLTAuMDYzMSA3LjI2MDQ3LC0wLjE4OTQgNy4yNjA0NywtMC4xODk0IHoiIGlkPSJwYXRoNDk4MSIgc3R5bGU9ImZpbGw6Izk5OTk5OTtmaWxsLW9wYWNpdHk6MTtzdHJva2U6IzAwMDAwMDtzdHJva2Utd2lkdGg6MXB4O3N0cm9rZS1saW5lY2FwOmJ1dHQ7c3Ryb2tlLWxpbmVqb2luOm1pdGVyO3N0cm9rZS1vcGFjaXR5OjEiIGlua3NjYXBlOmNvbm5lY3Rvci1jdXJ2YXR1cmU9IjAiLz4mI3hhOyAgICA8cGF0aCBkPSJtIDMwNy43NTE1Myw1MDMuOTk0MTEgYyAwLDAgLTQuNzA1NzcsLTAuMTQ0NzYgLTUuODQyMTksLTAuMDE4NSAtMS4xMzY0MiwwLjEyNjI3IC0xMS4zMDEwOCwxLjI2MjY5IC0xMS42Nzk4OSwxMi4wNTg2OSAtMC4zNzg4LDEwLjc5NjAxIDEyLjAxNDA2LDEyLjk1MDI0IDEyLjAxNDA2LDEyLjk1MDI0IGwgNS40NzQyMSwwLjExMDk1IDUuNzYzNzQsMC4wMTg1IGMgMCwwIDEyLjYwODQxLC0xLjcxNTQ3IDEyLjc5NzgxLC0xMi42Mzc3NCAwLjE4OTQxLC0xMC45MjIyOCAtMTMuMDA1NzEsLTEyLjQzNzUxIC0xMy4wMDU3MSwtMTIuNDM3NTEgeiIgaWQ9InBhdGg0OTgzIiBzdHlsZT0iZmlsbDojZjFmMWYxO2ZpbGwtb3BhY2l0eToxO3N0cm9rZTojMDAwMDAwO3N0cm9rZS13aWR0aDoxcHg7c3Ryb2tlLWxpbmVjYXA6YnV0dDtzdHJva2UtbGluZWpvaW46bWl0ZXI7c3Ryb2tlLW9wYWNpdHk6MSIgaW5rc2NhcGU6Y29ubmVjdG9yLWN1cnZhdHVyZT0iMCIvPiYjeGE7ICAgIDxwYXRoIGQ9Im0gNDU2LjUwMTUzLDUwNC41Mjk4MiBjIDAsMCAtNC43MDU3NywtMC4xNDQ3NiAtNS44NDIxOSwtMC4wMTg1IC0xLjEzNjQyLDAuMTI2MjcgLTExLjMwMTA4LDEuMjYyNjkgLTExLjY3OTg5LDEyLjA1ODY5IC0wLjM3ODgsMTAuNzk2MDEgMTIuMDE0MDYsMTIuOTUwMjQgMTIuMDE0MDYsMTIuOTUwMjQgbCA1LjQ3NDIxLDAuMTEwOTUgNS43NjM3NCwwLjAxODUgYyAwLDAgMTIuNjA4NDEsLTEuNzE1NDcgMTIuNzk3ODEsLTEyLjYzNzc0IDAuMTg5NDEsLTEwLjkyMjI4IC0xMy4wMDU3MSwtMTIuNDM3NTEgLTEzLjAwNTcxLC0xMi40Mzc1MSB6IiBpZD0icGF0aDQ5ODUiIHN0eWxlPSJmaWxsOiNmMWYxZjE7ZmlsbC1vcGFjaXR5OjE7c3Ryb2tlOiMwMDAwMDA7c3Ryb2tlLXdpZHRoOjFweDtzdHJva2UtbGluZWNhcDpidXR0O3N0cm9rZS1saW5lam9pbjptaXRlcjtzdHJva2Utb3BhY2l0eToxIiBpbmtzY2FwZTpjb25uZWN0b3ItY3VydmF0dXJlPSIwIi8+JiN4YTsgICAgPHBhdGggZD0ibSAzMTIuODU3MTQsNTEzLjM0NDMyIC0wLjI2Nzg1LDEzLjc1IC0xMy43NSwtNy4zMjE0MiB6IiBpZD0icGF0aDQ5ODciIHN0eWxlPSJmaWxsOiNkOWQ5ZDk7ZmlsbC1vcGFjaXR5OjE7c3Ryb2tlOiMwMDAwMDA7c3Ryb2tlLXdpZHRoOjFweDtzdHJva2UtbGluZWNhcDpidXR0O3N0cm9rZS1saW5lam9pbjptaXRlcjtzdHJva2Utb3BhY2l0eToxIiBpbmtzY2FwZTpjb25uZWN0b3ItY3VydmF0dXJlPSIwIi8+JiN4YTsgICAgPHBhdGggZD0ibSA0NTIuMTg3NSw1MTMuNjU2ODIgLTAuNjY5NjQsMTMuMTI1IDE0LjQxOTY0LC02LjI1IHoiIGlkPSJwYXRoNDk4OSIgc3R5bGU9ImZpbGw6I2Q5ZDlkOTtmaWxsLW9wYWNpdHk6MTtzdHJva2U6IzAwMDAwMDtzdHJva2Utd2lkdGg6MXB4O3N0cm9rZS1saW5lY2FwOmJ1dHQ7c3Ryb2tlLWxpbmVqb2luOm1pdGVyO3N0cm9rZS1vcGFjaXR5OjEiIGlua3NjYXBlOmNvbm5lY3Rvci1jdXJ2YXR1cmU9IjAiLz4mI3hhOyAgICA8cGF0aCBkPSJtIDM4MS43MTEzOSw1MTUuNzE4NjQgMTQuNjQ3MjIsOS4yMTc2NCBjIDAsMCA3LjU3NjE0LDQuNjcxOTYgOC4wODEyMiw1LjQyOTU3IDAuNTA1MDcsMC43NTc2MiAyLjAyMDMsMi42NTE2NiAyLjAyMDMsMi42NTE2NiAwLDAgMi4wODM0NCwtMS43Njc3NyAyLjQ2MjI1LC0yLjI3Mjg1IDAuMzc4ODEsLTAuNTA1MDcgLTAuMzE1NjcsLTIuODQxMDYgLTAuMzE1NjcsLTIuODQxMDYgMCwwIC0xLjY0MTUsLTMuOTc3NDcgLTguMjA3NDksLTkuMDI4MjMgLTYuNTY2LC01LjA1MDc2IC0xMS44NjkzLC0xMS4xMTE2OCAtMTEuODY5MywtMTEuMTExNjggbCA2LjQzOTczLC03LjQ0OTg3IGMgMCwwIDQuNzM1MDksLTUuMzY2NDQgNS42ODIxMSwtNS44MDgzOCAwLjQ3MTc3LC0wLjIyMDE2IDIuNDYyMjQsLTEuNDUyMSAyLjQ2MjI0LC0xLjQ1MjEgMCwwIC0yLjA4MzQzLC0xLjk1NzE2IC00LjM1NjI4LC0yLjU4ODUxIC0yLjI3Mjg0LC0wLjYzMTM0IC0xNy41NTE0LDkuMjE3NjQgLTE3LjU1MTQsOS4yMTc2NCAwLDAgLTE1LjcyMDUsLTcuMjYwNDcgLTE3Ljk5MzM0LC04LjAxODA5IC0xLjg5NDA0LDAuODIwNzYgLTMuMzY0ODMsMS44NjQ4NSAtNC41NDU2OSwyLjg0MTA1IDIuNjcwMzQsMC43ODY4MSAzLjUzNTUzLDEuODk0MDUgMy41MzU1MywxLjg5NDA1IDAsMCAxMC4wOTI0MSw5LjUyMzM3IDEwLjc5NjAxLDEwLjI5MDkyIDAuNjk0NDgsMC43NTc2MSAxLjE5OTU2LDEuMjYyNjkgMS4xOTk1NiwxLjI2MjY5IGwgLTExLjAwMTE5LDExLjk5NTU3IGMgMCwwIC01Ljg1NzU1LDcuNDI4NzcgLTUuODA4MzgsOS4zNTk2OSAwLjAzNzgsMS40ODQ4NSAtMC43NjMwNSwyLjQ2ODM3IC0wLjI2ODMzLDMuMDYyMDMgMCwwIDMuNTY3MTEsMy41NjcxIDMuMDYyMDMsMi4zMDQ0MSAtMC41MDUwOCwtMS4yNjI2OSAxLjI2MjY5LC0yLjgyNTI3IDEuMjYyNjksLTIuODI1MjcgMCwwIDUuMzM4MDMsLTQuNzI0MjkgNi45MTMyMywtNS43NDUyNSAxLjcwNDY0LC0xLjEwNDg1IDEzLjM1Mjk1LC0xMC4zODU2MyAxMy4zNTI5NSwtMTAuMzg1NjMgeiIgaWQ9InBhdGg0OTkzIiBzdHlsZT0iZmlsbDojNzdlYzAwO2ZpbGwtb3BhY2l0eToxO3N0cm9rZTojMDAwMDAwO3N0cm9rZS13aWR0aDoxcHg7c3Ryb2tlLWxpbmVjYXA6YnV0dDtzdHJva2UtbGluZWpvaW46bWl0ZXI7c3Ryb2tlLW9wYWNpdHk6MSIgaW5rc2NhcGU6Y29ubmVjdG9yLWN1cnZhdHVyZT0iMCIvPiYjeGE7ICAgIDxwYXRoIGQ9Im0gNTM2Ljg5NjA5LDYxMC4wNDE2MyBjIDAsMjYuNzA5MDcgLTMyLjk1ODUsNDguMzYxMDUgLTczLjYxNDg3LDQ4LjM2MTA1IC00MC42NTYzNywwIC03My42MTQ4NywtMjEuNjUxOTggLTczLjYxNDg3LC00OC4zNjEwNSAwLC0yNi43MDkwOCAzMi45NTg1LC00OC4zNjEwNiA3My42MTQ4NywtNDguMzYxMDYgNDAuNjU2MzcsMCA3My42MTQ4NywyMS42NTE5OCA3My42MTQ4Nyw0OC4zNjEwNiB6IiB0cmFuc2Zvcm09Im1hdHJpeCgxLDAsMCwxLjA3NTA1MDQsMTMuMzg0NTIxLC01MC40ODgxMjQpIiBpZD0icGF0aDUxODciIHN0eWxlPSJmaWxsOiNkYWRhZGE7ZmlsbC1vcGFjaXR5OjE7c3Ryb2tlOiMwMDAwMDA7c3Ryb2tlLXdpZHRoOjAuOTk5MDAwMDE7c3Ryb2tlLW1pdGVybGltaXQ6NDtzdHJva2Utb3BhY2l0eToxIiBpbmtzY2FwZTpjb25uZWN0b3ItY3VydmF0dXJlPSIwIi8+JiN4YTsgICAgPHBhdGggZD0ibSA1MjUuMTc4NTcsNjI0LjU5NDMgYyAwLDIwLjM2NTUgLTE5LjEwNzg1LDM2Ljg3NSAtNDIuNjc4NTcsMzYuODc1IC0yMy41NzA3MiwwIC00Mi42Nzg1NywtMTYuNTA5NSAtNDIuNjc4NTcsLTM2Ljg3NSAwLC0yMC4zNjU1IDE5LjEwNzg1LC0zNi44NzUgNDIuNjc4NTcsLTM2Ljg3NSAyMy41NzA3MiwwIDQyLjY3ODU3LDE2LjUwOTUgNDIuNjc4NTcsMzYuODc1IHoiIHRyYW5zZm9ybT0ibWF0cml4KDEuMTA3ODM3OCwwLDAsMS4wNjkzMTMxLC01Ny4wNDI3MjQsLTQ3LjcwMDk1NSkiIGlkPSJwYXRoNTExMCIgc3R5bGU9ImZpbGw6IzE4MTgxODtmaWxsLW9wYWNpdHk6MTtzdHJva2U6IzAwMDAwMDtzdHJva2Utd2lkdGg6MC45OTkwMDAwMTtzdHJva2UtbWl0ZXJsaW1pdDo0O3N0cm9rZS1vcGFjaXR5OjEiIGlua3NjYXBlOmNvbm5lY3Rvci1jdXJ2YXR1cmU9IjAiLz4mI3hhOyAgICA8cGF0aCBkPSJtIDUxNi4xODc5NSw2NDYuMjgwODggYyAwLDE4LjI3MDk2IC0xNy41ODE2MywzMy4wODI1IC0zOS4yNjk2OCwzMy4wODI1IC0yMS42ODgwNCwwIC0zOS4yNjk2OCwtMTQuODExNTQgLTM5LjI2OTY4LC0zMy4wODI1IDAsLTE4LjI3MDk1IDE3LjU4MTY0LC0zMy4wODI0OSAzOS4yNjk2OCwtMzMuMDgyNDkgMjEuNjg4MDUsMCAzOS4yNjk2OCwxNC44MTE1NCAzOS4yNjk2OCwzMy4wODI0OSB6IiB0cmFuc2Zvcm09Im1hdHJpeCgxLjA5OTA3NzgsMCwwLDEuMDkwNjQzLC00Ny4xNDIxNzYsLTg0Ljk3NjU0KSIgaWQ9InBhdGg0OTk1IiBzdHlsZT0iZmlsbDojNzU3NTc1O2ZpbGwtb3BhY2l0eToxO3N0cm9rZTojMDAwMDAwO3N0cm9rZS13aWR0aDowLjk5OTAwMDAxO3N0cm9rZS1taXRlcmxpbWl0OjQ7c3Ryb2tlLW9wYWNpdHk6MSIgaW5rc2NhcGU6Y29ubmVjdG9yLWN1cnZhdHVyZT0iMCIvPiYjeGE7ICAgIDxwYXRoIGQ9Im0gMjAyLjg1NzE0LDU2My43OTA3NyBjIDAsMjMuMDc3NjEgLTI0Ljk0NDE0LDQxLjc4NTcxIC01NS43MTQyOSw0MS43ODU3MSAtMzAuNzcwMTUsMCAtNTUuNzE0Mjg0LC0xOC43MDgxIC01NS43MTQyODQsLTQxLjc4NTcxIDAsLTIzLjA3NzYxIDI0Ljk0NDEzNCwtNDEuNzg1NzEgNTUuNzE0Mjg0LC00MS43ODU3MSAzMC43NzAxNSwwIDU1LjcxNDI5LDE4LjcwODEgNTUuNzE0MjksNDEuNzg1NzEgeiIgdHJhbnNmb3JtPSJtYXRyaXgoMS4yOTExMTU2LDAuMjUwNzUwNDMsLTAuMjQxMTQzMDIsMS4zNDI1NTUsMTIyLjAzMTQ0LC0yODIuOTEzMzUpIiBpZD0icGF0aDUxODUiIHN0eWxlPSJmaWxsOiNkZWRlZGU7ZmlsbC1vcGFjaXR5OjE7c3Ryb2tlOiMwMDAwMDA7c3Ryb2tlLXdpZHRoOjAuOTk5MDAwMDE7c3Ryb2tlLW1pdGVybGltaXQ6NDtzdHJva2Utb3BhY2l0eToxIiBpbmtzY2FwZTpjb25uZWN0b3ItY3VydmF0dXJlPSIwIi8+JiN4YTsgICAgPHBhdGggZD0ibSAyMjMuNTcxNDIsNTIzLjQzMzU5IGMgMCwxOC41NDA5OSAtMTguMDY4NTEsMzMuNTcxNDMgLTQwLjM1NzE0LDMzLjU3MTQzIC0yMi4yODg2NCwwIC00MC4zNTcxNCwtMTUuMDMwNDQgLTQwLjM1NzE0LC0zMy41NzE0MyAwLC0xOC41NDA5OSAxOC4wNjg1LC0zMy41NzE0MyA0MC4zNTcxNCwtMzMuNTcxNDMgMjIuMjg4NjMsMCA0MC4zNTcxNCwxNS4wMzA0NCA0MC4zNTcxNCwzMy41NzE0MyB6IiB0cmFuc2Zvcm09Im1hdHJpeCgxLjE3ODYxODgsMCwwLDEuMTgwMDAwMywtMzguNTM3NDI0LC05NC42MDM4OTYpIiBpZD0icGF0aDUxMDgiIHN0eWxlPSJmaWxsOiMxODE4MTg7ZmlsbC1vcGFjaXR5OjE7c3Ryb2tlOiMwMDAwMDA7c3Ryb2tlLXdpZHRoOjAuOTk5MDAwMDE7c3Ryb2tlLW1pdGVybGltaXQ6NDtzdHJva2Utb3BhY2l0eToxIiBpbmtzY2FwZTpjb25uZWN0b3ItY3VydmF0dXJlPSIwIi8+JiN4YTsgICAgPHBhdGggZD0ibSA1MTYuMTg3OTUsNjQ2LjI4MDg4IGMgMCwxOC4yNzA5NiAtMTcuNTgxNjMsMzMuMDgyNSAtMzkuMjY5NjgsMzMuMDgyNSAtMjEuNjg4MDQsMCAtMzkuMjY5NjgsLTE0LjgxMTU0IC0zOS4yNjk2OCwtMzMuMDgyNSAwLC0xOC4yNzA5NSAxNy41ODE2NCwtMzMuMDgyNDkgMzkuMjY5NjgsLTMzLjA4MjQ5IDIxLjY4ODA1LDAgMzkuMjY5NjgsMTQuODExNTQgMzkuMjY5NjgsMzMuMDgyNDkgeiIgdHJhbnNmb3JtPSJtYXRyaXgoMS4wOTkwNzc4LDAsMCwxLjA5MDY0MywtMzQ2LjQyNzg5LC0xODIuMTE5NCkiIGlkPSJwYXRoNDk5NyIgc3R5bGU9ImZpbGw6Izc1NzU3NTtmaWxsLW9wYWNpdHk6MTtzdHJva2U6IzAwMDAwMDtzdHJva2Utd2lkdGg6MC45OTkwMDAwMTtzdHJva2UtbWl0ZXJsaW1pdDo0O3N0cm9rZS1vcGFjaXR5OjEiIGlua3NjYXBlOmNvbm5lY3Rvci1jdXJ2YXR1cmU9IjAiLz4mI3hhOyAgICA8cGF0aCBkPSJtIDIwNy4xNDI4NSw1NTMuNjEyMTggYyAwLDE0Ljk5MDU5IC0xNi43ODkzMiwyNy4xNDI4NiAtMzcuNSwyNy4xNDI4NiAtMjAuNzEwNjgsMCAtMzcuNSwtMTIuMTUyMjcgLTM3LjUsLTI3LjE0Mjg2IDAsLTE0Ljk5MDU4IDE2Ljc4OTMyLC0yNy4xNDI4NSAzNy41LC0yNy4xNDI4NSAyMC43MTA2OCwwIDM3LjUsMTIuMTUyMjcgMzcuNSwyNy4xNDI4NSB6IiB0cmFuc2Zvcm09Im1hdHJpeCgxLjIxNDY0NzMsMCwwLDEuNDQxOTY5MSwtMzIuMTQwMDU5LC0yNjIuNjgzMTcpIiBpZD0icGF0aDQ5OTkiIHN0eWxlPSJmaWxsOiM4Njg2ODY7ZmlsbC1vcGFjaXR5OjE7c3Ryb2tlOiMwMDAwMDA7c3Ryb2tlLXdpZHRoOjAuOTk5MDAwMDE7c3Ryb2tlLW1pdGVybGltaXQ6NDtzdHJva2Utb3BhY2l0eToxIiBpbmtzY2FwZTpjb25uZWN0b3ItY3VydmF0dXJlPSIwIi8+JiN4YTsgICAgPHBhdGggZD0ibSA1MTkuMjg1NzEsNjM4LjM0NDMgYyAwLDE3Ljk5ODU3IC0xOC40NjgyNiwzMi41ODkyOSAtNDEuMjUsMzIuNTg5MjkgLTIyLjc4MTc1LDAgLTQxLjI1LC0xNC41OTA3MiAtNDEuMjUsLTMyLjU4OTI5IDAsLTE3Ljk5ODU3IDE4LjQ2ODI1LC0zMi41ODkyOSA0MS4yNSwtMzIuNTg5MjkgMjIuNzgxNzQsMCA0MS4yNSwxNC41OTA3MiA0MS4yNSwzMi41ODkyOSB6IiB0cmFuc2Zvcm09Im1hdHJpeCgxLjA2ODQ5MjUsMCwwLDEuMTMzMTE2LC0zMy4wODQzNjksLTg1LjkzNTM4KSIgaWQ9InBhdGg1MDAxIiBzdHlsZT0iZmlsbDojODY4Njg2O2ZpbGwtb3BhY2l0eToxO3N0cm9rZTojMDAwMDAwO3N0cm9rZS13aWR0aDowLjk5OTAwMDAxO3N0cm9rZS1taXRlcmxpbWl0OjQ7c3Ryb2tlLW9wYWNpdHk6MSIgaW5rc2NhcGU6Y29ubmVjdG9yLWN1cnZhdHVyZT0iMCIvPiYjeGE7ICAgIDxnIHRyYW5zZm9ybT0ic2NhbGUoMS4yMjk1NDQ5LDAuODEzMzA5MDcpIiBpZD0idGV4dDUwMDMiIHN0eWxlPSJmb250LXNpemU6NDkuMTgxNzkzMjFweDtmb250LXN0eWxlOm5vcm1hbDtmb250LXdlaWdodDpub3JtYWw7bGluZS1oZWlnaHQ6MTI1JTtsZXR0ZXItc3BhY2luZzowcHg7d29yZC1zcGFjaW5nOjBweDtmaWxsOiM2ODY4Njg7ZmlsbC1vcGFjaXR5OjE7c3Ryb2tlOm5vbmU7Zm9udC1mYW1pbHk6Qml0c3RyZWFtIFZlcmEgU2FucyI+JiN4YTsgICAgICA8cGF0aCBkPSJtIDI4My41MTU3Nyw1OTkuMDQ5MTMgLTEuMzQ5NjIsMCAwLC01LjA4NjI4IGMgLTAuNDkzMSwwLjQ2MTA5IC0xLjA3NDI1LDAuODAyMDkgLTEuNzQzNDYsMS4wMjMwMiBsIDAsLTEuMjI0NzQgYyAwLjM1MjIyLC0wLjExNTI2IDAuNzM0ODUsLTAuMzMzOCAxLjE0NzksLTAuNjU1NiAwLjQxMzA1LC0wLjMyMTc5IDAuNjk2NDIsLTAuNjk3MjEgMC44NTAxMSwtMS4xMjYyOCBsIDEuMDk1MDcsMCB6IiBpZD0icGF0aDUwNjQiIHN0eWxlPSJmb250LXNpemU6OS44MzYzNTkwMnB4O2ZvbnQtdmFyaWFudDpub3JtYWw7Zm9udC13ZWlnaHQ6Ym9sZDtmb250LXN0cmV0Y2g6bm9ybWFsO2ZpbGw6IzY4Njg2ODtmaWxsLW9wYWNpdHk6MTtmb250LWZhbWlseTpBcmlhbDstaW5rc2NhcGUtZm9udC1zcGVjaWZpY2F0aW9uOkFyaWFsIEJvbGQiIGlua3NjYXBlOmNvbm5lY3Rvci1jdXJ2YXR1cmU9IjAiLz4mI3hhOyAgICA8L2c+JiN4YTsgICAgPGcgdHJhbnNmb3JtPSJzY2FsZSgxLjEyMzUyNzYsMC44OTAwNTM3NikiIGlkPSJ0ZXh0NTAwNyIgc3R5bGU9ImZvbnQtc2l6ZTo0My4xOTY0OTUwNnB4O2ZvbnQtc3R5bGU6bm9ybWFsO2ZvbnQtd2VpZ2h0Om5vcm1hbDtsaW5lLWhlaWdodDoxMjUlO2xldHRlci1zcGFjaW5nOjBweDt3b3JkLXNwYWNpbmc6MHB4O2ZpbGw6IzY4Njg2ODtmaWxsLW9wYWNpdHk6MTtzdHJva2U6bm9uZTtmb250LWZhbWlseTpCaXRzdHJlYW0gVmVyYSBTYW5zIj4mI3hhOyAgICAgIDxwYXRoIGQ9Im0gMzc0LjEyNTQsNTQ1Ljc0MDk4IDAsMS4xMDEgLTQuMTU1MTMsMCBjIDAuMDQ1LC0wLjQxNjIyIDAuMTc5OTgsLTAuODEwNjQgMC40MDQ5NiwtMS4xODMyNiAwLjIyNDk4LC0wLjM3MjYzIDAuNjY5MzIsLTAuODY2ODggMS4zMzMwMiwtMS40ODI3NyAwLjUzNDMzLC0wLjQ5Nzc3IDAuODYxOTYsLTAuODM1MjUgMC45ODI4OSwtMS4wMTI0MiAwLjE2MzExLC0wLjI0NDY3IDAuMjQ0NjYsLTAuNDg2NTIgMC4yNDQ2NywtMC43MjU1NyAtMWUtNSwtMC4yNjQzNSAtMC4wNzEsLTAuNDY3NTMgLTAuMjEzMDMsLTAuNjA5NTYgLTAuMTQyMDMsLTAuMTQyMDEgLTAuMzM4MTgsLTAuMjEzMDIgLTAuNTg4NDcsLTAuMjEzMDMgLTAuMjQ3NDgsMTBlLTYgLTAuNDQ0MzQsMC4wNzQ1IC0wLjU5MDU4LDAuMjIzNTggLTAuMTQ2MjQsMC4xNDkwNSAtMC4yMzA2MSwwLjM5NjUzIC0wLjI1MzEsMC43NDI0NCBsIC0xLjE4MTE2LC0wLjExODEyIGMgMC4wNzAzLC0wLjY1MjQ0IDAuMjkxMDcsLTEuMTIwNjggMC42NjIyOSwtMS40MDQ3MyAwLjM3MTIyLC0wLjI4NDAzIDAuODM1MjUsLTAuNDI2MDUgMS4zOTIwOCwtMC40MjYwNiAwLjYxMDI2LDEwZS02IDEuMDg5NzUsMC4xNjQ1MyAxLjQzODQ3LDAuNDkzNTYgMC4zNDg3MiwwLjMyOTA0IDAuNTIzMDgsMC43MzgyMiAwLjUyMzA5LDEuMjI3NTUgLTFlLTUsMC4yNzg0MiAtMC4wNDk5LDAuNTQzNDggLTAuMTQ5NzYsMC43OTUxNyAtMC4wOTk4LDAuMjUxNzEgLTAuMjU4MDMsMC41MTUzNiAtMC40NzQ1NywwLjc5MDk2IC0wLjE0MzQzLDAuMTgyOCAtMC40MDIxNiwwLjQ0NTc0IC0wLjc3NjE4LDAuNzg4ODQgLTAuMzc0MDQsMC4zNDMxIC0wLjYxMDk3LDAuNTcwODkgLTAuNzEwODEsMC42ODMzOCAtMC4wOTk4LDAuMTEyNDkgLTAuMTgwNjksMC4yMjIxNyAtMC4yNDI1NSwwLjMyOTA0IHoiIGlkPSJwYXRoNTA2NyIgc3R5bGU9ImZvbnQtc2l6ZTo4LjYzOTI5OTM5cHg7Zm9udC12YXJpYW50Om5vcm1hbDtmb250LXdlaWdodDpib2xkO2ZvbnQtc3RyZXRjaDpub3JtYWw7ZmlsbDojNjg2ODY4O2ZpbGwtb3BhY2l0eToxO2ZvbnQtZmFtaWx5OkFyaWFsOy1pbmtzY2FwZS1mb250LXNwZWNpZmljYXRpb246QXJpYWwgQm9sZCIgaW5rc2NhcGU6Y29ubmVjdG9yLWN1cnZhdHVyZT0iMCIvPiYjeGE7ICAgIDwvZz4mI3hhOyAgICA8ZyB0cmFuc2Zvcm09InNjYWxlKDEuMTQyNDIxNywwLjg3NTMzMzUpIiBpZD0idGV4dDUwMTEiIHN0eWxlPSJmb250LXNpemU6NDMuMjMwMDIyNDNweDtmb250LXN0eWxlOm5vcm1hbDtmb250LXdlaWdodDpub3JtYWw7bGluZS1oZWlnaHQ6MTI1JTtsZXR0ZXItc3BhY2luZzowcHg7d29yZC1zcGFjaW5nOjBweDtmaWxsOiM2ODY4Njg7ZmlsbC1vcGFjaXR5OjE7c3Ryb2tlOm5vbmU7Zm9udC1mYW1pbHk6Qml0c3RyZWFtIFZlcmEgU2FucyI+JiN4YTsgICAgICA8cGF0aCBkPSJtIDMwMi4zNDY1OCw2MjcuMDA0NjggMS4xNDgzLC0wLjEzOTMyIGMgMC4wMzY2LDAuMjkyNzEgMC4xMzUwOSwwLjUxNjQ2IDAuMjk1NTIsMC42NzEyNSAwLjE2MDQyLDAuMTU0OCAwLjM1NDYyLDAuMjMyMTkgMC41ODI1OSwwLjIzMjE5IDAuMjQ0ODYsMCAwLjQ1MTAyLC0wLjA5MjkgMC42MTg0OCwtMC4yNzg2MyAwLjE2NzQ2LC0wLjE4NTc1IDAuMjUxMTksLTAuNDM2MjQgMC4yNTExOSwtMC43NTE0NiAwLC0wLjI5ODMzIC0wLjA4MDIsLTAuNTM0NzQgLTAuMjQwNjQsLTAuNzA5MjQgLTAuMTYwNDIsLTAuMTc0NDkgLTAuMzU2MDMsLTAuMjYxNzQgLTAuNTg2ODEsLTAuMjYxNzUgLTAuMTUxOTgsMTBlLTYgLTAuMzMzNTIsMC4wMjk2IC0wLjU0NDYsMC4wODg3IGwgMC4xMzA4NywtMC45NjY3NyBjIDAuMzIwODUsMC4wMDggMC41NjU3MSwtMC4wNjEyIDAuNzM0NTgsLTAuMjA4OTcgMC4xNjg4NiwtMC4xNDc3NSAwLjI1MzI5LC0wLjM0NDA2IDAuMjUzMywtMC41ODg5MiAtMTBlLTYsLTAuMjA4MjcgLTAuMDYxOSwtMC4zNzQzMiAtMC4xODU3NiwtMC40OTgxNiAtMC4xMjM4NCwtMC4xMjM4MyAtMC4yODg0OCwtMC4xODU3NSAtMC40OTM5MywtMC4xODU3NiAtMC4yMDI2NSwxZS01IC0wLjM3NTc0LDAuMDcwNCAtMC41MTkyNywwLjIxMTA5IC0wLjE0MzU0LDAuMTQwNzMgLTAuMjMwNzksMC4zNDYxOCAtMC4yNjE3NCwwLjYxNjM2IGwgLTEuMDkzNDIsLTAuMTg1NzUgYyAwLjA3NiwtMC4zNzQzMiAwLjE5MDY4LC0wLjY3MzM1IDAuMzQ0MDcsLTAuODk3MTEgMC4xNTMzOCwtMC4yMjM3NCAwLjM2NzI4LC0wLjM5OTY0IDAuNjQxNjksLTAuNTI3NzEgMC4yNzQ0MSwtMC4xMjgwNSAwLjU4MTg5LC0wLjE5MjA4IDAuOTIyNDQsLTAuMTkyMDggMC41ODI1OSwwIDEuMDQ5NzksMC4xODU3NiAxLjQwMTYsMC41NTcyNiAwLjI4OTg4LDAuMzAzOTYgMC40MzQ4MywwLjY0NzMzIDAuNDM0ODMsMS4wMzAwOSAwLDAuNTQzMTkgLTAuMjk2OTMsMC45NzY2MiAtMC44OTA3NywxLjMwMDI4IDAuMzU0NjEsMC4wNzYgMC42MzgxNywwLjI0NjI2IDAuODUwNjcsMC41MTA4MiAwLjIxMjQ4LDAuMjY0NTYgMC4zMTg3MywwLjU4NCAwLjMxODczLDAuOTU4MzIgMCwwLjU0MzE5IC0wLjE5ODQyLDEuMDA2MTcgLTAuNTk1MjUsMS4zODg5MyAtMC4zOTY4NSwwLjM4Mjc3IC0wLjg5MDc4LDAuNTc0MTUgLTEuNDgxODEsMC41NzQxNSAtMC41NjAwOCwwIC0xLjAyNDQ3LC0wLjE2MTEyIC0xLjM5MzE2LC0wLjQ4MzM4IC0wLjM2ODY5LC0wLjMyMjI1IC0wLjU4MjU5LC0wLjc0MzcyIC0wLjY0MTcsLTEuMjY0MzkgeiIgaWQ9InBhdGg1MDcwIiBzdHlsZT0iZm9udC1zaXplOjguNjQ2MDA0NjhweDtmb250LXZhcmlhbnQ6bm9ybWFsO2ZvbnQtd2VpZ2h0OmJvbGQ7Zm9udC1zdHJldGNoOm5vcm1hbDtmaWxsOiM2ODY4Njg7ZmlsbC1vcGFjaXR5OjE7Zm9udC1mYW1pbHk6QXJpYWw7LWlua3NjYXBlLWZvbnQtc3BlY2lmaWNhdGlvbjpBcmlhbCBCb2xkIiBpbmtzY2FwZTpjb25uZWN0b3ItY3VydmF0dXJlPSIwIi8+JiN4YTsgICAgPC9nPiYjeGE7ICAgIDxnIHRyYW5zZm9ybT0ic2NhbGUoMS4xNTMzMjE4LDAuODY3MDYwNzEpIiBpZD0idGV4dDUwMTUiIHN0eWxlPSJmb250LXNpemU6NDIuMDgwNTg1NDhweDtmb250LXN0eWxlOm5vcm1hbDtmb250LXdlaWdodDpub3JtYWw7bGluZS1oZWlnaHQ6MTI1JTtsZXR0ZXItc3BhY2luZzowcHg7d29yZC1zcGFjaW5nOjBweDtmaWxsOiM2ODY4Njg7ZmlsbC1vcGFjaXR5OjE7c3Ryb2tlOm5vbmU7Zm9udC1mYW1pbHk6Qml0c3RyZWFtIFZlcmEgU2FucyI+JiN4YTsgICAgICA8cGF0aCBkPSJtIDM2MS45NDkwOSw2MzQuNzA2NDggMCwtMS4yMTIyOCAtMi40NjU2NiwwIDAsLTEuMDEwOTIgMi42MTM2LC0zLjgyNTg4IDAuOTY5ODIsMCAwLDMuODIxNzcgMC43NDc5MiwwIDAsMS4wMTUwMyAtMC43NDc5MiwwIDAsMS4yMTIyOCB6IG0gMCwtMi4yMjczMSAwLC0yLjA1ODgzIC0xLjM4NDg4LDIuMDU4ODMgeiIgaWQ9InBhdGg1MDczIiBzdHlsZT0iZm9udC1zaXplOjguNDE2MTE3NjdweDtmb250LXZhcmlhbnQ6bm9ybWFsO2ZvbnQtd2VpZ2h0OmJvbGQ7Zm9udC1zdHJldGNoOm5vcm1hbDtmaWxsOiM2ODY4Njg7ZmlsbC1vcGFjaXR5OjE7Zm9udC1mYW1pbHk6QXJpYWw7LWlua3NjYXBlLWZvbnQtc3BlY2lmaWNhdGlvbjpBcmlhbCBCb2xkIiBpbmtzY2FwZTpjb25uZWN0b3ItY3VydmF0dXJlPSIwIi8+JiN4YTsgICAgPC9nPiYjeGE7ICAgIDxnIGlkPSJ0ZXh0NTAyMyIgc3R5bGU9ImZvbnQtc2l6ZTo0MHB4O2ZvbnQtc3R5bGU6bm9ybWFsO2ZvbnQtd2VpZ2h0Om5vcm1hbDtsaW5lLWhlaWdodDoxMjUlO2xldHRlci1zcGFjaW5nOjBweDt3b3JkLXNwYWNpbmc6MHB4O2ZpbGw6IzY4Njg2ODtmaWxsLW9wYWNpdHk6MTtzdHJva2U6bm9uZTtmb250LWZhbWlseTpCaXRzdHJlYW0gVmVyYSBTYW5zIj4mI3hhOyAgICAgIDxwYXRoIGQ9Im0gMjgxLjYwNTY3LDUwMi41NDU2IDEuNjI4MDQsLTEuNjA5MTMgYyAwLjMyMjI4LC0wLjMxODUzIDAuNTc1ODYsLTAuNTQyNjIgMC43NjA3NywtMC42NzIyOSAwLjE4NDksLTAuMTI5NjYgMC4zODE5NywtMC4yMTM2OCAwLjU5MTE5LC0wLjI1MjA1IDAuMjA5MjMsLTAuMDM4NCAwLjQyNTU0LC0wLjAyNzkgMC42NDg5MywwLjAzMTQgMC4yMjMzOSwwLjA1OTMgMC40MjIwNCwwLjE3Njk1IDAuNTk1OTUsMC4zNTI5IDAuMTg4NTYsMC4xOTA3OCAwLjMxMDE2LDAuNDE2NiAwLjM2NDgsMC42Nzc0OCAwLjA1NDYsMC4yNjA4OSAwLjAzMzMsMC41MTgxMSAtMC4wNjM5LDAuNzcxNjYgMC4zMTk1OSwtMC4xNzMwNyAwLjYzMjA5LC0wLjIzODQ1IDAuOTM3NTMsLTAuMTk2MTYgMC4zMDU0MywwLjA0MjMgMC41NzQzOSwwLjE4MTA2IDAuODA2ODksMC40MTYyNyAwLjE4MzA2LDAuMTg1MjIgMC4zMTgwMywwLjQwNzkxIDAuNDA0OSwwLjY2ODA2IDAuMDg2OSwwLjI2MDE1IDAuMTA3NDcsMC41MTYyMyAwLjA2MTgsMC43NjgyNCAtMC4wNDU3LDAuMjUyMDIgLTAuMTY1ODgsMC40OTgwNyAtMC4zNjA2MywwLjczODE2IC0wLjEyMjQyLDAuMTUwMjkgLTAuNDQzODcsMC40ODYzMiAtMC45NjQzNywxLjAwODA5IGwgLTEuMzg2MzMsMS4zNzAyMyB6IG0gMS40OTIzNywtMC4xMzQ5MiAwLjkzMDg4LDAuOTQxODIgMC41Mzg5NywtMC41MzI3MiBjIDAuMzIwNDIsLTAuMzE2NjkgMC41MTQ5NSwtMC41MTgxMiAwLjU4MzU5LC0wLjYwNDI3IDAuMTI0MjksLTAuMTU1NzkgMC4xODY5LC0wLjMxMzc5IDAuMTg3ODQsLTAuNDc0IDkuM2UtNCwtMC4xNjAxOSAtMC4wNjM2LC0wLjMwNjA0IC0wLjE5MzU2LC0wLjQzNzU1IC0wLjEyNDQ5LC0wLjEyNTk0IC0wLjI2MDM2LC0wLjE5Mzk1IC0wLjQwNzYyLC0wLjIwNDAyIC0wLjE0NzI1LC0wLjAxMDEgLTAuMjk3NjUsMC4wNDQzIC0wLjQ1MTE4LDAuMTYzMDkgLTAuMDkwNywwLjA3MTMgLTAuMzI5NTIsMC4yOTgyNCAtMC43MTY2MiwwLjY4MDg0IHogbSAxLjYwMDg5LDEuNjE5NyAxLjA3NjQxLDEuMDg5MDcgMC43NjEyNCwtMC43NTIzOSBjIDAuMjk2MzQsLTAuMjkyOSAwLjQ3NjA5LC0wLjQ4NzA1IDAuNTM5MjYsLTAuNTgyNDQgMC4xMDAyOCwtMC4xNDMwNCAwLjE0NjI4LC0wLjI5NTYxIDAuMTM4MDIsLTAuNDU3NzEgLTAuMDA4LC0wLjE2MjA5IC0wLjA4MzgsLTAuMzE1MzggLTAuMjI2NTcsLTAuNDU5ODUgLTAuMTIwODMsLTAuMTIyMjQgLTAuMjUyOTgsLTAuMTk2NjcgLTAuMzk2NDUsLTAuMjIzMjkgLTAuMTQzNDgsLTAuMDI2NiAtMC4yOTA0NywtMC4wMDQgLTAuNDQwOTcsMC4wNjc5IC0wLjE1MDUsMC4wNzE5IC0wLjQxMjgxLDAuMjkyNjkgLTAuNzg2OTQsMC42NjI0NyB6IiBpZD0icGF0aDUwNTUiIHN0eWxlPSJmb250LXNpemU6OHB4O2ZvbnQtc3R5bGU6bm9ybWFsO2ZvbnQtdmFyaWFudDpub3JtYWw7Zm9udC13ZWlnaHQ6Ym9sZDtmb250LXN0cmV0Y2g6bm9ybWFsO2ZpbGw6IzY4Njg2ODtmaWxsLW9wYWNpdHk6MTtmb250LWZhbWlseTpBcmlhbDstaW5rc2NhcGUtZm9udC1zcGVjaWZpY2F0aW9uOkFyaWFsIEJvbGQiIGlua3NjYXBlOmNvbm5lY3Rvci1jdXJ2YXR1cmU9IjAiLz4mI3hhOyAgICAgIDxwYXRoIGQ9Im0gMjk0LjI3MDksNDk5Ljk5MTc2IC0xLjA3OTcyLDAuNjQ1MjEgLTEuMDk2NDUsLTAuODYwMTMgLTEuOTY0OTcsMS4xNzQxOSAwLjI2MTUyLDEuMzU5MDYgLTEuMDUyOSwwLjYyOTE4IC0xLjAyMjgzLC02LjA1OTkgMS4wNDk1NSwtMC42MjcxNyB6IG0gLTIuOTg5NjUsLTAuODUyOCAtMS43NjczOCwtMS40MTkzNyAwLjQyNjExLDIuMjIwODcgeiIgaWQ9InBhdGg1MDU3IiBzdHlsZT0iZm9udC1zaXplOjhweDtmb250LXN0eWxlOm5vcm1hbDtmb250LXZhcmlhbnQ6bm9ybWFsO2ZvbnQtd2VpZ2h0OmJvbGQ7Zm9udC1zdHJldGNoOm5vcm1hbDtmaWxsOiM2ODY4Njg7ZmlsbC1vcGFjaXR5OjE7Zm9udC1mYW1pbHk6QXJpYWw7LWlua3NjYXBlLWZvbnQtc3BlY2lmaWNhdGlvbjpBcmlhbCBCb2xkIiBpbmtzY2FwZTpjb25uZWN0b3ItY3VydmF0dXJlPSIwIi8+JiN4YTsgICAgICA8cGF0aCBkPSJtIDI5Ny43NDQ3LDQ5Ni42OTAwOSAxLjE3NjEsMy4zZS00IGMgMC4wMjQ5LDAuNjQ3NzMgLTAuMTA3NDEsMS4xNzY1NiAtMC4zOTY4NiwxLjU4NjQ5IC0wLjI4OTQ3LDAuNDA5OTQgLTAuNzI3MTUsMC43MDc3IC0xLjMxMzAzLDAuODkzMjkgLTAuNzI0OTIsMC4yMjk2MyAtMS4zOTkxOSwwLjE3MDcyIC0yLjAyMjgsLTAuMTc2NzEgLTAuNjIzNjEsLTAuMzQ3NDMgLTEuMDcxNDcsLTAuOTUwNjQgLTEuMzQzNTYsLTEuODA5NjIgLTAuMjg3ODIsLTAuOTA4NjIgLTAuMjc2NzUsLTEuNjg4NjEgMC4wMzMyLC0yLjMzOTk3IDAuMzA5OTcsLTAuNjUxMzUgMC44NDcyNywtMS4wOTgxMyAxLjYxMTkxLC0xLjM0MDM1IDAuNjY3ODEsLTAuMjExNTMgMS4yNzI3OCwtMC4xODYgMS44MTQ4OSwwLjA3NjYgMC4zMjIxOCwwLjE1NDczIDAuNjE0NTQsMC40MzA4OSAwLjg3NzA4LDAuODI4NTEgbCAtMS4wMDg1MywwLjYwNjI5IGMgLTAuMTU0MiwtMC4yNjI1NiAtMC4zNTk2NiwtMC40NDMzNCAtMC42MTYzNywtMC41NDIzMSAtMC4yNTY3MiwtMC4wOTkgLTAuNTMxNTUsLTAuMTAyMDYgLTAuODI0NDksLTAuMDA5IC0wLjQwNDY3LDAuMTI4MTkgLTAuNjg2OTksMC4zNzc0MiAtMC44NDY5NiwwLjc0NzcgLTAuMTU5OTcsMC4zNzAyOCAtMC4xMzY5NCwwLjg4MDY0IDAuMDY5MSwxLjUzMTA4IDAuMjE4NjIsMC42OTAxNiAwLjQ5ODQ2LDEuMTQyNCAwLjgzOTUxLDEuMzU2NyAwLjM0MTA1LDAuMjE0MzEgMC43MTAxOSwwLjI1ODU1IDEuMTA3NDEsMC4xMzI3MiAwLjI5Mjk0LC0wLjA5MjggMC41MTU0MywtMC4yNjU3MSAwLjY2NzQ4LC0wLjUxODc1IDAuMTUyMDMsLTAuMjUzMDMgMC4yMTA2OCwtMC41OTM5NSAwLjE3NTkyLC0xLjAyMjc1IHoiIGlkPSJwYXRoNTA1OSIgc3R5bGU9ImZvbnQtc2l6ZTo4cHg7Zm9udC1zdHlsZTpub3JtYWw7Zm9udC12YXJpYW50Om5vcm1hbDtmb250LXdlaWdodDpib2xkO2ZvbnQtc3RyZXRjaDpub3JtYWw7ZmlsbDojNjg2ODY4O2ZpbGwtb3BhY2l0eToxO2ZvbnQtZmFtaWx5OkFyaWFsOy1pbmtzY2FwZS1mb250LXNwZWNpZmljYXRpb246QXJpYWwgQm9sZCIgaW5rc2NhcGU6Y29ubmVjdG9yLWN1cnZhdHVyZT0iMCIvPiYjeGE7ICAgICAgPHBhdGggZD0ibSAzMDAuNDYyNTEsNDk4LjE5MjYyIC0wLjYxNTMsLTUuNjkzNDEgMS4xNDk1NSwtMC4xMjQyNCAwLjI3MzI0LDIuNTI4MjUgMi4wNDkxOCwtMi43NzkyNCAxLjU0NTY4LC0wLjE2NzA1IC0xLjkwNDEsMi40NDkyNCAyLjYzNTkyLDMuMjMxNTggLTEuNDg3NDMsMC4xNjA3NSAtMS44NTM4NywtMi41MDI3OSAtMC44MjkyNSwxLjA1MjIyIDAuMTg1OTQsMS43MjA0NSB6IiBpZD0icGF0aDUwNjEiIHN0eWxlPSJmb250LXNpemU6OHB4O2ZvbnQtc3R5bGU6bm9ybWFsO2ZvbnQtdmFyaWFudDpub3JtYWw7Zm9udC13ZWlnaHQ6Ym9sZDtmb250LXN0cmV0Y2g6bm9ybWFsO2ZpbGw6IzY4Njg2ODtmaWxsLW9wYWNpdHk6MTtmb250LWZhbWlseTpBcmlhbDstaW5rc2NhcGUtZm9udC1zcGVjaWZpY2F0aW9uOkFyaWFsIEJvbGQiIGlua3NjYXBlOmNvbm5lY3Rvci1jdXJ2YXR1cmU9IjAiLz4mI3hhOyAgICA8L2c+JiN4YTsgICAgPGcgaWQ9InRleHQ1MDI3IiBzdHlsZT0iZm9udC1zaXplOjQwcHg7Zm9udC1zdHlsZTpub3JtYWw7Zm9udC13ZWlnaHQ6bm9ybWFsO2xpbmUtaGVpZ2h0OjEyNSU7bGV0dGVyLXNwYWNpbmc6MHB4O3dvcmQtc3BhY2luZzowcHg7ZmlsbDojNjg2ODY4O2ZpbGwtb3BhY2l0eToxO3N0cm9rZTpub25lO2ZvbnQtZmFtaWx5OkJpdHN0cmVhbSBWZXJhIFNhbnMiPiYjeGE7ICAgICAgPHBhdGggZD0ibSA0NTcuNTk1NDMsNDk1LjkxNzU2IDEuMTI1NzksLTAuMTAwOTQgYyAwLjA2NDksMC4zNzgxIDAuMjAwMTcsMC42NTY0NyAwLjQwNTg3LDAuODM1MSAwLjIwNTY5LDAuMTc4NjMgMC40ODQzMiwwLjI2OTI2IDAuODM1ODcsMC4yNzE4OSAwLjM3MjM5LDAuMDAzIDAuNjUzNTcsLTAuMDczOSAwLjg0MzU1LC0wLjIzMDAxIDAuMTg5OTcsLTAuMTU2MTQgMC4yODU3NSwtMC4zMzk2NyAwLjI4NzMzLC0wLjU1MDYgMTBlLTQsLTAuMTM1NDEgLTAuMDM3OCwtMC4yNTA5NCAtMC4xMTY1NCwtMC4zNDY1OSAtMC4wNzg3LC0wLjA5NTYgLTAuMjE2NzcsLTAuMTc5MzYgLTAuNDE0MTUsLTAuMjUxMTUgLTAuMTM1MDYsLTAuMDQ3OSAtMC40NDMwMiwtMC4xMzM1MyAtMC45MjM4OCwtMC4yNTY5MyAtMC42MTg2MywtMC4xNTgyOSAtMS4wNTIwOSwtMC4zNTAzNCAtMS4zMDA0MSwtMC41NzYxNyAtMC4zNDkxOSwtMC4zMTc3MiAtMC41MjIwOSwtMC43MDMxNSAtMC41MTg2OSwtMS4xNTYyNiAwLjAwMiwtMC4yOTE2NiAwLjA4NjksLTAuNTYzODEgMC4yNTQxNywtMC44MTY0OCAwLjE2NzI2LC0wLjI1MjY1IDAuNDA2OTgsLTAuNDQ0MjIgMC43MTkxNywtMC41NzQ3MSAwLjMxMjE4LC0wLjEzMDQ3IDAuNjg4MzIsLTAuMTk0MDYgMS4xMjg0MSwtMC4xOTA3NiAwLjcxODczLDAuMDA1IDEuMjU4NTUsMC4xNjY5OSAxLjYxOTQ2LDAuNDg0OCAwLjM2MDkxLDAuMzE3ODIgMC41NDg1MSwwLjczOTgxIDAuNTYyOCwxLjI2NTk3IGwgLTEuMTU2NiwwLjA0MjEgYyAtMC4wNDczLC0wLjI5NDYzIC0wLjE1MTgxLC0wLjUwNzAxIC0wLjMxMzU5LC0wLjYzNzE0IC0wLjE2MTgsLTAuMTMwMTEgLTAuNDA1NDUsLTAuMTk2MzkgLTAuNzMwOTYsLTAuMTk4ODQgLTAuMzM1OTMsLTAuMDAzIC0wLjU5OTQ2LDAuMDY0NSAtMC43OTA1OSwwLjIwMTEyIC0wLjEyMzA2LDAuMDg3NiAtMC4xODUxNCwwLjIwNTY1IC0wLjE4NjI1LDAuMzU0MDggLTAuMDAxLDAuMTM1NDIgMC4wNTU0LDAuMjUxNzMgMC4xNjkyNywwLjM0ODkzIDAuMTQ0OTEsMC4xMjM0OSAwLjQ5ODExLDAuMjUzNzUgMS4wNTk2LDAuMzkwNzcgMC41NjE0OCwwLjEzNzAyIDAuOTc2NDYsMC4yNzc1MSAxLjI0NDkyLDAuNDIxNDQgMC4yNjg0NiwwLjE0Mzk1IDAuNDc3OTQsMC4zMzk1NCAwLjYyODQ0LDAuNTg2NzYgMC4xNTA0OSwwLjI0NzIzIDAuMjI0MzgsMC41NTE4MyAwLjIyMTY3LDAuOTEzOCAtMC4wMDIsMC4zMjgxMSAtMC4wOTU5LDAuNjM0NzEgLTAuMjgwMzQsMC45MTk4IC0wLjE4NDQzLDAuMjg1MDggLTAuNDQzODMsMC40OTYwMyAtMC43NzgyLDAuNjMyODYgLTAuMzM0MzcsMC4xMzY4MiAtMC43NTAyNCwwLjIwMzM2IC0xLjI0NzYyLDAuMTk5NjQgLTAuNzIzOTQsLTAuMDA1IC0xLjI3ODY2LC0wLjE3NjkxIC0xLjY2NDE2LC0wLjUxNDQ0IC0wLjM4NTUxLC0wLjMzNzUzIC0wLjYxMzYyLC0wLjgyNjg4IC0wLjY4NDM0LC0xLjQ2ODA2IHoiIGlkPSJwYXRoNTA3NiIgc3R5bGU9ImZvbnQtc2l6ZTo4cHg7Zm9udC12YXJpYW50Om5vcm1hbDtmb250LXdlaWdodDpib2xkO2ZvbnQtc3RyZXRjaDpub3JtYWw7ZmlsbDojNjg2ODY4O2ZpbGwtb3BhY2l0eToxO2ZvbnQtZmFtaWx5OkFyaWFsOy1pbmtzY2FwZS1mb250LXNwZWNpZmljYXRpb246QXJpYWwgQm9sZCIgaW5rc2NhcGU6Y29ubmVjdG9yLWN1cnZhdHVyZT0iMCIvPiYjeGE7ICAgICAgPHBhdGggZD0ibSA0NjQuNDg4MTQsNDk4LjIwNjc1IDAuODcyOSwtNC42NzcwNSAtMS42NzAzOCwtMC4zMTE3NSAwLjE3Nzc0LC0wLjk1MjMxIDQuNDczNTMsMC44MzQ5MiAtMC4xNzc3MywwLjk1MjMgLTEuNjY2NTQsLTAuMzExMDMgLTAuODcyOSw0LjY3NzA1IHoiIGlkPSJwYXRoNTA3OCIgc3R5bGU9ImZvbnQtc2l6ZTo4cHg7Zm9udC12YXJpYW50Om5vcm1hbDtmb250LXdlaWdodDpib2xkO2ZvbnQtc3RyZXRjaDpub3JtYWw7ZmlsbDojNjg2ODY4O2ZpbGwtb3BhY2l0eToxO2ZvbnQtZmFtaWx5OkFyaWFsOy1pbmtzY2FwZS1mb250LXNwZWNpZmljYXRpb246QXJpYWwgQm9sZCIgaW5rc2NhcGU6Y29ubmVjdG9yLWN1cnZhdHVyZT0iMCIvPiYjeGE7ICAgICAgPHBhdGggZD0ibSA0NzIuODYyMjksNTAwLjczODQ3IC0xLjE3ODEzLC0wLjQ0MDU4IC0wLjAxMjcsLTEuMzkzNTEgLTIuMTQ0MDUsLTAuODAxOCAtMC44OTgzNCwxLjA1MjgyIC0xLjE0ODg2LC0wLjQyOTYzIDQuMDk1MDIsLTQuNTgyNSAxLjE0NTIsMC40MjgyNiB6IG0gLTEuMjAwNDUsLTIuODY3NzkgMC4wMDUsLTIuMjY2NzcgLTEuNDY4NzcsMS43MTk0NyB6IiBpZD0icGF0aDUwODAiIHN0eWxlPSJmb250LXNpemU6OHB4O2ZvbnQtdmFyaWFudDpub3JtYWw7Zm9udC13ZWlnaHQ6Ym9sZDtmb250LXN0cmV0Y2g6bm9ybWFsO2ZpbGw6IzY4Njg2ODtmaWxsLW9wYWNpdHk6MTtmb250LWZhbWlseTpBcmlhbDstaW5rc2NhcGUtZm9udC1zcGVjaWZpY2F0aW9uOkFyaWFsIEJvbGQiIGlua3NjYXBlOmNvbm5lY3Rvci1jdXJ2YXR1cmU9IjAiLz4mI3hhOyAgICAgIDxwYXRoIGQ9Im0gNDczLjQxMTE3LDUwMS4wNjMzNiAyLjk4MjY3LC00Ljg4ODQ3IDIuMDc3NDMsMS4yNjc1MyBjIDAuNTIyNDEsMC4zMTg3NSAwLjg3NTIxLDAuNTk0MjYgMS4wNTgzOSwwLjgyNjUyIDAuMTgzMTcsMC4yMzIyNyAwLjI3NzQsMC41MDQwNyAwLjI4MjY5LDAuODE1NCAwLjAwNSwwLjMxMTM0IC0wLjA4MDIsMC42MTE1IC0wLjI1NjU3LDAuOTAwNSAtMC4yMjM4MSwwLjM2NjggLTAuNTE2NDQsMC42MDM5MSAtMC44Nzc4OCwwLjcxMTMxIC0wLjM2MTQ1LDAuMTA3NDEgLTAuNzc1NjgsMC4wNjE0IC0xLjI0MjcsLTAuMTM4MTggMC4xMzc0NSwwLjI1NDcgMC4yMzAyMSwwLjQ5ODkxIDAuMjc4MjcsMC43MzI2MyAwLjA0ODEsMC4yMzM3MSAwLjA3NCwwLjYxMjUzIDAuMDc3NywxLjEzNjQ1IGwgMC4wMTUsMS4zMTc4NyAtMS4xODA0MywtMC43MjAyNCAtMC4wNjQ2LC0xLjQ5OTEyIGMgLTAuMDIxNSwtMC41MzQ3NyAtMC4wNDg3LC0wLjg4MDEgLTAuMDgxNywtMS4wMzU5OSAtMC4wMzMsLTAuMTU1ODkgLTAuMDkwNiwtMC4yODQwNiAtMC4xNzI2NywtMC4zODQ0OSAtMC4wODIxLC0wLjEwMDQzIC0wLjIzNjUzLC0wLjIxOTgyIC0wLjQ2MzI4LC0wLjM1ODE3IGwgLTAuMjAwMDcsLTAuMTIyMDcgLTEuMjQ1MTUsMi4wNDA3NSB6IG0gMi43MDgyNywtMi4yMTg4MSAwLjczMDI3LDAuNDQ1NTcgYyAwLjQ3MzUsMC4yODg5MSAwLjc4MTM3LDAuNDQ5MyAwLjkyMzYyLDAuNDgxMTcgMC4xNDIyMywwLjAzMTkgMC4yNzY1MywwLjAxOTIgMC40MDI5MSwtMC4wMzc5IDAuMTI2MzYsLTAuMDU3MSAwLjIzNDMxLC0wLjE1OTA1IDAuMzIzODQsLTAuMzA1NzcgMC4xMDAzNiwtMC4xNjQ1IDAuMTM3NSwtMC4zMjQxMiAwLjExMTQxLC0wLjQ3ODg0IC0wLjAyNjEsLTAuMTU0NzMgLTAuMTExMDQsLTAuMjk0MjYgLTAuMjU0ODEsLTAuNDE4NTkgLTAuMDczMywtMC4wNTk5IC0wLjMwOTk2LC0wLjIxMTk5IC0wLjcxMDEsLTAuNDU2MTQgbCAtMC43NzAyOCwtMC40Njk5OSB6IiBpZD0icGF0aDUwODIiIHN0eWxlPSJmb250LXNpemU6OHB4O2ZvbnQtdmFyaWFudDpub3JtYWw7Zm9udC13ZWlnaHQ6Ym9sZDtmb250LXN0cmV0Y2g6bm9ybWFsO2ZpbGw6IzY4Njg2ODtmaWxsLW9wYWNpdHk6MTtmb250LWZhbWlseTpBcmlhbDstaW5rc2NhcGUtZm9udC1zcGVjaWZpY2F0aW9uOkFyaWFsIEJvbGQiIGlua3NjYXBlOmNvbm5lY3Rvci1jdXJ2YXR1cmU9IjAiLz4mI3hhOyAgICAgIDxwYXRoIGQ9Im0gNDc5LjIzODg5LDUwNS4wNDQ3NSAzLjEzNTYxLC0zLjU3ODM2IC0xLjI3Nzk4LC0xLjExOTg3IDAuNjM4NDUsLTAuNzI4NiAzLjQyMjY1LDIuOTk5MTggLTAuNjM4NDUsMC43Mjg1OSAtMS4yNzUwNSwtMS4xMTcyOCAtMy4xMzU2MSwzLjU3ODM2IHoiIGlkPSJwYXRoNTA4NCIgc3R5bGU9ImZvbnQtc2l6ZTo4cHg7Zm9udC12YXJpYW50Om5vcm1hbDtmb250LXdlaWdodDpib2xkO2ZvbnQtc3RyZXRjaDpub3JtYWw7ZmlsbDojNjg2ODY4O2ZpbGwtb3BhY2l0eToxO2ZvbnQtZmFtaWx5OkFyaWFsOy1pbmtzY2FwZS1mb250LXNwZWNpZmljYXRpb246QXJpYWwgQm9sZCIgaW5rc2NhcGU6Y29ubmVjdG9yLWN1cnZhdHVyZT0iMCIvPiYjeGE7ICAgIDwvZz4mI3hhOyAgICA8cGF0aCBkPSJtIDIwNy4xNDI4NSw1NTMuNjEyMTggYyAwLDE0Ljk5MDU5IC0xNi43ODkzMiwyNy4xNDI4NiAtMzcuNSwyNy4xNDI4NiAtMjAuNzEwNjgsMCAtMzcuNSwtMTIuMTUyMjcgLTM3LjUsLTI3LjE0Mjg2IDAsLTE0Ljk5MDU4IDE2Ljc4OTMyLC0yNy4xNDI4NSAzNy41LC0yNy4xNDI4NSAyMC43MTA2OCwwIDM3LjUsMTIuMTUyMjcgMzcuNSwyNy4xNDI4NSB6IiB0cmFuc2Zvcm09Im1hdHJpeCgxLjE2OTcyNTMsMCwwLDEuMzQzMzA1OCwtMjQuNDE2OTAxLC0yMDYuNDY5MTcpIiBpZD0icGF0aDUwODYiIHN0eWxlPSJmaWxsOiM5OTk5OTk7ZmlsbC1vcGFjaXR5OjE7c3Ryb2tlOiMwMDAwMDA7c3Ryb2tlLXdpZHRoOjAuOTk5MDAwMDE7c3Ryb2tlLW1pdGVybGltaXQ6NDtzdHJva2Utb3BhY2l0eToxIiBpbmtzY2FwZTpjb25uZWN0b3ItY3VydmF0dXJlPSIwIi8+JiN4YTsgICAgPHBhdGggZD0ibSAyMDcuMTQyODUsNTUzLjYxMjE4IGMgMCwxNC45OTA1OSAtMTYuNzg5MzIsMjcuMTQyODYgLTM3LjUsMjcuMTQyODYgLTIwLjcxMDY4LDAgLTM3LjUsLTEyLjE1MjI3IC0zNy41LC0yNy4xNDI4NiAwLC0xNC45OTA1OCAxNi43ODkzMiwtMjcuMTQyODUgMzcuNSwtMjcuMTQyODUgMjAuNzEwNjgsMCAzNy41LDEyLjE1MjI3IDM3LjUsMjcuMTQyODUgeiIgdHJhbnNmb3JtPSJtYXRyaXgoMS4xNDA0Mjc2LDAsMCwxLjI4NDgwNjIsMjg0LjMyMDk3LC03Mi43MDkxOTIpIiBpZD0icGF0aDUwODgiIHN0eWxlPSJmaWxsOiM5OTk5OTk7ZmlsbC1vcGFjaXR5OjE7c3Ryb2tlOiMwMDAwMDA7c3Ryb2tlLXdpZHRoOjAuOTk5MDAwMDE7c3Ryb2tlLW1pdGVybGltaXQ6NDtzdHJva2Utb3BhY2l0eToxIiBpbmtzY2FwZTpjb25uZWN0b3ItY3VydmF0dXJlPSIwIi8+JiN4YTsgICAgPHBhdGggZD0ibSAxNzEuMzQ3MTIsNTE0Ljk2MSBjIDAsMC45MDY1NyAtMC44NzYyNSwxLjY0MTUgLTEuOTU3MTcsMS42NDE1IC0xLjA4MDkxLDAgLTEuOTU3MTcsLTAuNzM0OTMgLTEuOTU3MTcsLTEuNjQxNSAwLC0wLjkwNjU4IDAuODc2MjYsLTEuNjQxNSAxLjk1NzE3LC0xLjY0MTUgMS4wODA5MiwwIDEuOTU3MTcsMC43MzQ5MiAxLjk1NzE3LDEuNjQxNSB6IiB0cmFuc2Zvcm09InRyYW5zbGF0ZSgzLjAzMDQ1NzYsLTIuMDIwMzA1MSkiIGlkPSJwYXRoNTA5MCIgc3R5bGU9ImZpbGw6I2IwYjBiMDtmaWxsLW9wYWNpdHk6MTtzdHJva2U6IzAwMDAwMDtzdHJva2Utd2lkdGg6MC45OTkwMDAwMTtzdHJva2UtbWl0ZXJsaW1pdDo0O3N0cm9rZS1vcGFjaXR5OjEiIGlua3NjYXBlOmNvbm5lY3Rvci1jdXJ2YXR1cmU9IjAiLz4mI3hhOyAgICA8cGF0aCBkPSJtIDE3MS4zNDcxMiw1MTQuOTYxIGMgMCwwLjkwNjU3IC0wLjg3NjI1LDEuNjQxNSAtMS45NTcxNywxLjY0MTUgLTEuMDgwOTEsMCAtMS45NTcxNywtMC43MzQ5MyAtMS45NTcxNywtMS42NDE1IDAsLTAuOTA2NTggMC44NzYyNiwtMS42NDE1IDEuOTU3MTcsLTEuNjQxNSAxLjA4MDkyLDAgMS45NTcxNywwLjczNDkyIDEuOTU3MTcsMS42NDE1IHoiIHRyYW5zZm9ybT0idHJhbnNsYXRlKDM2LjM2NTQ5MiwyNC44NzUwMDYpIiBpZD0icGF0aDUwOTIiIHN0eWxlPSJmaWxsOiNiMGIwYjA7ZmlsbC1vcGFjaXR5OjE7c3Ryb2tlOiMwMDAwMDA7c3Ryb2tlLXdpZHRoOjAuOTk5MDAwMDE7c3Ryb2tlLW1pdGVybGltaXQ6NDtzdHJva2Utb3BhY2l0eToxIiBpbmtzY2FwZTpjb25uZWN0b3ItY3VydmF0dXJlPSIwIi8+JiN4YTsgICAgPHBhdGggZD0ibSAxNzEuMzQ3MTIsNTE0Ljk2MSBjIDAsMC45MDY1NyAtMC44NzYyNSwxLjY0MTUgLTEuOTU3MTcsMS42NDE1IC0xLjA4MDkxLDAgLTEuOTU3MTcsLTAuNzM0OTMgLTEuOTU3MTcsLTEuNjQxNSAwLC0wLjkwNjU4IDAuODc2MjYsLTEuNjQxNSAxLjk1NzE3LC0xLjY0MTUgMS4wODA5MiwwIDEuOTU3MTcsMC43MzQ5MiAxLjk1NzE3LDEuNjQxNSB6IiB0cmFuc2Zvcm09InRyYW5zbGF0ZSgzLjI4Mjk5NjEsNDguOTkyMzk4KSIgaWQ9InBhdGg1MDk0IiBzdHlsZT0iZmlsbDojYjBiMGIwO2ZpbGwtb3BhY2l0eToxO3N0cm9rZTojMDAwMDAwO3N0cm9rZS13aWR0aDowLjk5OTAwMDAxO3N0cm9rZS1taXRlcmxpbWl0OjQ7c3Ryb2tlLW9wYWNpdHk6MSIgaW5rc2NhcGU6Y29ubmVjdG9yLWN1cnZhdHVyZT0iMCIvPiYjeGE7ICAgIDxwYXRoIGQ9Im0gMTcxLjM0NzEyLDUxNC45NjEgYyAwLDAuOTA2NTcgLTAuODc2MjUsMS42NDE1IC0xLjk1NzE3LDEuNjQxNSAtMS4wODA5MSwwIC0xLjk1NzE3LC0wLjczNDkzIC0xLjk1NzE3LC0xLjY0MTUgMCwtMC45MDY1OCAwLjg3NjI2LC0xLjY0MTUgMS45NTcxNywtMS42NDE1IDEuMDgwOTIsMCAxLjk1NzE3LDAuNzM0OTIgMS45NTcxNywxLjY0MTUgeiIgdHJhbnNmb3JtPSJ0cmFuc2xhdGUoLTI3LjQwMDM4OCwyMy4xMDcyMzkpIiBpZD0icGF0aDUwOTYiIHN0eWxlPSJmaWxsOiNiMGIwYjA7ZmlsbC1vcGFjaXR5OjE7c3Ryb2tlOiMwMDAwMDA7c3Ryb2tlLXdpZHRoOjAuOTk5MDAwMDE7c3Ryb2tlLW1pdGVybGltaXQ6NDtzdHJva2Utb3BhY2l0eToxIiBpbmtzY2FwZTpjb25uZWN0b3ItY3VydmF0dXJlPSIwIi8+JiN4YTsgICAgPHBhdGggZD0ibSAxNzEuMzQ3MTIsNTE0Ljk2MSBjIDAsMC45MDY1NyAtMC44NzYyNSwxLjY0MTUgLTEuOTU3MTcsMS42NDE1IC0xLjA4MDkxLDAgLTEuOTU3MTcsLTAuNzM0OTMgLTEuOTU3MTcsLTEuNjQxNSAwLC0wLjkwNjU4IDAuODc2MjYsLTEuNjQxNSAxLjk1NzE3LC0xLjY0MTUgMS4wODA5MiwwIDEuOTU3MTcsMC43MzQ5MiAxLjk1NzE3LDEuNjQxNSB6IiB0cmFuc2Zvcm09InRyYW5zbGF0ZSgzMDkuMTA2NjgsMTAyLjI3Nzk0KSIgaWQ9InBhdGg1MDk4IiBzdHlsZT0iZmlsbDojYWZhZmFmO2ZpbGwtb3BhY2l0eToxO3N0cm9rZTojMDAwMDAwO3N0cm9rZS13aWR0aDowLjk5OTAwMDAxO3N0cm9rZS1taXRlcmxpbWl0OjQ7c3Ryb2tlLW9wYWNpdHk6MSIgaW5rc2NhcGU6Y29ubmVjdG9yLWN1cnZhdHVyZT0iMCIvPiYjeGE7ICAgIDxwYXRoIGQ9Im0gMTcxLjM0NzEyLDUxNC45NjEgYyAwLDAuOTA2NTcgLTAuODc2MjUsMS42NDE1IC0xLjk1NzE3LDEuNjQxNSAtMS4wODA5MSwwIC0xLjk1NzE3LC0wLjczNDkzIC0xLjk1NzE3LC0xLjY0MTUgMCwtMC45MDY1OCAwLjg3NjI2LC0xLjY0MTUgMS45NTcxNywtMS42NDE1IDEuMDgwOTIsMCAxLjk1NzE3LDAuNzM0OTIgMS45NTcxNywxLjY0MTUgeiIgdHJhbnNmb3JtPSJ0cmFuc2xhdGUoMzM5LjI4NDk5LDEyNi41MjE2KSIgaWQ9InBhdGg1MTAwIiBzdHlsZT0iZmlsbDojOTc5Nzk3O2ZpbGwtb3BhY2l0eToxO3N0cm9rZTojMDAwMDAwO3N0cm9rZS13aWR0aDowLjk5OTAwMDAxO3N0cm9rZS1taXRlcmxpbWl0OjQ7c3Ryb2tlLW9wYWNpdHk6MSIgaW5rc2NhcGU6Y29ubmVjdG9yLWN1cnZhdHVyZT0iMCIvPiYjeGE7ICAgIDxwYXRoIGQ9Im0gMTcxLjM0NzEyLDUxNC45NjEgYyAwLDAuOTA2NTcgLTAuODc2MjUsMS42NDE1IC0xLjk1NzE3LDEuNjQxNSAtMS4wODA5MSwwIC0xLjk1NzE3LC0wLjczNDkzIC0xLjk1NzE3LC0xLjY0MTUgMCwtMC45MDY1OCAwLjg3NjI2LC0xLjY0MTUgMS45NTcxNywtMS42NDE1IDEuMDgwOTIsMCAxLjk1NzE3LDAuNzM0OTIgMS45NTcxNywxLjY0MTUgeiIgdHJhbnNmb3JtPSJ0cmFuc2xhdGUoMzA4LjM0OTA3LDE0OC4yMzk4OCkiIGlkPSJwYXRoNTEwMiIgc3R5bGU9ImZpbGw6I2IwYjBiMDtmaWxsLW9wYWNpdHk6MTtzdHJva2U6IzAwMDAwMDtzdHJva2Utd2lkdGg6MC45OTkwMDAwMTtzdHJva2UtbWl0ZXJsaW1pdDo0O3N0cm9rZS1vcGFjaXR5OjEiIGlua3NjYXBlOmNvbm5lY3Rvci1jdXJ2YXR1cmU9IjAiLz4mI3hhOyAgICA8cGF0aCBkPSJtIDE3MS4zNDcxMiw1MTQuOTYxIGMgMCwwLjkwNjU3IC0wLjg3NjI1LDEuNjQxNSAtMS45NTcxNywxLjY0MTUgLTEuMDgwOTEsMCAtMS45NTcxNywtMC43MzQ5MyAtMS45NTcxNywtMS42NDE1IDAsLTAuOTA2NTggMC44NzYyNiwtMS42NDE1IDEuOTU3MTcsLTEuNjQxNSAxLjA4MDkyLDAgMS45NTcxNywwLjczNDkyIDEuOTU3MTcsMS42NDE1IHoiIHRyYW5zZm9ybT0idHJhbnNsYXRlKDI3OS42ODU5OSwxMjQuODgwMSkiIGlkPSJwYXRoNTEwNCIgc3R5bGU9ImZpbGw6I2IwYjBiMDtmaWxsLW9wYWNpdHk6MTtzdHJva2U6IzAwMDAwMDtzdHJva2Utd2lkdGg6MC45OTkwMDAwMTtzdHJva2UtbWl0ZXJsaW1pdDo0O3N0cm9rZS1vcGFjaXR5OjEiIGlua3NjYXBlOmNvbm5lY3Rvci1jdXJ2YXR1cmU9IjAiLz4mI3hhOyAgICA8ZyB0cmFuc2Zvcm09InNjYWxlKDEuMDE2NjIzNSwwLjk4MzY0ODM3KSIgaWQ9InRleHQ1MTEyIiBzdHlsZT0iZm9udC1zaXplOjMyLjgzODQ3MDQ2cHg7Zm9udC1zdHlsZTpub3JtYWw7Zm9udC13ZWlnaHQ6Ym9sZDtsaW5lLWhlaWdodDoxMjUlO2xldHRlci1zcGFjaW5nOjBweDt3b3JkLXNwYWNpbmc6MHB4O2ZpbGw6IzI0OTUwMDtmaWxsLW9wYWNpdHk6MTtzdHJva2U6bm9uZTtmb250LWZhbWlseTpCaXRzdHJlYW0gVmVyYSBTYW5zOy1pbmtzY2FwZS1mb250LXNwZWNpZmljYXRpb246Qml0c3RyZWFtIFZlcmEgU2FucyBCb2xkIj4mI3hhOyAgICAgIDxwYXRoIGQ9Im0gNTgwLjI0NzI3LDU3Ni4yODY2NSAtOS42NTI3MSwwIC0xLjUyMzI3LDQuMzYxMzYgLTYuMjA1MzIsMCA4Ljg2NzAzLC0yMy45MzkzNyA3LjM1OTc5LDAgOC44NjcwMywyMy45MzkzNyAtNi4yMDUzMSwwIHogbSAtOC4xMTM0MSwtNC40NDE1MyA2LjU1ODA3LDAgLTMuMjcxMDIsLTkuNTI0NDQgeiIgaWQ9InBhdGg1MTI5IiBzdHlsZT0iZmlsbDojMjQ5NTAwO2ZpbGwtb3BhY2l0eToxIiBpbmtzY2FwZTpjb25uZWN0b3ItY3VydmF0dXJlPSIwIi8+JiN4YTsgICAgPC9nPiYjeGE7ICAgIDxnIHRyYW5zZm9ybT0ibWF0cml4KDEuMDE2NjIzNSwwLDAsMC45ODM2NDgzNCwtMC4zNDcyMzk5NCwwLjI1MjUzODE0KSIgaWQ9InRleHQ1MTE2IiBzdHlsZT0iZm9udC1zaXplOjMyLjgzODQ3MDQ2cHg7Zm9udC1zdHlsZTpub3JtYWw7Zm9udC13ZWlnaHQ6Ym9sZDtsaW5lLWhlaWdodDoxMjUlO2xldHRlci1zcGFjaW5nOjBweDt3b3JkLXNwYWNpbmc6MHB4O2ZpbGw6IzAwMzJiMDtmaWxsLW9wYWNpdHk6MTtzdHJva2U6bm9uZTtmb250LWZhbWlseTpCaXRzdHJlYW0gVmVyYSBTYW5zOy1pbmtzY2FwZS1mb250LXNwZWNpZmljYXRpb246Qml0c3RyZWFtIFZlcmEgU2FucyBCb2xkIj4mI3hhOyAgICAgIDxwYXRoIGQ9Im0gNTI4LjAxMjc1LDUyNC43ODQ2NSA4LjMwNTgzLDEyLjIxODIyIC02LjQyOTgsMCAtNS41OTYwMSwtOC4xNzc1NSAtNS41NDc5MSw4LjE3NzU1IC02LjQ2MTg2LDAgOC4zMDU4MiwtMTIuMjE4MjIgLTcuOTg1MTQsLTExLjcyMTE1IDYuNDQ1ODQsMCA1LjI0MzI1LDcuNzEyNTUgNS4yMjcyMiwtNy43MTI1NSA2LjQ3NzksMCB6IiBpZD0icGF0aDUxMzIiIHN0eWxlPSJmaWxsOiMwMDMyYjA7ZmlsbC1vcGFjaXR5OjEiIGlua3NjYXBlOmNvbm5lY3Rvci1jdXJ2YXR1cmU9IjAiLz4mI3hhOyAgICA8L2c+JiN4YTsgICAgPGcgdHJhbnNmb3JtPSJtYXRyaXgoMS4wMTY2MjM1LDAsMCwwLjk4MzY0ODMzLC0xLjA3MzI4NzEsMCkiIGlkPSJ0ZXh0NTEyMCIgc3R5bGU9ImZvbnQtc2l6ZTozMi44Mzg0NzA0NnB4O2ZvbnQtc3R5bGU6bm9ybWFsO2ZvbnQtd2VpZ2h0OmJvbGQ7bGluZS1oZWlnaHQ6MTI1JTtsZXR0ZXItc3BhY2luZzowcHg7d29yZC1zcGFjaW5nOjBweDtmaWxsOiNkOWMzMDA7ZmlsbC1vcGFjaXR5OjE7c3Ryb2tlOm5vbmU7Zm9udC1mYW1pbHk6Qml0c3RyZWFtIFZlcmEgU2FuczstaW5rc2NhcGUtZm9udC1zcGVjaWZpY2F0aW9uOkJpdHN0cmVhbSBWZXJhIFNhbnMgQm9sZCI+JiN4YTsgICAgICA8cGF0aCBkPSJtIDU2OS4yMTYxOCw0NjYuNzIyNjEgNi43NTA0OCwwIDUuNDUxNyw4LjUzMDMxIDUuNDUxNywtOC41MzAzMSA2Ljc2NjUyLDAgLTkuMTIzNTgsMTMuODUzNzMgMCwxMC4wODU2NSAtNi4xNzMyNCwwIDAsLTEwLjA4NTY1IHoiIGlkPSJwYXRoNTEzNSIgc3R5bGU9ImZpbGw6I2Q5YzMwMDtmaWxsLW9wYWNpdHk6MSIgaW5rc2NhcGU6Y29ubmVjdG9yLWN1cnZhdHVyZT0iMCIvPiYjeGE7ICAgIDwvZz4mI3hhOyAgICA8ZyB0cmFuc2Zvcm09Im1hdHJpeCgxLjAxNjUzMzMsMC4wMTM1NDQwMSwtMC4wMTMxMDQ3LDAuOTgzNTYxMDEsLTAuNTY4MjEwODEsLTAuMzc4ODA3MjEpIiBpZD0idGV4dDUxMjQiIHN0eWxlPSJmb250LXNpemU6MzMuNDQ3OTIxNzVweDtmb250LXN0eWxlOm5vcm1hbDtmb250LXdlaWdodDpib2xkO2xpbmUtaGVpZ2h0OjEyNSU7bGV0dGVyLXNwYWNpbmc6MHB4O3dvcmQtc3BhY2luZzowcHg7ZmlsbDojYWIwYjAwO2ZpbGwtb3BhY2l0eToxO3N0cm9rZTpub25lO2ZvbnQtZmFtaWx5OkJpdHN0cmVhbSBWZXJhIFNhbnM7LWlua3NjYXBlLWZvbnQtc3BlY2lmaWNhdGlvbjpCaXRzdHJlYW0gVmVyYSBTYW5zIEJvbGQiPiYjeGE7ICAgICAgPHBhdGggZD0ibSA2NDAuOTEwMzcsNTEwLjQ0OTU0IGMgMC45OTA4LDEwZS02IDEuNzQyMDcsLTAuMjE3NzUgMi4yNTM4MiwtMC42NTMyOCAwLjUxMTcyLC0wLjQzNTUxIDAuNzY3NTgsLTEuMDc3OSAwLjc2NzYsLTEuOTI3MTggLTJlLTUsLTAuODM4MzYgLTAuMjU1ODgsLTEuNDc4MDIgLTAuNzY3NiwtMS45MTkwMSAtMC41MTE3NSwtMC40NDA5NCAtMS4yNjMwMiwtMC42NjE0MiAtMi4yNTM4MiwtMC42NjE0NCBsIC0zLjQ3ODcxLDAgMCw1LjE2MDkxIHogbSAwLjIxMjMyLDEwLjY2NDc5IGMgMS4yNjI5OSwwIDIuMjEyOTcsLTAuMjY2NzUgMi44NDk5MywtMC44MDAyNyAwLjYzNjkzLC0wLjUzMzUxIDAuOTU1NDEsLTEuMzM5MjIgMC45NTU0MiwtMi40MTcxMyAtMTBlLTYsLTEuMDU2MTMgLTAuMzE1NzcsLTEuODQ4MjMgLTAuOTQ3MjUsLTIuMzc2MzEgLTAuNjMxNTIsLTAuNTI4MDYgLTEuNTg0MjIsLTAuNzkyMDkgLTIuODU4MSwtMC43OTIxIGwgLTMuNjkxMDMsMCAwLDYuMzg1ODEgeiBtIDUuODQ2ODUsLTguNzcwMjggYyAxLjM1MDA5LDAuMzkxOTggMi4zOTUzNCwxLjExNjAzIDMuMTM1NzQsMi4xNzIxNSAwLjc0MDM2LDEuMDU2MTUgMS4xMTA1NiwyLjM1MTgyIDEuMTEwNTgsMy44ODcwMiAtMmUtNSwyLjM1MTgxIC0wLjc5NDg1LDQuMTA0NzcgLTIuMzg0NDcsNS4yNTg5IC0xLjU4OTY3LDEuMTU0MTMgLTQuMDA2OCwxLjczMTE5IC03LjI1MTQxLDEuNzMxMTkgbCAtMTAuNDM2MTQsMCAwLC0yNC4zODM2NyA5LjQzOTg5LDAgYyAzLjM4NjE1LDNlLTUgNS44Mzg2NywwLjUxMTc2IDcuMzU3NTYsMS41MzUyMSAxLjUxODg2LDEuMDIzNSAyLjI3ODMsMi42NjIxNCAyLjI3ODMyLDQuOTE1OTMgLTJlLTUsMS4xODY4MSAtMC4yNzc2NywyLjE5NjY3IC0wLjgzMjkzLDMuMDI5NTkgLTAuNTU1MzEsMC44MzI5NCAtMS4zNjEwMiwxLjQ1MDg0IC0yLjQxNzE0LDEuODUzNjggeiIgaWQ9InBhdGg1MTM4IiBzdHlsZT0iZmlsbDojYWIwYjAwO2ZpbGwtb3BhY2l0eToxIiBpbmtzY2FwZTpjb25uZWN0b3ItY3VydmF0dXJlPSIwIi8+JiN4YTsgICAgPC9nPiYjeGE7ICAgIDxwYXRoIGQ9Im0gMTExLjk2NDI5LDQwMS4yOTA3NSBjIDAsMCAtMC43MTQyOSwtOS42NDI4NSAxMy41NzE0MiwtMTUuNzE0MjggMTQuMjg1NzIsLTYuMDcxNDMgMjYuNDI4NTgsLTEzLjc1IDQzLjAzNTcyLC0xNy4xNDI4NiAxNi42MDcxNCwtMy4zOTI4NiAyNi42MDcxNCwtNC4yODU3MSAzNC42NDI4NiwtNC4xMDcxNCA4LjAzNTcxLDAuMTc4NTcgMjAuNzE0MjgsMS4wNzE0MyAyMi4xNDI4NSwxLjYwNzE0IDEuNDI4NTcsMC41MzU3MSAwLjUxODU3LDMuMjg3OCAwLjA1MzksNS4wNDg1OSAtMC4zNjA4NywxLjM2NzI5IC0xLjE5OTg4LDIuOTk2MSAtMS4xOTk4OCwyLjk5NjEgbCAtMC44NTMyNSwzLjcxMzQ2IC0wLjE5Mjc5LDMuMjQ4MDEgYyAwLDAgLTQuMjI4NzcsLTQuNDUzNzQgLTM3Ljc2ODMyLDEuNTIyNjYgLTMxLjMxNjk2LDUuNTgwMzYgLTMyLjAzNzYxLDYuMDMzMzYgLTMyLjAzNzYxLDYuMDMzMzYgMCwwIC0xMS40OTA3NSwzLjA3MzE0IC0xNy44NjU0OCw1Ljg0MjEgLTEuMjc5MjIsMC41NTU2NCAtMTcuNDU1MTEsNS4yNjc4MyAtMTcuNDU1MTEsNS4yNjc4MyAtMi4yNTM5MywwLjU1NzgxIC00LjM0ODA1LDEuNTg5OTcgLTYuMDc0MzEsMS42ODUwMyB6IiBpZD0icGF0aDUxNzYiIHN0eWxlPSJmaWxsOiNmOGY4Zjg7ZmlsbC1vcGFjaXR5OjE7c3Ryb2tlOiMwMDAwMDA7c3Ryb2tlLXdpZHRoOjFweDtzdHJva2UtbGluZWNhcDpidXR0O3N0cm9rZS1saW5lam9pbjptaXRlcjtzdHJva2Utb3BhY2l0eToxIiBpbmtzY2FwZTpjb25uZWN0b3ItY3VydmF0dXJlPSIwIi8+JiN4YTsgICAgPGcgdHJhbnNmb3JtPSJtYXRyaXgoMS4zMTA3MzQ5LC0wLjA4ODA5Mzc2LDAuMDUxMDQ1NTcsMC43NTk1MDAwNCwwLDApIiBpZD0idGV4dDUxNDAiIHN0eWxlPSJmb250LXNpemU6MTIuMjU0MDM3ODZweDtmb250LXN0eWxlOm5vcm1hbDtmb250LXdlaWdodDpub3JtYWw7bGluZS1oZWlnaHQ6MTI1JTtsZXR0ZXItc3BhY2luZzowcHg7d29yZC1zcGFjaW5nOjBweDtmaWxsOiNiYmJiYmI7ZmlsbC1vcGFjaXR5OjE7c3Ryb2tlOm5vbmU7Zm9udC1mYW1pbHk6Qml0c3RyZWFtIFZlcmEgU2FucyI+JiN4YTsgICAgICA8cGF0aCBkPSJtIDExNi44NzI4Nyw1MDkuMzAyOTggMCwtOC42OTk4OSAxLjc3MTA5LDAgMCw3LjIyMTk4IDQuNDAzNzksMCAwLDEuNDc3OTEgeiIgaWQ9InBhdGg1MTU3IiBzdHlsZT0iZm9udC12YXJpYW50Om5vcm1hbDtmb250LXdlaWdodDpib2xkO2ZvbnQtc3RyZXRjaDpub3JtYWw7ZmlsbDojYmJiYmJiO2ZpbGwtb3BhY2l0eToxO2ZvbnQtZmFtaWx5OkFyaWFsOy1pbmtzY2FwZS1mb250LXNwZWNpZmljYXRpb246QXJpYWwgQm9sZCIgaW5rc2NhcGU6Y29ubmVjdG9yLWN1cnZhdHVyZT0iMCIvPiYjeGE7ICAgICAgPHBhdGggZD0ibSAxMjQuMzIyMjIsNTAwLjUzMTI5IDMuNTA2MjgsMCBjIDAuNjk0MDgsMTBlLTYgMS4yMTE2NCwwLjAyODkgMS41NTI3LDAuMDg2OCAwLjM0MTA1LDAuMDU3OSAwLjY0NjIsMC4xNzg1MSAwLjkxNTQ2LDAuMzYyIDAuMjY5MjUsMC4xODM1IDAuNDkzNjMsMC40Mjc4MiAwLjY3MzE0LDAuNzMyOTYgMC4xNzk0OSwwLjMwNTE3IDAuMjY5MjQsMC42NDcyMiAwLjI2OTI1LDEuMDI2MTYgLTFlLTUsMC40MTA4NyAtMC4xMTA3LDAuNzg3ODIgLTAuMzMyMDgsMS4xMzA4NyAtMC4yMjEzOSwwLjM0MzA1IC0wLjUyMTU2LDAuNjAwMzQgLTAuOTAwNSwwLjc3MTg2IDAuNTM0NTEsMC4xNTU1NyAwLjk0NTM3LDAuNDIwODMgMS4yMzI1OCwwLjc5NTc5IDAuMjg3MiwwLjM3NDk3IDAuNDMwOCwwLjgxNTc0IDAuNDMwODEsMS4zMjIzNCAtMWUtNSwwLjM5ODg5IC0wLjA5MjcsMC43ODY4MiAtMC4yNzgyMywxLjE2Mzc3IC0wLjE4NTQ5LDAuMzc2OTYgLTAuNDM4NzksMC42NzgxMiAtMC43NTk4OSwwLjkwMzUgLTAuMzIxMTIsMC4yMjUzNyAtMC43MTcwMiwwLjM2Mzk5IC0xLjE4NzcxLDAuNDE1ODQgLTAuMjk1MTksMC4wMzE5IC0xLjAwNzIyLDAuMDUxOSAtMi4xMzYwOCwwLjA1OTggbCAtMi45ODU3MywwIHogbSAxLjc3MTA5LDEuNDU5OTUgMCwyLjAyODM4IDEuMTYwNzksMCBjIDAuNjkwMDgsMWUtNSAxLjExODg5LC0wLjAxIDEuMjg2NDMsLTAuMDI5OSAwLjMwMzE2LC0wLjAzNTkgMC41NDE0OSwtMC4xNDA2IDAuNzE1MDIsLTAuMzE0MTMgMC4xNzM1MSwtMC4xNzM1MSAwLjI2MDI3LC0wLjQwMTg4IDAuMjYwMjgsLTAuNjg1MSAtMWUtNSwtMC4yNzEyNCAtMC4wNzQ4LC0wLjQ5MTYzIC0wLjIyNDM4LC0wLjY2MTE2IC0wLjE0OTU5LC0wLjE2OTUzIC0wLjM3MTk3LC0wLjI3MjI0IC0wLjY2NzE1LC0wLjMwODE1IC0wLjE3NTUyLC0wLjAxOTkgLTAuNjgwMTIsLTAuMDI5OSAtMS41MTM4MSwtMC4wMjk5IHogbSAwLDMuNDg4MzQgMCwyLjM0NTQ5IDEuNjM5NDYsMCBjIDAuNjM4MjMsMWUtNSAxLjA0MzEsLTAuMDE3OSAxLjIxNDYzLC0wLjA1MzggMC4yNjMyNywtMC4wNDc5IDAuNDc3NjcsLTAuMTY0NTQgMC42NDMyMiwtMC4zNTAwMyAwLjE2NTU0LC0wLjE4NTQ4IDAuMjQ4MzEsLTAuNDMzNzkgMC4yNDgzMSwtMC43NDQ5MyAwLC0wLjI2MzI3IC0wLjA2MzgsLTAuNDg2NjUgLTAuMTkxNDcsLTAuNjcwMTQgLTAuMTI3NjUsLTAuMTgzNDkgLTAuMzEyMTQsLTAuMzE3MTIgLTAuNTUzNDYsLTAuNDAwODkgLTAuMjQxMzQsLTAuMDgzOCAtMC43NjQ4OSwtMC4xMjU2NSAtMS41NzA2NSwtMC4xMjU2NSB6IiBpZD0icGF0aDUxNTkiIHN0eWxlPSJmb250LXZhcmlhbnQ6bm9ybWFsO2ZvbnQtd2VpZ2h0OmJvbGQ7Zm9udC1zdHJldGNoOm5vcm1hbDtmaWxsOiNiYmJiYmI7ZmlsbC1vcGFjaXR5OjE7Zm9udC1mYW1pbHk6QXJpYWw7LWlua3NjYXBlLWZvbnQtc3BlY2lmaWNhdGlvbjpBcmlhbCBCb2xkIiBpbmtzY2FwZTpjb25uZWN0b3ItY3VydmF0dXJlPSIwIi8+JiN4YTsgICAgPC9nPiYjeGE7ICAgIDxnIHRyYW5zZm9ybT0ic2NhbGUoMS4yNTAyOTQ4LDAuNzk5ODExMzcpIiBpZD0idGV4dDUxNDQiIHN0eWxlPSJmb250LXNpemU6MTEuNjYyNjczOTVweDtmb250LXN0eWxlOm5vcm1hbDtmb250LXdlaWdodDpub3JtYWw7bGluZS1oZWlnaHQ6MTI1JTtsZXR0ZXItc3BhY2luZzowcHg7d29yZC1zcGFjaW5nOjBweDtmaWxsOiNiYmJiYmI7ZmlsbC1vcGFjaXR5OjE7c3Ryb2tlOm5vbmU7Zm9udC1mYW1pbHk6Qml0c3RyZWFtIFZlcmEgU2FucyI+JiN4YTsgICAgICA8cGF0aCBkPSJtIDE0OC45NzY3NSw0NTAuNjE1ODEgMCwtOC4yODAwNCAxLjY4NTYyLDAgMCw2Ljg3MzQ2IDQuMTkxMjcsMCAwLDEuNDA2NTggeiIgaWQ9InBhdGg1MTYyIiBzdHlsZT0iZm9udC12YXJpYW50Om5vcm1hbDtmb250LXdlaWdodDpib2xkO2ZvbnQtc3RyZXRjaDpub3JtYWw7ZmlsbDojYmJiYmJiO2ZpbGwtb3BhY2l0eToxO2ZvbnQtZmFtaWx5OkFyaWFsOy1pbmtzY2FwZS1mb250LXNwZWNpZmljYXRpb246QXJpYWwgQm9sZCIgaW5rc2NhcGU6Y29ubmVjdG9yLWN1cnZhdHVyZT0iMCIvPiYjeGE7ICAgICAgPHBhdGggZD0ibSAxNTcuOTQwMTUsNDUwLjYxNTgxIDAsLTYuOTM2MSAtMi40NzcxOCwwIDAsLTEuNDEyMjcgNi42MzQyOSwwIDAsMS40MTIyNyAtMi40NzE0OSwwIDAsNi45MzYxIHoiIGlkPSJwYXRoNTE2NCIgc3R5bGU9ImZvbnQtdmFyaWFudDpub3JtYWw7Zm9udC13ZWlnaHQ6Ym9sZDtmb250LXN0cmV0Y2g6bm9ybWFsO2ZpbGw6I2JiYmJiYjtmaWxsLW9wYWNpdHk6MTtmb250LWZhbWlseTpBcmlhbDstaW5rc2NhcGUtZm9udC1zcGVjaWZpY2F0aW9uOkFyaWFsIEJvbGQiIGlua3NjYXBlOmNvbm5lY3Rvci1jdXJ2YXR1cmU9IjAiLz4mI3hhOyAgICA8L2c+JiN4YTsgICAgPGcgdHJhbnNmb3JtPSJzY2FsZSgxLjI1MDI5NDgsMC43OTk4MTEzNykiIGlkPSJ0ZXh0NTE0OCIgc3R5bGU9ImZvbnQtc2l6ZToxMS42NjI2NzM5NXB4O2ZvbnQtc3R5bGU6bm9ybWFsO2ZvbnQtd2VpZ2h0Om5vcm1hbDtsaW5lLWhlaWdodDoxMjUlO2xldHRlci1zcGFjaW5nOjBweDt3b3JkLXNwYWNpbmc6MHB4O2ZpbGw6I2JiYmJiYjtmaWxsLW9wYWNpdHk6MTtzdHJva2U6bm9uZTtmb250LWZhbWlseTpCaXRzdHJlYW0gVmVyYSBTYW5zIj4mI3hhOyAgICAgIDxwYXRoIGQ9Im0gNDUwLjk1Njg2LDQ1MC45NDI3OCAwLC04LjM0ODM4IDMuNTQ3NzgsMCBjIDAuODkyMTYsMTBlLTYgMS41NDA0LDAuMDc1IDEuOTQ0NzMsMC4yMjQ5NCAwLjQwNDMxLDAuMTQ5OTcgMC43Mjc5NiwwLjQxNjY3IDAuOTcwOTQsMC44MDAxIDAuMjQyOTYsMC4zODM0NSAwLjM2NDQ1LDAuODIxOTQgMC4zNjQ0NSwxLjMxNTQ3IDAsMC42MjY0MiAtMC4xODQxMywxLjE0MzY4IC0wLjU1MjM4LDEuNTUxNzkgLTAuMzY4MjYsMC40MDgxMyAtMC45MTg3NCwwLjY2NTMzIC0xLjY1MTQ1LDAuNzcxNjMgMC4zNjQ0NSwwLjIxMjYxIDAuNjY1MzIsMC40NDYwOSAwLjkwMjYsMC43MDA0NSAwLjIzNzI3LDAuMjU0MzYgMC41NTcxMiwwLjcwNjE0IDAuOTU5NTUsMS4zNTUzMyBsIDEuMDE5MzUsMS42Mjg2NyAtMi4wMTU5MSwwIC0xLjIxODY2LC0xLjgxNjYgYyAtMC40MzI4LC0wLjY0OTE5IC0wLjcyODkyLC0xLjA1ODI1IC0wLjg4ODM3LC0xLjIyNzIgLTAuMTU5NDUsLTAuMTY4OTQgLTAuMzI4MzksLTAuMjg0NzMgLTAuNTA2ODIsLTAuMzQ3MzcgLTAuMTc4NDQsLTAuMDYyNiAtMC40NjEyNywtMC4wOTQgLTAuODQ4NTEsLTAuMDk0IGwgLTAuMzQxNjgsMCAwLDMuNDg1MTQgeiBtIDEuNjg1NjIsLTQuODE3NjkgMS4yNDcxMywwIGMgMC44MDg2NCwxMGUtNiAxLjMxMzU3LC0wLjAzNDIgMS41MTQ3OCwtMC4xMDI1IDAuMjAxMjEsLTAuMDY4MyAwLjM1ODc2LC0wLjE4NjAyIDAuNDcyNjYsLTAuMzUzMDcgMC4xMTM4OSwtMC4xNjcwNCAwLjE3MDg0LC0wLjM3NTg0IDAuMTcwODQsLTAuNjI2NDEgMCwtMC4yODA5MyAtMC4wNzUsLTAuNTA3NzcgLTAuMjI0OTQsLTAuNjgwNTIgLTAuMTQ5OTYsLTAuMTcyNzMgLTAuMzYxNjEsLTAuMjgxODcgLTAuNjM0OTUsLTAuMzI3NDQgLTAuMTM2NjgsLTAuMDE5IC0wLjU0NjcsLTAuMDI4NSAtMS4yMzAwNSwtMC4wMjg1IGwgLTEuMzE1NDcsMCB6IiBpZD0icGF0aDUxNjciIHN0eWxlPSJmb250LXZhcmlhbnQ6bm9ybWFsO2ZvbnQtd2VpZ2h0OmJvbGQ7Zm9udC1zdHJldGNoOm5vcm1hbDtmaWxsOiNiYmJiYmI7ZmlsbC1vcGFjaXR5OjE7Zm9udC1mYW1pbHk6QXJpYWw7LWlua3NjYXBlLWZvbnQtc3BlY2lmaWNhdGlvbjpBcmlhbCBCb2xkIiBpbmtzY2FwZTpjb25uZWN0b3ItY3VydmF0dXJlPSIwIi8+JiN4YTsgICAgICA8cGF0aCBkPSJtIDQ2MS4yNTg1MSw0NTAuOTQyNzggMCwtNi45MzYxIC0yLjQ3NzE4LDAgMCwtMS40MTIyOCA2LjYzNDI5LDAgMCwxLjQxMjI4IC0yLjQ3MTQ5LDAgMCw2LjkzNjEgeiIgaWQ9InBhdGg1MTY5IiBzdHlsZT0iZm9udC12YXJpYW50Om5vcm1hbDtmb250LXdlaWdodDpib2xkO2ZvbnQtc3RyZXRjaDpub3JtYWw7ZmlsbDojYmJiYmJiO2ZpbGwtb3BhY2l0eToxO2ZvbnQtZmFtaWx5OkFyaWFsOy1pbmtzY2FwZS1mb250LXNwZWNpZmljYXRpb246QXJpYWwgQm9sZCIgaW5rc2NhcGU6Y29ubmVjdG9yLWN1cnZhdHVyZT0iMCIvPiYjeGE7ICAgIDwvZz4mI3hhOyAgICA8cGF0aCBkPSJtIDY0NS45NzE5Myw0MDEuNjE2NTYgNC4zNzcxNiwtMC4yNjUzOSBjIDAsMCAwLjcxMjg4LC05LjY0MDU5IC0xMy41NDQwOSwtMTUuNzEwNiAtMTQuMjU2NzcsLTYuMDcgLTI2LjM3NTEsLTEzLjc0Njc3IC00Mi45NDg3NSwtMTcuMTM4ODQgLTE2LjU3MzY1LC0zLjM5MjA2IC0yNi41NTM0NSwtNC4yODQ3IC0zNC41NzI5NiwtNC4xMDYxNyAtOC4wMTk1MSwwLjE3ODUyIC0xOC45NDI3OCwwLjkzOTQ5IC0yMC4zNjg1MiwxLjQ3NTA4IDAuNjYyNzksMy40MTAwOSAwLjQ2MzUsNy4wMTUwNCAxLjI0MTI3LDkuNzY5NDYgbCAwLjg4NDU1LDQuNzI4ODUgYyAwLDAgMi40NzQwNiwtMi43NjU3NyAzNi4xNTU5OCwxLjg3NiAzMy42ODE5NCw0LjY0MTc3IDM2LjYwNjk5LDYuNjA0ODQgMzYuNjA2OTksNi42MDQ4NCAwLDAgMTAuMzE1OTUsNC4wOTg5MiAxMS42MzM0Myw0LjU1MTAzIDMuMTIyODQsMS4wNzE2MyAyMC41MzQ5Niw4LjIxNTc0IDIwLjUzNDk2LDguMjE1NzQgeiIgaWQ9InBhdGg1MTc4IiBzdHlsZT0iZmlsbDojZjhmOGY4O2ZpbGwtb3BhY2l0eToxO3N0cm9rZTojMDAwMDAwO3N0cm9rZS13aWR0aDowLjk5OTAwMDAxO3N0cm9rZS1saW5lY2FwOmJ1dHQ7c3Ryb2tlLWxpbmVqb2luOm1pdGVyO3N0cm9rZS1taXRlcmxpbWl0OjQ7c3Ryb2tlLW9wYWNpdHk6MTtzdHJva2UtZGFzaGFycmF5Om5vbmUiIGlua3NjYXBlOmNvbm5lY3Rvci1jdXJ2YXR1cmU9IjAiLz4mI3hhOyAgICA8ZyB0cmFuc2Zvcm09Im1hdHJpeCgxLjMxMjg1OTIsMC4wNDY3NjY0NywtMC4wMjcwOTg2NSwwLjc2MDczMDk5LDAsMCkiIGlkPSJ0ZXh0NTE1MiIgc3R5bGU9ImZvbnQtc2l6ZToxMi4yNTQwMzc4NnB4O2ZvbnQtc3R5bGU6bm9ybWFsO2ZvbnQtd2VpZ2h0Om5vcm1hbDtsaW5lLWhlaWdodDoxMjUlO2xldHRlci1zcGFjaW5nOjBweDt3b3JkLXNwYWNpbmc6MHB4O2ZpbGw6I2JiYmJiYjtmaWxsLW9wYWNpdHk6MTtzdHJva2U6bm9uZTtmb250LWZhbWlseTpCaXRzdHJlYW0gVmVyYSBTYW5zIj4mI3hhOyAgICAgIDxwYXRoIGQ9Im0gNDQxLjQ5ODYyLDQ2NS42MjgyIDAsLTguNzcxNjggMy43Mjc2NywwIGMgMC45MzczOSwwIDEuNjE4NSwwLjA3ODggMi4wNDMzMywwLjIzNjM0IDAuNDI0ODIsMC4xNTc1NyAwLjc2NDg4LDAuNDM3NzkgMS4wMjAxOCwwLjg0MDY3IDAuMjU1MjgsMC40MDI4OSAwLjM4MjkzLDAuODYzNjEgMC4zODI5MywxLjM4MjE3IDAsMC42NTgxOCAtMC4xOTM0NywxLjIwMTY3IC0wLjU4MDM5LDEuNjMwNDggLTAuMzg2OTMsMC40Mjg4MiAtMC45NjUzMywwLjY5OTA3IC0xLjczNTE5LDAuODEwNzUgMC4zODI5MywwLjIyMzM5IDAuNjk5MDYsMC40Njg3MSAwLjk0ODM3LDAuNzM1OTYgMC4yNDkzMSwwLjI2NzI3IDAuNTg1MzcsMC43NDE5NSAxLjAwODIxLDEuNDI0MDYgbCAxLjA3MTAzLDEuNzExMjUgLTIuMTE4MTMsMCAtMS4yODA0NSwtMS45MDg3MSBjIC0wLjQ1NDc0LC0wLjY4MjEgLTAuNzY1ODgsLTEuMTExOTEgLTAuOTMzNDEsLTEuMjg5NDIgLTAuMTY3NTQsLTAuMTc3NTEgLTAuMzQ1MDUsLTAuMjk5MTcgLTAuNTMyNTMsLTAuMzY0OTkgLTAuMTg3NDgsLTAuMDY1OCAtMC40ODQ2NiwtMC4wOTg3IC0wLjg5MTUzLC0wLjA5ODcgbCAtMC4zNTksMCAwLDMuNjYxODUgeiBtIDEuNzcxMDksLTUuMDYxOTcgMS4zMTAzNywwIGMgMC44NDk2NCwxMGUtNiAxLjM4MDE3LC0wLjAzNTkgMS41OTE1OSwtMC4xMDc3IDAuMjExNCwtMC4wNzE4IDAuMzc2OTUsLTAuMTk1NDUgMC40OTY2MiwtMC4zNzA5NyAwLjExOTY2LC0wLjE3NTUxIDAuMTc5NSwtMC4zOTQ5IDAuMTc5NSwtMC42NTgxOCAwLC0wLjI5NTE3IC0wLjA3ODgsLTAuNTMzNTEgLTAuMjM2MzQsLTAuNzE1MDEgLTAuMTU3NTcsLTAuMTgxNDkgLTAuMzc5OTYsLTAuMjk2MTggLTAuNjY3MTUsLTAuMzQ0MDUgLTAuMTQzNjEsLTAuMDE5OSAtMC41NzQ0MiwtMC4wMjk5IC0xLjI5MjQyLC0wLjAyOTkgbCAtMS4zODIxNywwIHoiIGlkPSJwYXRoNTE3MiIgc3R5bGU9ImZvbnQtdmFyaWFudDpub3JtYWw7Zm9udC13ZWlnaHQ6Ym9sZDtmb250LXN0cmV0Y2g6bm9ybWFsO2ZpbGw6I2JiYmJiYjtmaWxsLW9wYWNpdHk6MTtmb250LWZhbWlseTpBcmlhbDstaW5rc2NhcGUtZm9udC1zcGVjaWZpY2F0aW9uOkFyaWFsIEJvbGQiIGlua3NjYXBlOmNvbm5lY3Rvci1jdXJ2YXR1cmU9IjAiLz4mI3hhOyAgICAgIDxwYXRoIGQ9Im0gNDUwLjM1NDA3LDQ1Ni44NTY1MiAzLjUwNjI5LDAgYyAwLjY5NDA3LDAgMS4yMTE2MywwLjAyODkgMS41NTI2OSwwLjA4NjcgMC4zNDEwNSwwLjA1NzkgMC42NDYyMSwwLjE3ODUyIDAuOTE1NDcsMC4zNjIgMC4yNjkyNCwwLjE4MzUgMC40OTM2MiwwLjQyNzgyIDAuNjczMTMsMC43MzI5NyAwLjE3OTUsMC4zMDUxNiAwLjI2OTI1LDAuNjQ3MjEgMC4yNjkyNSwxLjAyNjE2IDAsMC40MTA4NiAtMC4xMTA3LDAuNzg3ODIgLTAuMzMyMDgsMS4xMzA4NiAtMC4yMjEzOSwwLjM0MzA2IC0wLjUyMTU2LDAuNjAwMzQgLTAuOTAwNSwwLjc3MTg2IDAuNTM0NTEsMC4xNTU1OCAwLjk0NTM3LDAuNDIwODQgMS4yMzI1OCwwLjc5NTggMC4yODcyLDAuMzc0OTYgMC40MzA4LDAuODE1NzQgMC40MzA4MSwxLjMyMjMzIC0xMGUtNiwwLjM5ODkgLTAuMDkyNywwLjc4NjgyIC0wLjI3ODIzLDEuMTYzNzggLTAuMTg1NDksMC4zNzY5NSAtMC40Mzg3OSwwLjY3ODEyIC0wLjc1OTg5LDAuOTAzNDkgLTAuMzIxMTIsMC4yMjUzOCAtMC43MTcwMiwwLjM2Mzk5IC0xLjE4NzcxLDAuNDE1ODUgLTAuMjk1MTksMC4wMzE5IC0xLjAwNzIxLDAuMDUxOSAtMi4xMzYwOCwwLjA1OTggbCAtMi45ODU3MywwIHogbSAxLjc3MTEsMS40NTk5NSAwLDIuMDI4MzggMS4xNjA3OCwwIGMgMC42OTAwOCwwIDEuMTE4ODksLTAuMDEgMS4yODY0MywtMC4wMjk5IDAuMzAzMTYsLTAuMDM1OSAwLjU0MTUsLTAuMTQwNiAwLjcxNTAyLC0wLjMxNDEzIDAuMTczNTEsLTAuMTczNTEgMC4yNjAyNywtMC40MDE4OCAwLjI2MDI4LC0wLjY4NTEgLTFlLTUsLTAuMjcxMjQgLTAuMDc0OCwtMC40OTE2MyAtMC4yMjQzOCwtMC42NjExNyAtMC4xNDk1OSwtMC4xNjk1MiAtMC4zNzE5NywtMC4yNzIyNCAtMC42NjcxNSwtMC4zMDgxNCAtMC4xNzU1MiwtMC4wMTk5IC0wLjY4MDEyLC0wLjAyOTkgLTEuNTEzOCwtMC4wMjk5IHogbSAwLDMuNDg4MzMgMCwyLjM0NTUgMS42Mzk0NSwwIGMgMC42MzgyMywwIDEuMDQzMTEsLTAuMDE4IDEuMjE0NjQsLTAuMDUzOSAwLjI2MzI2LC0wLjA0NzkgMC40Nzc2NywtMC4xNjQ1NCAwLjY0MzIxLC0wLjM1MDAzIDAuMTY1NTQsLTAuMTg1NDggMC4yNDgzMSwtMC40MzM4IDAuMjQ4MzEsLTAuNzQ0OTQgMCwtMC4yNjMyNiAtMC4wNjM4LC0wLjQ4NjY0IC0wLjE5MTQ2LC0wLjY3MDE0IC0wLjEyNzY2LC0wLjE4MzQ5IC0wLjMxMjE1LC0wLjMxNzEyIC0wLjU1MzQ3LC0wLjQwMDg5IC0wLjI0MTM0LC0wLjA4MzggLTAuNzY0ODksLTAuMTI1NjUgLTEuNTcwNjUsLTAuMTI1NjUgeiIgaWQ9InBhdGg1MTc0IiBzdHlsZT0iZm9udC12YXJpYW50Om5vcm1hbDtmb250LXdlaWdodDpib2xkO2ZvbnQtc3RyZXRjaDpub3JtYWw7ZmlsbDojYmJiYmJiO2ZpbGwtb3BhY2l0eToxO2ZvbnQtZmFtaWx5OkFyaWFsOy1pbmtzY2FwZS1mb250LXNwZWNpZmljYXRpb246QXJpYWwgQm9sZCIgaW5rc2NhcGU6Y29ubmVjdG9yLWN1cnZhdHVyZT0iMCIvPiYjeGE7ICAgIDwvZz4mI3hhOyAgICA8ZyB0cmFuc2Zvcm09Im1hdHJpeCgxLjAxNjYyMzUsMCwwLDAuOTgzNjQ4MzQsLTAuMTI2MjY5MDcsMS4yNjI2OTA3KSIgaWQ9Imc1MjAyIiBzdHlsZT0iZm9udC1zaXplOjMyLjgzODQ3MDQ2cHg7Zm9udC1zdHlsZTpub3JtYWw7Zm9udC13ZWlnaHQ6Ym9sZDtsaW5lLWhlaWdodDoxMjUlO2xldHRlci1zcGFjaW5nOjBweDt3b3JkLXNwYWNpbmc6MHB4O2ZpbGw6Izg1YTdmZjtmaWxsLW9wYWNpdHk6MTtzdHJva2U6bm9uZTtmb250LWZhbWlseTpCaXRzdHJlYW0gVmVyYSBTYW5zOy1pbmtzY2FwZS1mb250LXNwZWNpZmljYXRpb246Qml0c3RyZWFtIFZlcmEgU2FucyBCb2xkIj4mI3hhOyAgICAgIDxwYXRoIGQ9Im0gNTI4LjAxMjc1LDUyNC43ODQ2NSA4LjMwNTgzLDEyLjIxODIyIC02LjQyOTgsMCAtNS41OTYwMSwtOC4xNzc1NSAtNS41NDc5MSw4LjE3NzU1IC02LjQ2MTg2LDAgOC4zMDU4MiwtMTIuMjE4MjIgLTcuOTg1MTQsLTExLjcyMTE1IDYuNDQ1ODQsMCA1LjI0MzI1LDcuNzEyNTUgNS4yMjcyMiwtNy43MTI1NSA2LjQ3NzksMCB6IiBpZD0icGF0aDUyMDQiIHN0eWxlPSJmaWxsOiM4NWE3ZmY7ZmlsbC1vcGFjaXR5OjEiIGlua3NjYXBlOmNvbm5lY3Rvci1jdXJ2YXR1cmU9IjAiLz4mI3hhOyAgICA8L2c+JiN4YTsgICAgPGcgdHJhbnNmb3JtPSJtYXRyaXgoMS4wMTY2MjM1LDAsMCwwLjk4MzY0ODMzLDAuMTc4NTcxNDMsMS42NDE0OTc5KSIgaWQ9Imc1MjA2IiBzdHlsZT0iZm9udC1zaXplOjMyLjgzODQ3MDQ2cHg7Zm9udC1zdHlsZTpub3JtYWw7Zm9udC13ZWlnaHQ6Ym9sZDtsaW5lLWhlaWdodDoxMjUlO2xldHRlci1zcGFjaW5nOjBweDt3b3JkLXNwYWNpbmc6MHB4O2ZpbGw6I2ZmZjljMTtmaWxsLW9wYWNpdHk6MTtzdHJva2U6bm9uZTtmb250LWZhbWlseTpCaXRzdHJlYW0gVmVyYSBTYW5zOy1pbmtzY2FwZS1mb250LXNwZWNpZmljYXRpb246Qml0c3RyZWFtIFZlcmEgU2FucyBCb2xkIj4mI3hhOyAgICAgIDxwYXRoIGQ9Im0gNTY5LjIxNjE4LDQ2Ni43MjI2MSA2Ljc1MDQ4LDAgNS40NTE3LDguNTMwMzEgNS40NTE3LC04LjUzMDMxIDYuNzY2NTIsMCAtOS4xMjM1OCwxMy44NTM3MyAwLDEwLjA4NTY1IC02LjE3MzI0LDAgMCwtMTAuMDg1NjUgeiIgaWQ9InBhdGg1MjA4IiBzdHlsZT0iZmlsbDojZmZmOWMxO2ZpbGwtb3BhY2l0eToxIiBpbmtzY2FwZTpjb25uZWN0b3ItY3VydmF0dXJlPSIwIi8+JiN4YTsgICAgPC9nPiYjeGE7ICAgIDxnIHRyYW5zZm9ybT0ibWF0cml4KDEuMDE2NjIzNSwwLDAsMC45ODM2NDgzNywwLjg1MTM4Njk2LDEuNDMwNDMpIiBpZD0iZzUyMTAiIHN0eWxlPSJmb250LXNpemU6MzIuODM4NDcwNDZweDtmb250LXN0eWxlOm5vcm1hbDtmb250LXdlaWdodDpib2xkO2xpbmUtaGVpZ2h0OjEyNSU7bGV0dGVyLXNwYWNpbmc6MHB4O3dvcmQtc3BhY2luZzowcHg7ZmlsbDojYWRmZjkyO2ZpbGwtb3BhY2l0eToxO3N0cm9rZTpub25lO2ZvbnQtZmFtaWx5OkJpdHN0cmVhbSBWZXJhIFNhbnM7LWlua3NjYXBlLWZvbnQtc3BlY2lmaWNhdGlvbjpCaXRzdHJlYW0gVmVyYSBTYW5zIEJvbGQiPiYjeGE7ICAgICAgPHBhdGggZD0ibSA1ODAuMjQ3MjcsNTc2LjI4NjY1IC05LjY1MjcxLDAgLTEuNTIzMjcsNC4zNjEzNiAtNi4yMDUzMiwwIDguODY3MDMsLTIzLjkzOTM3IDcuMzU5NzksMCA4Ljg2NzAzLDIzLjkzOTM3IC02LjIwNTMxLDAgeiBtIC04LjExMzQxLC00LjQ0MTUzIDYuNTU4MDcsMCAtMy4yNzEwMiwtOS41MjQ0NCB6IiBpZD0icGF0aDUyMTIiIHN0eWxlPSJmaWxsOiNhZGZmOTI7ZmlsbC1vcGFjaXR5OjEiIGlua3NjYXBlOmNvbm5lY3Rvci1jdXJ2YXR1cmU9IjAiLz4mI3hhOyAgICA8L2c+JiN4YTsgICAgPGcgdHJhbnNmb3JtPSJtYXRyaXgoMS4wMTY1MzMzLDAuMDEzNTQ0MDEsLTAuMDEzMTA0NywwLjk4MzU2MTAxLDAuOTQ3MDE3OTYsMC41MDUwNzYyOSkiIGlkPSJnNTIxNCIgc3R5bGU9ImZvbnQtc2l6ZTozMy40NDc5MjE3NXB4O2ZvbnQtc3R5bGU6bm9ybWFsO2ZvbnQtd2VpZ2h0OmJvbGQ7bGluZS1oZWlnaHQ6MTI1JTtsZXR0ZXItc3BhY2luZzowcHg7d29yZC1zcGFjaW5nOjBweDtmaWxsOiNmZmExOWI7ZmlsbC1vcGFjaXR5OjE7c3Ryb2tlOm5vbmU7Zm9udC1mYW1pbHk6Qml0c3RyZWFtIFZlcmEgU2FuczstaW5rc2NhcGUtZm9udC1zcGVjaWZpY2F0aW9uOkJpdHN0cmVhbSBWZXJhIFNhbnMgQm9sZCI+JiN4YTsgICAgICA8cGF0aCBkPSJtIDY0MC45MTAzNyw1MTAuNDQ5NTQgYyAwLjk5MDgsMTBlLTYgMS43NDIwNywtMC4yMTc3NSAyLjI1MzgyLC0wLjY1MzI4IDAuNTExNzIsLTAuNDM1NTEgMC43Njc1OCwtMS4wNzc5IDAuNzY3NiwtMS45MjcxOCAtMmUtNSwtMC44MzgzNiAtMC4yNTU4OCwtMS40NzgwMiAtMC43Njc2LC0xLjkxOTAxIC0wLjUxMTc1LC0wLjQ0MDk0IC0xLjI2MzAyLC0wLjY2MTQyIC0yLjI1MzgyLC0wLjY2MTQ0IGwgLTMuNDc4NzEsMCAwLDUuMTYwOTEgeiBtIDAuMjEyMzIsMTAuNjY0NzkgYyAxLjI2Mjk5LDAgMi4yMTI5NywtMC4yNjY3NSAyLjg0OTkzLC0wLjgwMDI3IDAuNjM2OTMsLTAuNTMzNTEgMC45NTU0MSwtMS4zMzkyMiAwLjk1NTQyLC0yLjQxNzEzIC0xMGUtNiwtMS4wNTYxMyAtMC4zMTU3NywtMS44NDgyMyAtMC45NDcyNSwtMi4zNzYzMSAtMC42MzE1MiwtMC41MjgwNiAtMS41ODQyMiwtMC43OTIwOSAtMi44NTgxLC0wLjc5MjEgbCAtMy42OTEwMywwIDAsNi4zODU4MSB6IG0gNS44NDY4NSwtOC43NzAyOCBjIDEuMzUwMDksMC4zOTE5OCAyLjM5NTM0LDEuMTE2MDMgMy4xMzU3NCwyLjE3MjE1IDAuNzQwMzYsMS4wNTYxNSAxLjExMDU2LDIuMzUxODIgMS4xMTA1OCwzLjg4NzAyIC0yZS01LDIuMzUxODEgLTAuNzk0ODUsNC4xMDQ3NyAtMi4zODQ0Nyw1LjI1ODkgLTEuNTg5NjcsMS4xNTQxMyAtNC4wMDY4LDEuNzMxMTkgLTcuMjUxNDEsMS43MzExOSBsIC0xMC40MzYxNCwwIDAsLTI0LjM4MzY3IDkuNDM5ODksMCBjIDMuMzg2MTUsM2UtNSA1LjgzODY3LDAuNTExNzYgNy4zNTc1NiwxLjUzNTIxIDEuNTE4ODYsMS4wMjM1IDIuMjc4MywyLjY2MjE0IDIuMjc4MzIsNC45MTU5MyAtMmUtNSwxLjE4NjgxIC0wLjI3NzY3LDIuMTk2NjcgLTAuODMyOTMsMy4wMjk1OSAtMC41NTUzMSwwLjgzMjk0IC0xLjM2MTAyLDEuNDUwODQgLTIuNDE3MTQsMS44NTM2OCB6IiBpZD0icGF0aDUyMTYiIHN0eWxlPSJmaWxsOiNmZmExOWI7ZmlsbC1vcGFjaXR5OjEiIGlua3NjYXBlOmNvbm5lY3Rvci1jdXJ2YXR1cmU9IjAiLz4mI3hhOyAgICA8L2c+JiN4YTsgICAgPHBhdGggZD0ibSAyNzguNDAyMTIsNTg0LjI2Mzk3IDEwLjI2ODk2LDAuNDg2MSBjIDAsMCAzLjA5ODkxLDEuMjE1MjcgMy42NDU3OSw0LjI1MzQyIDAuNDAyMTksMi4yMzQzOSAyLjc5NTEsMTMuNjEwOTQgMy41MjQyNSwxNC4yMTg1NyAwLjcyOTE3LDAuNjA3NjMgNC4wMTAzNyw2LjMxOTM2IDYuOTI3LDYuNjgzOTMgMi45MTY2MywwLjM2NDU4IDIyLjQ4MjM1LDMuMTU5NjkgMjMuNjk3NjEsNC4yNTM0MiAxLjIxNTI2LDEuMDkzNzQgMy4wMzgxNSw1LjgzMzI2IDMuMDM4MTUsNS44MzMyNiBsIDAuMjQzMDUsMTEuNzg4MDQgYyAwLDAgLTAuNzI5MTUsMy42NDU3OSAtMS44MjI4OSw0LjI1MzQxIC0xLjA5MzczLDAuNjA3NjQgLTIxLjI2NzA4LDIuNTUyMDUgLTIxLjI2NzA4LDIuNTUyMDUgMCwwIC02LjA3NjMxLDEuNDU4MzIgLTcuMTcwMDUsNC45ODI1OSAtMS4wOTM3NCwzLjUyNDI1IC0zLjI4MTIxLDE4LjEwNzQgLTQuMjUzNDEsMTkuMDc5NiAtMC45NzIyMiwwLjk3MjIxIC0yLjMwOSwzLjAzODE2IC01LjEwNDEsMy40MDI3MyAtMi43OTUxMSwwLjM2NDU5IC0xNi41Mjc1NywwLjYwNzY0IC0xNi41Mjc1NywwLjYwNzY0IDAsMCAtNS4xMDQxLC0xLjA5MzczIC02LjMxOTM2LC0yLjc5NTEgLTEuMjE1MjYsLTEuNzAxMzcgLTQuMjUzNDIsLTE2Ljc3MDYyIC00LjI1MzQyLC0xNi43NzA2MiAwLDAgLTEuOTQ0NDIsLTUuMzQ3MTUgLTguMDIwNzIsLTYuOTI2OTkgLTYuMDc2MzIsLTEuNTc5ODUgLTE3LjQ5OTc4LC0wLjI0MzA2IC0yMC45MDI1MSwtMS44MjI4OSAtMy40MDI3NCwtMS41Nzk4NCAtNS43MTE3MywtNC40OTY0NyAtNS45NTQ3OSwtNy4wNDg1MiAtMC4yNDMwNSwtMi41NTIwNSAtMS4zMzY3OCwtMTEuNDIzNDYgLTAuODUwNjgsLTEyLjE1MjYzIDAuNDg2MSwtMC43MjkxNSAyLjc5NTExLC01LjEwNDEgNC4xMzE5LC01LjIyNTYyIDEuMzM2NzgsLTAuMTIxNTMgMTkuNjg3MjQsLTIuMTg3NDcgMjEuNzUzMTgsLTMuNzY3MzEgMi4wNjU5NCwtMS41Nzk4NSA2LjY4Mzk1LC01LjIyNTYzIDYuOTI3LC03LjY1NjE1IDAuMjQzMDQsLTIuNDMwNTIgMS4zMDc4NywtMTYuMDk0NDkgMi4yNDgyMiwtMTYuMTAyMjMgMC43NzI3MSwtMC43MDEzIDEuNDIxMTksLTAuOTA0NzYgMi4wMjA3NCwtMS4yMjIxMiAxLjAwODMsLTAuNTMzNzIgMy42NDk2NywtMC42NzM5NiA3LjAzMjk3LC0wLjcyMjMgNC4yNTM0MSwtMC4wNjA3IDYuOTg3NzYsLTAuMTgyMjggNi45ODc3NiwtMC4xODIyOCB6IiBpZD0icGF0aDUyMTgiIHN0eWxlPSJmaWxsOiM4Njg2ODY7ZmlsbC1vcGFjaXR5OjE7c3Ryb2tlOiMwMDAwMDA7c3Ryb2tlLXdpZHRoOjAuOTYyNDM4MzRweDtzdHJva2UtbGluZWNhcDpidXR0O3N0cm9rZS1saW5lam9pbjptaXRlcjtzdHJva2Utb3BhY2l0eToxIiBpbmtzY2FwZTpjb25uZWN0b3ItY3VydmF0dXJlPSIwIi8+JiN4YTsgIDwvZz4mI3hhOzwvc3ZnPg==;" vertex="1" parent="WIyWlLk6GJQsqaUBKTNV-1">
          <mxGeometry x="154" y="150.5" width="520" height="349" as="geometry" />
        </mxCell>
        <mxCell id="WIyWlLk6GJQsqaUBKTNV-2" value="" style="rounded=0;html=1;jettySize=auto;orthogonalLoop=1;fontSize=11;endArrow=block;endFill=0;endSize=8;strokeWidth=1;shadow=0;labelBackgroundColor=none;edgeStyle=orthogonalEdgeStyle;" parent="WIyWlLk6GJQsqaUBKTNV-1" target="WIyWlLk6GJQsqaUBKTNV-6" edge="1">
          <mxGeometry relative="1" as="geometry">
            <mxPoint x="220" y="120" as="sourcePoint" />
          </mxGeometry>
        </mxCell>
        <mxCell id="WIyWlLk6GJQsqaUBKTNV-4" value="Yes" style="rounded=0;html=1;jettySize=auto;orthogonalLoop=1;fontSize=11;endArrow=block;endFill=0;endSize=8;strokeWidth=1;shadow=0;labelBackgroundColor=none;edgeStyle=orthogonalEdgeStyle;" parent="WIyWlLk6GJQsqaUBKTNV-1" target="WIyWlLk6GJQsqaUBKTNV-10" edge="1">
          <mxGeometry y="20" relative="1" as="geometry">
            <mxPoint as="offset" />
            <mxPoint x="220" y="250" as="sourcePoint" />
          </mxGeometry>
        </mxCell>
        <mxCell id="WIyWlLk6GJQsqaUBKTNV-5" value="No" style="edgeStyle=orthogonalEdgeStyle;rounded=0;html=1;jettySize=auto;orthogonalLoop=1;fontSize=11;endArrow=block;endFill=0;endSize=8;strokeWidth=1;shadow=0;labelBackgroundColor=none;" parent="WIyWlLk6GJQsqaUBKTNV-1" target="WIyWlLk6GJQsqaUBKTNV-7" edge="1">
          <mxGeometry y="10" relative="1" as="geometry">
            <mxPoint as="offset" />
            <mxPoint x="270" y="210" as="sourcePoint" />
          </mxGeometry>
        </mxCell>
        <mxCell id="WIyWlLk6GJQsqaUBKTNV-8" value="No" style="rounded=0;html=1;jettySize=auto;orthogonalLoop=1;fontSize=11;endArrow=block;endFill=0;endSize=8;strokeWidth=1;shadow=0;labelBackgroundColor=none;edgeStyle=orthogonalEdgeStyle;" parent="WIyWlLk6GJQsqaUBKTNV-1" target="WIyWlLk6GJQsqaUBKTNV-11" edge="1">
          <mxGeometry x="0.3333" y="20" relative="1" as="geometry">
            <mxPoint as="offset" />
            <mxPoint x="220" y="370" as="sourcePoint" />
          </mxGeometry>
        </mxCell>
        <mxCell id="WIyWlLk6GJQsqaUBKTNV-9" value="Yes" style="edgeStyle=orthogonalEdgeStyle;rounded=0;html=1;jettySize=auto;orthogonalLoop=1;fontSize=11;endArrow=block;endFill=0;endSize=8;strokeWidth=1;shadow=0;labelBackgroundColor=none;" parent="WIyWlLk6GJQsqaUBKTNV-1" source="WIyWlLk6GJQsqaUBKTNV-10" edge="1">
          <mxGeometry y="10" relative="1" as="geometry">
            <mxPoint as="offset" />
            <mxPoint x="320" y="330" as="targetPoint" />
          </mxGeometry>
        </mxCell>
        <mxCell id="5Lu9amcT2PzDgMs-pKjX-71" value="" style="group" vertex="1" connectable="0" parent="WIyWlLk6GJQsqaUBKTNV-1">
          <mxGeometry x="660" y="230" width="160" height="30" as="geometry" />
        </mxCell>
        <mxCell id="5Lu9amcT2PzDgMs-pKjX-72" value="" style="rounded=0;whiteSpace=wrap;html=1;" vertex="1" parent="5Lu9amcT2PzDgMs-pKjX-71">
          <mxGeometry x="40" width="120" height="30" as="geometry" />
        </mxCell>
        <mxCell id="5Lu9amcT2PzDgMs-pKjX-73" value="X" style="rounded=0;whiteSpace=wrap;html=1;" vertex="1" parent="5Lu9amcT2PzDgMs-pKjX-71">
          <mxGeometry width="40" height="30" as="geometry" />
        </mxCell>
        <mxCell id="5Lu9amcT2PzDgMs-pKjX-74" value="" style="group" vertex="1" connectable="0" parent="WIyWlLk6GJQsqaUBKTNV-1">
          <mxGeometry x="660" y="270" width="160" height="30" as="geometry" />
        </mxCell>
        <mxCell id="5Lu9amcT2PzDgMs-pKjX-75" value="" style="rounded=0;whiteSpace=wrap;html=1;" vertex="1" parent="5Lu9amcT2PzDgMs-pKjX-74">
          <mxGeometry x="40" width="120" height="30" as="geometry" />
        </mxCell>
        <mxCell id="5Lu9amcT2PzDgMs-pKjX-76" value="Y" style="rounded=0;whiteSpace=wrap;html=1;" vertex="1" parent="5Lu9amcT2PzDgMs-pKjX-74">
          <mxGeometry width="40" height="30" as="geometry" />
        </mxCell>
        <mxCell id="5Lu9amcT2PzDgMs-pKjX-77" value="" style="group" vertex="1" connectable="0" parent="WIyWlLk6GJQsqaUBKTNV-1">
          <mxGeometry x="660" y="310" width="160" height="30" as="geometry" />
        </mxCell>
        <mxCell id="5Lu9amcT2PzDgMs-pKjX-78" value="" style="rounded=0;whiteSpace=wrap;html=1;" vertex="1" parent="5Lu9amcT2PzDgMs-pKjX-77">
          <mxGeometry x="40" width="120" height="30" as="geometry" />
        </mxCell>
        <mxCell id="5Lu9amcT2PzDgMs-pKjX-79" value="A" style="rounded=0;whiteSpace=wrap;html=1;" vertex="1" parent="5Lu9amcT2PzDgMs-pKjX-77">
          <mxGeometry width="40" height="30" as="geometry" />
        </mxCell>
        <mxCell id="5Lu9amcT2PzDgMs-pKjX-80" value="" style="group" vertex="1" connectable="0" parent="WIyWlLk6GJQsqaUBKTNV-1">
          <mxGeometry x="660" y="350" width="160" height="30" as="geometry" />
        </mxCell>
        <mxCell id="5Lu9amcT2PzDgMs-pKjX-81" value="" style="rounded=0;whiteSpace=wrap;html=1;" vertex="1" parent="5Lu9amcT2PzDgMs-pKjX-80">
          <mxGeometry x="40" width="120" height="30" as="geometry" />
        </mxCell>
        <mxCell id="5Lu9amcT2PzDgMs-pKjX-82" value="B" style="rounded=0;whiteSpace=wrap;html=1;" vertex="1" parent="5Lu9amcT2PzDgMs-pKjX-80">
          <mxGeometry width="40" height="30" as="geometry" />
        </mxCell>
        <mxCell id="5Lu9amcT2PzDgMs-pKjX-83" value="" style="group" vertex="1" connectable="0" parent="WIyWlLk6GJQsqaUBKTNV-1">
          <mxGeometry x="660" y="50" width="160" height="30" as="geometry" />
        </mxCell>
        <mxCell id="5Lu9amcT2PzDgMs-pKjX-84" value="" style="rounded=0;whiteSpace=wrap;html=1;" vertex="1" parent="5Lu9amcT2PzDgMs-pKjX-83">
          <mxGeometry x="40" width="120" height="30" as="geometry" />
        </mxCell>
        <mxCell id="5Lu9amcT2PzDgMs-pKjX-85" value="RT" style="rounded=0;whiteSpace=wrap;html=1;" vertex="1" parent="5Lu9amcT2PzDgMs-pKjX-83">
          <mxGeometry width="40" height="30" as="geometry" />
        </mxCell>
        <mxCell id="5Lu9amcT2PzDgMs-pKjX-86" value="" style="group" vertex="1" connectable="0" parent="WIyWlLk6GJQsqaUBKTNV-1">
          <mxGeometry x="660" y="90" width="160" height="30" as="geometry" />
        </mxCell>
        <mxCell id="5Lu9amcT2PzDgMs-pKjX-87" value="" style="rounded=0;whiteSpace=wrap;html=1;" vertex="1" parent="5Lu9amcT2PzDgMs-pKjX-86">
          <mxGeometry x="40" width="120" height="30" as="geometry" />
        </mxCell>
        <mxCell id="5Lu9amcT2PzDgMs-pKjX-88" value="RB" style="rounded=0;whiteSpace=wrap;html=1;" vertex="1" parent="5Lu9amcT2PzDgMs-pKjX-86">
          <mxGeometry width="40" height="30" as="geometry" />
        </mxCell>
        <mxCell id="5Lu9amcT2PzDgMs-pKjX-89" value="" style="group" vertex="1" connectable="0" parent="WIyWlLk6GJQsqaUBKTNV-1">
          <mxGeometry x="10" y="50" width="160" height="30" as="geometry" />
        </mxCell>
        <mxCell id="5Lu9amcT2PzDgMs-pKjX-90" value="" style="rounded=0;whiteSpace=wrap;html=1;" vertex="1" parent="5Lu9amcT2PzDgMs-pKjX-89">
          <mxGeometry x="40" width="120" height="30" as="geometry" />
        </mxCell>
        <mxCell id="5Lu9amcT2PzDgMs-pKjX-91" value="LT" style="rounded=0;whiteSpace=wrap;html=1;" vertex="1" parent="5Lu9amcT2PzDgMs-pKjX-89">
          <mxGeometry width="40" height="30" as="geometry" />
        </mxCell>
        <mxCell id="5Lu9amcT2PzDgMs-pKjX-92" value="" style="group" vertex="1" connectable="0" parent="WIyWlLk6GJQsqaUBKTNV-1">
          <mxGeometry x="10" y="90" width="160" height="30" as="geometry" />
        </mxCell>
        <mxCell id="5Lu9amcT2PzDgMs-pKjX-93" value="" style="rounded=0;whiteSpace=wrap;html=1;" vertex="1" parent="5Lu9amcT2PzDgMs-pKjX-92">
          <mxGeometry x="40" width="120" height="30" as="geometry" />
        </mxCell>
        <mxCell id="5Lu9amcT2PzDgMs-pKjX-94" value="LB" style="rounded=0;whiteSpace=wrap;html=1;" vertex="1" parent="5Lu9amcT2PzDgMs-pKjX-92">
          <mxGeometry width="40" height="30" as="geometry" />
        </mxCell>
        <mxCell id="5Lu9amcT2PzDgMs-pKjX-95" value="" style="group" vertex="1" connectable="0" parent="WIyWlLk6GJQsqaUBKTNV-1">
          <mxGeometry x="250" y="50" width="160" height="30" as="geometry" />
        </mxCell>
        <mxCell id="5Lu9amcT2PzDgMs-pKjX-96" value="" style="rounded=0;whiteSpace=wrap;html=1;" vertex="1" parent="5Lu9amcT2PzDgMs-pKjX-95">
          <mxGeometry x="40" width="120" height="30" as="geometry" />
        </mxCell>
        <mxCell id="5Lu9amcT2PzDgMs-pKjX-97" value="Back" style="rounded=0;whiteSpace=wrap;html=1;" vertex="1" parent="5Lu9amcT2PzDgMs-pKjX-95">
          <mxGeometry width="40" height="30" as="geometry" />
        </mxCell>
        <mxCell id="5Lu9amcT2PzDgMs-pKjX-98" value="" style="group" vertex="1" connectable="0" parent="WIyWlLk6GJQsqaUBKTNV-1">
          <mxGeometry x="420" y="50" width="160" height="30" as="geometry" />
        </mxCell>
        <mxCell id="5Lu9amcT2PzDgMs-pKjX-99" value="" style="rounded=0;whiteSpace=wrap;html=1;" vertex="1" parent="5Lu9amcT2PzDgMs-pKjX-98">
          <mxGeometry x="40" width="120" height="30" as="geometry" />
        </mxCell>
        <mxCell id="5Lu9amcT2PzDgMs-pKjX-100" value="Start" style="rounded=0;whiteSpace=wrap;html=1;" vertex="1" parent="5Lu9amcT2PzDgMs-pKjX-98">
          <mxGeometry width="40" height="30" as="geometry" />
        </mxCell>
        <mxCell id="5Lu9amcT2PzDgMs-pKjX-116" value="" style="group" vertex="1" connectable="0" parent="WIyWlLk6GJQsqaUBKTNV-1">
          <mxGeometry x="9" y="190" width="160" height="190" as="geometry" />
        </mxCell>
        <mxCell id="5Lu9amcT2PzDgMs-pKjX-24" value="Left Analog" style="rounded=0;whiteSpace=wrap;html=1;strokeColor=none;fontSize=16;" vertex="1" parent="5Lu9amcT2PzDgMs-pKjX-116">
          <mxGeometry width="160" height="30" as="geometry" />
        </mxCell>
        <mxCell id="5Lu9amcT2PzDgMs-pKjX-47" value="" style="group" vertex="1" connectable="0" parent="5Lu9amcT2PzDgMs-pKjX-116">
          <mxGeometry y="40" width="160" height="30" as="geometry" />
        </mxCell>
        <mxCell id="5Lu9amcT2PzDgMs-pKjX-48" value="" style="rounded=0;whiteSpace=wrap;html=1;" vertex="1" parent="5Lu9amcT2PzDgMs-pKjX-47">
          <mxGeometry x="40" width="120" height="30" as="geometry" />
        </mxCell>
        <mxCell id="5Lu9amcT2PzDgMs-pKjX-49" value="Up" style="rounded=0;whiteSpace=wrap;html=1;" vertex="1" parent="5Lu9amcT2PzDgMs-pKjX-47">
          <mxGeometry width="40" height="30" as="geometry" />
        </mxCell>
        <mxCell id="5Lu9amcT2PzDgMs-pKjX-50" value="" style="group" vertex="1" connectable="0" parent="5Lu9amcT2PzDgMs-pKjX-116">
          <mxGeometry y="80" width="160" height="30" as="geometry" />
        </mxCell>
        <mxCell id="5Lu9amcT2PzDgMs-pKjX-51" value="" style="rounded=0;whiteSpace=wrap;html=1;" vertex="1" parent="5Lu9amcT2PzDgMs-pKjX-50">
          <mxGeometry x="40" width="120" height="30" as="geometry" />
        </mxCell>
        <mxCell id="5Lu9amcT2PzDgMs-pKjX-52" value="Down" style="rounded=0;whiteSpace=wrap;html=1;" vertex="1" parent="5Lu9amcT2PzDgMs-pKjX-50">
          <mxGeometry width="40" height="30" as="geometry" />
        </mxCell>
        <mxCell id="5Lu9amcT2PzDgMs-pKjX-53" value="" style="group" vertex="1" connectable="0" parent="5Lu9amcT2PzDgMs-pKjX-116">
          <mxGeometry y="120" width="160" height="30" as="geometry" />
        </mxCell>
        <mxCell id="5Lu9amcT2PzDgMs-pKjX-54" value="" style="rounded=0;whiteSpace=wrap;html=1;" vertex="1" parent="5Lu9amcT2PzDgMs-pKjX-53">
          <mxGeometry x="40" width="120" height="30" as="geometry" />
        </mxCell>
        <mxCell id="5Lu9amcT2PzDgMs-pKjX-55" value="Left" style="rounded=0;whiteSpace=wrap;html=1;" vertex="1" parent="5Lu9amcT2PzDgMs-pKjX-53">
          <mxGeometry width="40" height="30" as="geometry" />
        </mxCell>
        <mxCell id="5Lu9amcT2PzDgMs-pKjX-56" value="" style="group" vertex="1" connectable="0" parent="5Lu9amcT2PzDgMs-pKjX-116">
          <mxGeometry y="160" width="160" height="30" as="geometry" />
        </mxCell>
        <mxCell id="5Lu9amcT2PzDgMs-pKjX-57" value="" style="rounded=0;whiteSpace=wrap;html=1;" vertex="1" parent="5Lu9amcT2PzDgMs-pKjX-56">
          <mxGeometry x="40" width="120" height="30" as="geometry" />
        </mxCell>
        <mxCell id="5Lu9amcT2PzDgMs-pKjX-58" value="Right" style="rounded=0;whiteSpace=wrap;html=1;" vertex="1" parent="5Lu9amcT2PzDgMs-pKjX-56">
          <mxGeometry width="40" height="30" as="geometry" />
        </mxCell>
        <mxCell id="5Lu9amcT2PzDgMs-pKjX-117" value="" style="group" vertex="1" connectable="0" parent="WIyWlLk6GJQsqaUBKTNV-1">
          <mxGeometry x="40" y="520" width="330" height="190" as="geometry" />
        </mxCell>
        <mxCell id="5Lu9amcT2PzDgMs-pKjX-25" value="D-Pad" style="rounded=0;whiteSpace=wrap;html=1;strokeColor=none;fontSize=16;" vertex="1" parent="5Lu9amcT2PzDgMs-pKjX-117">
          <mxGeometry width="330" height="30" as="geometry" />
        </mxCell>
        <mxCell id="5Lu9amcT2PzDgMs-pKjX-43" value="" style="group" vertex="1" connectable="0" parent="5Lu9amcT2PzDgMs-pKjX-117">
          <mxGeometry y="40" width="160" height="30" as="geometry" />
        </mxCell>
        <mxCell id="5Lu9amcT2PzDgMs-pKjX-27" value="" style="rounded=0;whiteSpace=wrap;html=1;" vertex="1" parent="5Lu9amcT2PzDgMs-pKjX-43">
          <mxGeometry x="40" width="120" height="30" as="geometry" />
        </mxCell>
        <mxCell id="5Lu9amcT2PzDgMs-pKjX-39" value="Up" style="rounded=0;whiteSpace=wrap;html=1;" vertex="1" parent="5Lu9amcT2PzDgMs-pKjX-43">
          <mxGeometry width="40" height="30" as="geometry" />
        </mxCell>
        <mxCell id="5Lu9amcT2PzDgMs-pKjX-44" value="" style="group" vertex="1" connectable="0" parent="5Lu9amcT2PzDgMs-pKjX-117">
          <mxGeometry y="80" width="160" height="30" as="geometry" />
        </mxCell>
        <mxCell id="5Lu9amcT2PzDgMs-pKjX-28" value="" style="rounded=0;whiteSpace=wrap;html=1;" vertex="1" parent="5Lu9amcT2PzDgMs-pKjX-44">
          <mxGeometry x="40" width="120" height="30" as="geometry" />
        </mxCell>
        <mxCell id="5Lu9amcT2PzDgMs-pKjX-40" value="Down" style="rounded=0;whiteSpace=wrap;html=1;" vertex="1" parent="5Lu9amcT2PzDgMs-pKjX-44">
          <mxGeometry width="40" height="30" as="geometry" />
        </mxCell>
        <mxCell id="5Lu9amcT2PzDgMs-pKjX-45" value="" style="group" vertex="1" connectable="0" parent="5Lu9amcT2PzDgMs-pKjX-117">
          <mxGeometry y="120" width="160" height="30" as="geometry" />
        </mxCell>
        <mxCell id="5Lu9amcT2PzDgMs-pKjX-29" value="" style="rounded=0;whiteSpace=wrap;html=1;" vertex="1" parent="5Lu9amcT2PzDgMs-pKjX-45">
          <mxGeometry x="40" width="120" height="30" as="geometry" />
        </mxCell>
        <mxCell id="5Lu9amcT2PzDgMs-pKjX-41" value="Left" style="rounded=0;whiteSpace=wrap;html=1;" vertex="1" parent="5Lu9amcT2PzDgMs-pKjX-45">
          <mxGeometry width="40" height="30" as="geometry" />
        </mxCell>
        <mxCell id="5Lu9amcT2PzDgMs-pKjX-46" value="" style="group" vertex="1" connectable="0" parent="5Lu9amcT2PzDgMs-pKjX-117">
          <mxGeometry y="160" width="160" height="30" as="geometry" />
        </mxCell>
        <mxCell id="5Lu9amcT2PzDgMs-pKjX-30" value="" style="rounded=0;whiteSpace=wrap;html=1;" vertex="1" parent="5Lu9amcT2PzDgMs-pKjX-46">
          <mxGeometry x="40" width="120" height="30" as="geometry" />
        </mxCell>
        <mxCell id="5Lu9amcT2PzDgMs-pKjX-42" value="Right" style="rounded=0;whiteSpace=wrap;html=1;" vertex="1" parent="5Lu9amcT2PzDgMs-pKjX-46">
          <mxGeometry width="40" height="30" as="geometry" />
        </mxCell>
        <mxCell id="5Lu9amcT2PzDgMs-pKjX-101" value="" style="group" vertex="1" connectable="0" parent="5Lu9amcT2PzDgMs-pKjX-117">
          <mxGeometry x="170" y="40" width="160" height="30" as="geometry" />
        </mxCell>
        <mxCell id="5Lu9amcT2PzDgMs-pKjX-102" value="" style="rounded=0;whiteSpace=wrap;html=1;" vertex="1" parent="5Lu9amcT2PzDgMs-pKjX-101">
          <mxGeometry x="40" width="120" height="30" as="geometry" />
        </mxCell>
        <mxCell id="5Lu9amcT2PzDgMs-pKjX-103" value="UR" style="rounded=0;whiteSpace=wrap;html=1;" vertex="1" parent="5Lu9amcT2PzDgMs-pKjX-101">
          <mxGeometry width="40" height="30" as="geometry" />
        </mxCell>
        <mxCell id="5Lu9amcT2PzDgMs-pKjX-104" value="" style="group" vertex="1" connectable="0" parent="5Lu9amcT2PzDgMs-pKjX-117">
          <mxGeometry x="170" y="80" width="160" height="30" as="geometry" />
        </mxCell>
        <mxCell id="5Lu9amcT2PzDgMs-pKjX-105" value="" style="rounded=0;whiteSpace=wrap;html=1;" vertex="1" parent="5Lu9amcT2PzDgMs-pKjX-104">
          <mxGeometry x="40" width="120" height="30" as="geometry" />
        </mxCell>
        <mxCell id="5Lu9amcT2PzDgMs-pKjX-106" value="UL" style="rounded=0;whiteSpace=wrap;html=1;" vertex="1" parent="5Lu9amcT2PzDgMs-pKjX-104">
          <mxGeometry width="40" height="30" as="geometry" />
        </mxCell>
        <mxCell id="5Lu9amcT2PzDgMs-pKjX-107" value="" style="group" vertex="1" connectable="0" parent="5Lu9amcT2PzDgMs-pKjX-117">
          <mxGeometry x="170" y="120" width="160" height="30" as="geometry" />
        </mxCell>
        <mxCell id="5Lu9amcT2PzDgMs-pKjX-108" value="" style="rounded=0;whiteSpace=wrap;html=1;" vertex="1" parent="5Lu9amcT2PzDgMs-pKjX-107">
          <mxGeometry x="40" width="120" height="30" as="geometry" />
        </mxCell>
        <mxCell id="5Lu9amcT2PzDgMs-pKjX-109" value="DR" style="rounded=0;whiteSpace=wrap;html=1;" vertex="1" parent="5Lu9amcT2PzDgMs-pKjX-107">
          <mxGeometry width="40" height="30" as="geometry" />
        </mxCell>
        <mxCell id="5Lu9amcT2PzDgMs-pKjX-110" value="" style="group" vertex="1" connectable="0" parent="5Lu9amcT2PzDgMs-pKjX-117">
          <mxGeometry x="170" y="160" width="160" height="30" as="geometry" />
        </mxCell>
        <mxCell id="5Lu9amcT2PzDgMs-pKjX-111" value="" style="rounded=0;whiteSpace=wrap;html=1;" vertex="1" parent="5Lu9amcT2PzDgMs-pKjX-110">
          <mxGeometry x="40" width="120" height="30" as="geometry" />
        </mxCell>
        <mxCell id="5Lu9amcT2PzDgMs-pKjX-112" value="DL" style="rounded=0;whiteSpace=wrap;html=1;" vertex="1" parent="5Lu9amcT2PzDgMs-pKjX-110">
          <mxGeometry width="40" height="30" as="geometry" />
        </mxCell>
        <mxCell id="5Lu9amcT2PzDgMs-pKjX-118" value="" style="group" vertex="1" connectable="0" parent="WIyWlLk6GJQsqaUBKTNV-1">
          <mxGeometry x="640" y="520" width="160" height="190" as="geometry" />
        </mxCell>
        <mxCell id="5Lu9amcT2PzDgMs-pKjX-26" value="Right Analog" style="rounded=0;whiteSpace=wrap;html=1;strokeColor=none;fontSize=16;" vertex="1" parent="5Lu9amcT2PzDgMs-pKjX-118">
          <mxGeometry width="160" height="30" as="geometry" />
        </mxCell>
        <mxCell id="5Lu9amcT2PzDgMs-pKjX-59" value="" style="group" vertex="1" connectable="0" parent="5Lu9amcT2PzDgMs-pKjX-118">
          <mxGeometry y="40" width="160" height="30" as="geometry" />
        </mxCell>
        <mxCell id="5Lu9amcT2PzDgMs-pKjX-60" value="" style="rounded=0;whiteSpace=wrap;html=1;" vertex="1" parent="5Lu9amcT2PzDgMs-pKjX-59">
          <mxGeometry x="40" width="120" height="30" as="geometry" />
        </mxCell>
        <mxCell id="5Lu9amcT2PzDgMs-pKjX-61" value="Up" style="rounded=0;whiteSpace=wrap;html=1;" vertex="1" parent="5Lu9amcT2PzDgMs-pKjX-59">
          <mxGeometry width="40" height="30" as="geometry" />
        </mxCell>
        <mxCell id="5Lu9amcT2PzDgMs-pKjX-62" value="" style="group" vertex="1" connectable="0" parent="5Lu9amcT2PzDgMs-pKjX-118">
          <mxGeometry y="80" width="160" height="30" as="geometry" />
        </mxCell>
        <mxCell id="5Lu9amcT2PzDgMs-pKjX-63" value="" style="rounded=0;whiteSpace=wrap;html=1;" vertex="1" parent="5Lu9amcT2PzDgMs-pKjX-62">
          <mxGeometry x="40" width="120" height="30" as="geometry" />
        </mxCell>
        <mxCell id="5Lu9amcT2PzDgMs-pKjX-64" value="Down" style="rounded=0;whiteSpace=wrap;html=1;" vertex="1" parent="5Lu9amcT2PzDgMs-pKjX-62">
          <mxGeometry width="40" height="30" as="geometry" />
        </mxCell>
        <mxCell id="5Lu9amcT2PzDgMs-pKjX-65" value="" style="group" vertex="1" connectable="0" parent="5Lu9amcT2PzDgMs-pKjX-118">
          <mxGeometry y="120" width="160" height="30" as="geometry" />
        </mxCell>
        <mxCell id="5Lu9amcT2PzDgMs-pKjX-66" value="" style="rounded=0;whiteSpace=wrap;html=1;" vertex="1" parent="5Lu9amcT2PzDgMs-pKjX-65">
          <mxGeometry x="40" width="120" height="30" as="geometry" />
        </mxCell>
        <mxCell id="5Lu9amcT2PzDgMs-pKjX-67" value="Left" style="rounded=0;whiteSpace=wrap;html=1;" vertex="1" parent="5Lu9amcT2PzDgMs-pKjX-65">
          <mxGeometry width="40" height="30" as="geometry" />
        </mxCell>
        <mxCell id="5Lu9amcT2PzDgMs-pKjX-68" value="" style="group" vertex="1" connectable="0" parent="5Lu9amcT2PzDgMs-pKjX-118">
          <mxGeometry y="160" width="160" height="30" as="geometry" />
        </mxCell>
        <mxCell id="5Lu9amcT2PzDgMs-pKjX-69" value="" style="rounded=0;whiteSpace=wrap;html=1;" vertex="1" parent="5Lu9amcT2PzDgMs-pKjX-68">
          <mxGeometry x="40" width="120" height="30" as="geometry" />
        </mxCell>
        <mxCell id="5Lu9amcT2PzDgMs-pKjX-70" value="Right" style="rounded=0;whiteSpace=wrap;html=1;" vertex="1" parent="5Lu9amcT2PzDgMs-pKjX-68">
          <mxGeometry width="40" height="30" as="geometry" />
        </mxCell>
      </root>
    </mxGraphModel>
  </diagram>
</mxfile>
